<svg xmlns="http://www.w3.org/2000/svg" viewBox="0 0 1920 1280"><defs><style>.cls-1{fill:#fdfce5;}.cls-2{fill:#f9f3df;}.cls-3{fill:#f2f2f2;}.cls-4{fill:#f0f0f0;}.cls-5{fill:#fff;}.cls-6{fill:#f4d19b;}.cls-7{fill:#ccc;}.cls-8{fill:#e6e6e6;}.cls-9{fill:#3f3d56;}.cls-10{fill:#ff6582;}.cls-11{fill:#ffb6b6;}.cls-12{fill:#2f2e41;}.cls-13,.cls-17{fill:#6cd1f4;}.cls-13,.cls-16{isolation:isolate;}.cls-14{fill:#ffb7b7;}.cls-15{fill:#fd6584;}.cls-16{opacity:0.1;}.cls-18{fill:#575a89;}.cls-19{fill:#a0616a;}.cls-20{fill:#ff7;}</style></defs><g id="Layer_2" data-name="Layer 2"><g id="Layer_5" data-name="Layer 5"><rect class="cls-1" width="1920" height="1280"/><circle class="cls-2" cx="1473.5" cy="581.6" r="354.5"/><path class="cls-3" d="M537.46,1136.91l.78-17.38a56.09,56.09,0,0,1,26.17-6.62c-12.57,10.28-11,30.09-19.52,43.91a33.72,33.72,0,0,1-24.75,15.59l-10.52,6.45A56.56,56.56,0,0,1,521.54,1133a54.86,54.86,0,0,1,10-9.33C534.1,1130.34,537.46,1136.91,537.46,1136.91Z"/><path class="cls-4" d="M1442.52,1009.67l-2.3,10.05.55.6c-.12.31-.25.61-.39.92a70.8,70.8,0,0,1-4.18,8c-2.06,3.43-4.37,6.74-6.77,10-1.31,1.79-2.67,3.57-4,5.34a1.88,1.88,0,0,1-.12.18.6.6,0,0,1,.06-.19l-.44-.1-2.54-11-.78,1.74v0l-1.25,2.88c.1.53.19,1,.32,1.56,0,0,0,0,0,0v0c-.16-.34-.33-.67-.49-1l-1.92,4.4-3.88-.88c-2-1.06-4.08-2.13-6.11-3.24-27.69-15-53.33-34.2-70.6-60.31a119.35,119.35,0,0,1-15.37-33.83c-6.54-23.86-5.41-49.54,6.5-70.85h0c.29-.55.6-1.09.92-1.63.23.62.45,1.23.7,1.85h0A167.11,167.11,0,0,0,1342,898.19c.34.6.69,1.21,1.06,1.8a173.21,173.21,0,0,0,42.16,47.84l.15.12a1.33,1.33,0,0,0,.19.14q5.64,4.42,11.66,8.32h0c3.13,2,6.35,4,9.62,5.8,7,3.88,14.54,7.61,21.06,12.27,6.32,4.51,11.66,9.88,14.49,17.07.22.58.43,1.15.62,1.73l-5.06,15.62Z"/><path class="cls-5" d="M1421.59,1035.17v0l-1.25,2.88c-1.89-10.51.35-21.63-1.21-32.28-.17-1.2-.39-2.39-.67-3.57-1.6-6.73-5.25-13-11.74-16a26.24,26.24,0,0,0-5.92-1.91c-4-.86-8.23-1-12.3-1.52-1-.12-2-.26-3-.44a37.1,37.1,0,0,1-14.72-5.69,58.86,58.86,0,0,1-14-14.08,127.44,127.44,0,0,1-7.07-10.64c-.29-.47-.56-.95-.85-1.43a149.32,149.32,0,0,1-12.44-27.77,144.61,144.61,0,0,1-4.13-15,149.29,149.29,0,0,1-3.53-33.84h0c0-.52,0-1,0-1.55,0-1.06,1.66-.83,1.63.23,0,.52,0,1,0,1.54h0a148.59,148.59,0,0,0,3.28,32.44l.36,1.62a147,147,0,0,0,16.55,42c.08.14.17.29.27.44q2.67,4.55,5.71,8.87a63.46,63.46,0,0,0,13.49,14.64,35.16,35.16,0,0,0,14.94,6.48c.54.1,1.08.2,1.63.28s.88.14,1.32.19c4.14.51,8.39.71,12.51,1.49a33.92,33.92,0,0,1,5.49,1.54,22.32,22.32,0,0,1,12.68,13.12,39,39,0,0,1,2.23,8.91c.14,1,.24,2,.32,3h0c.13,1.62.19,3.26.21,4.89,0,2,0,4.08-.06,6.11A105.41,105.41,0,0,0,1421.59,1035.17Z"/><path class="cls-5" d="M1350.4,951.55a22.13,22.13,0,0,1-27.88-6.65c-.63-.86.68-1.87,1.3-1a20.5,20.5,0,0,0,26,6.13c1-.48,1.57,1.05.63,1.53Z"/><path class="cls-5" d="M1384.83,981a42.69,42.69,0,0,0-1.51-31.06c-.44-1,1.09-1.6,1.53-.63a44.38,44.38,0,0,1,1.5,32.33c-.34,1-1.86.36-1.52-.64Z"/><path class="cls-5" d="M1333.19,906.64a12.54,12.54,0,0,0,8.63-8.18c.33-1,1.85-.37,1.52.63a14,14,0,0,1-9.52,9.08.86.86,0,0,1-1.08-.46A.82.82,0,0,1,1333.19,906.64Z"/><path class="cls-4" d="M1425.22,1044.84l.07-.09c0,.14-.1.29-.14.45Z"/><path class="cls-4" d="M1461.74,969.21l-1.72,6-10.56-2-3.5,10.8-.61,1.86-2.39,7.38-5.06,15.62,4.62.76-2.3,10.05.55.6.17.18,1.15,1.26,7,7.59-19,16.28-3-.7-1.56-.36a1.88,1.88,0,0,1-.12.18,1.06,1.06,0,0,1,.06-.19l-.44-.1-2.54-11-.78,1.75h0l-1.25,2.88c.1.53.19,1,.32,1.57,0,0,0,0,0-.05v0c-.16-.34-.33-.67-.49-1-2.43-5.07-4.76-10.22-6.91-15.43a228.07,228.07,0,0,1-12.42-38.84c-.12-.58-.26-1.15-.35-1.74v0a160.18,160.18,0,0,1-3.28-26.09h0a141.54,141.54,0,0,1,.14-14.42,118.32,118.32,0,0,1,8.08-36.16,1.22,1.22,0,0,1,.07-.17c8.76-22,24.18-41.16,45.14-51.34.87-.45,1.77-.86,2.67-1.26h0l1.69-.72c-.19.64-.38,1.27-.56,1.93a163.65,163.65,0,0,0-5.3,26.23h0c-.1.68-.19,1.38-.26,2.06v0a173.75,173.75,0,0,0,4.94,63.84,1.09,1.09,0,0,0,0,.17A167.26,167.26,0,0,0,1461.74,969.21Z"/><path class="cls-5" d="M1442.09,1021.76c-1,1.3-2,2.57-3,3.83l-2.91,3.66a70.9,70.9,0,0,0-6.77,10,34.64,34.64,0,0,0-2.46,5.7l-1.56-.36a1.88,1.88,0,0,1-.12.18,1.06,1.06,0,0,1,.06-.19c2.86-8.94,9.38-15.87,15-23.32.19-.24.38-.49.56-.74Z"/><path class="cls-5" d="M1455.39,853c-.32.41-.65.83-1,1.25q-3.59,4.65-6.79,9.62a144.05,144.05,0,0,0-10.1,18.24c-.23.49-.47,1-.69,1.5a146.61,146.61,0,0,0-12.09,43.54c0,.15,0,.29,0,.43-.4,3.52-.67,7-.78,10.58a63.27,63.27,0,0,0,2,19.81q.38,1.28.81,2.49a34.94,34.94,0,0,0,5.39,9.51c.58.74,1.18,1.46,1.82,2.16.37.41.75.82,1.13,1.22l1,.94c3.32,3.21,7,6.2,10,9.75l-.61,1.86c-2.88-3.67-6.61-6.7-10-9.89a47.11,47.11,0,0,1-5.73-6.49c-.22-.32-.45-.64-.66-1a33.57,33.57,0,0,1-2.94-5.27c-.41-.93-.79-1.87-1.14-2.85a58.76,58.76,0,0,1-2.7-19.66A126.64,126.64,0,0,1,1423,928c0-.55.11-1.09.18-1.64a149.19,149.19,0,0,1,6.79-29.66,150.78,150.78,0,0,1,16.9-34.63q3-4.62,6.45-9l.92-1.2C1454.88,851,1456,852.18,1455.39,853Z"/><path class="cls-5" d="M1423.75,928.17a22.14,22.14,0,0,1-18.26-22.1.83.83,0,0,1,1.65,0,20.51,20.51,0,0,0,17,20.52c1,.18.62,1.78-.42,1.6Z"/><path class="cls-5" d="M1433.48,972.44a42.7,42.7,0,0,0,17.5-25.71c.23-1,1.83-.62,1.6.42a44.41,44.41,0,0,1-18.26,26.71C1433.44,974.46,1432.61,973,1433.48,972.44Z"/><path class="cls-5" d="M1437.05,881.94a12.51,12.51,0,0,0,11.81-1.34c.88-.6,1.7.83.84,1.43a14.06,14.06,0,0,1-13.07,1.51.86.86,0,0,1-.59-1A.84.84,0,0,1,1437.05,881.94Z"/><path class="cls-4" d="M1612.2,337.06c-9.3-49.78,5.35-106.42,46-136.56a233.41,233.41,0,0,0,48.65,152.65c13.06,16.75,29.34,34,28.84,55.25-.32,13.21-7.46,25.52-16.88,34.79s-21,16-32.48,22.54l-1.78,2.78C1651,430.61,1621.51,386.85,1612.2,337.06Z"/><path class="cls-5" d="M1659,201.26a199.49,199.49,0,0,0-13.16,122c1.88,8.78,4.56,17.53,9.09,25.33a49.31,49.31,0,0,0,18.61,18c7.11,4.1,14.85,7.48,20.83,13.24,6.31,6.07,9.11,14.36,8.88,23-.29,10.6-4.36,20.45-8.68,30-4.8,10.55-10,21.43-9.64,33.29,0,1.44-2.19,1.41-2.23,0-.54-20.63,14.38-37.2,17.7-57,1.55-9.23.33-19-6.17-26.16-5.68-6.26-13.66-9.75-20.89-13.84-7.59-4.3-14-9.61-18.85-17-4.91-7.53-7.94-16.19-10-24.88a193.6,193.6,0,0,1-4.38-60.32,202.91,202.91,0,0,1,17-66.81c.58-1.31,2.5-.16,1.91,1.14Z"/><path class="cls-5" d="M1651.47,350.6a40.28,40.28,0,0,1-42-30.9c-.44-1.88,2.47-2.65,2.91-.76a37.3,37.3,0,0,0,39.15,28.66C1653.43,347.45,1653.39,350.46,1651.47,350.6Z"/><path class="cls-5" d="M1669.66,365a57.66,57.66,0,0,0,14.45-39.47c0-1.43,2.2-1.41,2.24,0a60,60,0,0,1-15.13,41C1670.26,367.71,1668.71,366.11,1669.66,365Z"/><path class="cls-5" d="M1647.07,320.73a22.82,22.82,0,0,0,20.26-7.61c1.27-1.46,3.36.69,2.1,2.15a25.53,25.53,0,0,1-22.39,8.46,1.55,1.55,0,0,1-1.49-1.52,1.51,1.51,0,0,1,1.52-1.48Z"/><path class="cls-4" d="M1824.71,241.68c-.56.7-1.13,1.39-1.7,2.11a223.16,223.16,0,0,0-20.41,29.87c-.48.81-.95,1.63-1.4,2.44a235.11,235.11,0,0,0-27.44,82.12,226.77,226.77,0,0,0-2.09,34.64c.25,16,1.79,33.32-3.11,48a38,38,0,0,1-1.76,4.51l-78.68,25.07-.62-.08-3.09,1.14c-.06-.59-.1-1.21-.15-1.81,0-.34,0-.7-.07-1s0-.47-.06-.68,0-.15,0-.21c0-.21,0-.41,0-.6-.23-3.46-.45-6.93-.63-10.41,0,0,0,0,0,0-1.35-26.52-.5-53.38,4.4-79.26.15-.78.29-1.58.47-2.37a218.63,218.63,0,0,1,9.64-34.23,193.86,193.86,0,0,1,7.77-17.88,160.27,160.27,0,0,1,29.08-40.78c23.47-23.89,54.32-40,87.38-40.51C1823,241.68,1823.86,241.68,1824.71,241.68Z"/><path class="cls-5" d="M1824.86,242.74a199.42,199.42,0,0,0-84,89.48c-3.79,8.15-6.92,16.74-8,25.7a49.31,49.31,0,0,0,4,25.62c3.2,7.55,7.35,14.91,8.66,23.11,1.38,8.65-1.37,17-6.77,23.72-6.6,8.29-15.79,13.71-25,18.69-10.19,5.54-20.85,11.12-27.74,20.78-.84,1.17-2.6-.19-1.77-1.36,12-16.8,33.88-21.05,48.46-34.86,6.8-6.45,11.7-15,10.83-24.61-.77-8.42-5-16-8.35-23.63-3.47-8-5.43-16.13-4.83-24.9.61-9,3.41-17.7,7-25.91a193.36,193.36,0,0,1,32.81-50.8,202.89,202.89,0,0,1,53.82-43.1c1.25-.69,2.08,1.38.84,2.07Z"/><path class="cls-5" d="M1733.38,363.34a40.28,40.28,0,0,1-15-50c.78-1.77,3.56-.64,2.78,1.13a37.3,37.3,0,0,0,14,46.46c1.63,1.05-.21,3.42-1.83,2.38Z"/><path class="cls-5" d="M1734.76,379.92a57.65,57.65,0,0,0,35.31-22.81c.84-1.16,2.61.2,1.77,1.37a60,60,0,0,1-36.79,23.66c-1.41.28-1.69-1.93-.29-2.22Z"/><path class="cls-5" d="M1743.06,328.37a22.82,22.82,0,0,0,20.76,6.12c1.89-.4,2.26,2.58.38,3a25.54,25.54,0,0,1-23-6.72,1.56,1.56,0,0,1-.27-2.11,1.5,1.5,0,0,1,2.1-.27Z"/><path class="cls-4" d="M1373.28,260.11c-5.85-4.13-12.25-8.44-19.41-8.27-17.34.42-26.68,25.83-44,24.93-11-.57-18.37-11.78-28.65-15.85-13.39-5.3-30.42,5.06-31.89,19.38l1.72-1.57a415.07,415.07,0,0,0,159,7.34Z"/><circle class="cls-6" cx="1405.72" cy="230.52" r="60.15"/><path class="cls-4" d="M1546.51,219c-7.46-5.26-15.62-10.75-24.75-10.53-22.09.53-34,32.91-56.07,31.77-14.07-.72-23.41-15-36.52-20.2-17.06-6.75-38.77,6.45-40.63,24.7l2.19-2a529,529,0,0,0,202.66,9.37Z"/><path class="cls-7" d="M1849.68,695.57l-47.41-253.86a18.8,18.8,0,0,0-17.86-15.22h-1.15l-32.3,1.16-3.47.13-16.12.58-3.48.12-10.37.37-209.07,7.51c-.32,0-.64,0-1,0l-46.85-1-17.33-.36h-.56l-12.8-.27-111.5-2.32-29.57-.62-14.57-.3-3.5-.08-16.62-.34-3.48-.07-17-.35-3.48-.08-18.69-.39-2.93-.06-16.66-.35-2.63-.05h-.39a18.76,18.76,0,0,0-18.42,15.66l-42.88,263.43A18.65,18.65,0,0,0,1143,730.24a17.78,17.78,0,0,0,3,.25h246.26a17.07,17.07,0,0,1,10.07,3.32l4.67,3.46a18.79,18.79,0,0,0,11.1,3.66h145.13a18.47,18.47,0,0,0,13.19-5.47,17,17,0,0,1,11.08-4.93l244.79-12.9A18.65,18.65,0,0,0,1850,698a18.35,18.35,0,0,0-.29-2.46Z"/><path class="cls-8" d="M1810.88,688.67l-26.43-261.84a2,2,0,0,0,0-.34,16.63,16.63,0,0,0-5.77-10.74l-56.86-47.36a15,15,0,0,0-8.76-3.5c-26-1.67-158.25-7.86-207.06,34.51a13.44,13.44,0,0,1-10.92,3.14,13.7,13.7,0,0,1-9.48-6.36,56,56,0,0,0-16-16.29,86.66,86.66,0,0,0-8.95-5.43q-4.1-2.16-8.94-4.18c-2.79-1.16-5.76-2.28-9-3.34-16.52-5.52-38.6-9.64-68.11-11-12.25-.58-25.55-.66-39.55-.24-12.78.37-26.36,1.15-40.36,2.31h-.21l-94.71,57.83a16.52,16.52,0,0,0-7.68,12.23l-.19,1.74-30.08,268.72a16.88,16.88,0,0,0,3.88,12.79,15.47,15.47,0,0,0,11.75,5.49h233.37a13.7,13.7,0,0,1,8.53,3l10.19,8.16a15.33,15.33,0,0,0,9.35,3.39L1541.54,733h.25a15.23,15.23,0,0,0,7.4-1.92l19.79-11a13.69,13.69,0,0,1,5.88-1.71L1796,706.74a15.38,15.38,0,0,0,11.16-5.71A16.65,16.65,0,0,0,1810.88,688.67Z"/><path class="cls-5" d="M1733.68,641.45l-3.09-40.75-13.06-171.84-2-25.42a26.93,26.93,0,0,0-26.24-25c-47.86-1.23-134.51.94-177,29.43a23.57,23.57,0,0,1-30.85-3.81,68.59,68.59,0,0,0-20.81-15.54,116.7,116.7,0,0,0-17.89-7.2q-27-8.62-68.14-10.48l-65.1-.38h-.11a17.74,17.74,0,0,0-17.69,16.62l-2.83,44.69-12.34,196a27,27,0,0,0,25.24,28.65c.44,0,.89,0,1.33.05,109.27,1.62,157,24.68,177.81,43.73a27,27,0,0,0,33,2.68c37.79-24.75,100.59-31.63,150.59-32.7,15.31-.32,29.41-.11,41.23.31a27,27,0,0,0,28-26,25.71,25.71,0,0,0-.06-3Z"/><path class="cls-5" d="M1193.7,692.17h-.13a1.74,1.74,0,0,1-1.61-1.86h0l18.8-265.45a1.73,1.73,0,0,1,1.82-1.62h0a1.72,1.72,0,0,1,1.61,1.85h0l-18.8,265.46A1.74,1.74,0,0,1,1193.7,692.17Z"/><path class="cls-5" d="M1216.32,681.72h-.12a1.74,1.74,0,0,1-1.61-1.86h0l18.8-265.45a1.71,1.71,0,0,1,1.81-1.62h0a1.75,1.75,0,0,1,1.62,1.86h0l-18.8,265.46A1.74,1.74,0,0,1,1216.32,681.72Z"/><path class="cls-5" d="M1237.21,676.5h-.13a1.74,1.74,0,0,1-1.61-1.86h0l18.8-265.45a1.72,1.72,0,0,1,1.82-1.62h0a1.74,1.74,0,0,1,1.61,1.86h0l-18.8,265.45A1.73,1.73,0,0,1,1237.21,676.5Z"/><path class="cls-5" d="M1255.64,672.19h-.13a1.73,1.73,0,0,1-1.61-1.85h0l18.8-265.46a1.71,1.71,0,0,1,1.82-1.61h0a1.74,1.74,0,0,1,1.61,1.86h0l-18.8,265.45A1.74,1.74,0,0,1,1255.64,672.19Z"/><path class="cls-5" d="M1789.9,700h.13a1.74,1.74,0,0,0,1.61-1.86h0l-18.8-265.45a1.73,1.73,0,0,0-1.82-1.62h0a1.74,1.74,0,0,0-1.61,1.86h0l18.8,265.46A1.73,1.73,0,0,0,1789.9,700Z"/><path class="cls-5" d="M1767.28,684.37h.12a1.74,1.74,0,0,0,1.61-1.86h0l-18.8-265.46a1.71,1.71,0,0,0-1.81-1.61h0a1.75,1.75,0,0,0-1.62,1.86h0l18.8,265.45A1.75,1.75,0,0,0,1767.28,684.37Z"/><path class="cls-5" d="M1746.39,667h.13a1.73,1.73,0,0,0,1.61-1.85h0l-18.8-265.46a1.71,1.71,0,0,0-1.82-1.61h0a1.74,1.74,0,0,0-1.61,1.86h0l18.8,265.45A1.74,1.74,0,0,0,1746.39,667Z"/><path class="cls-9" d="M1319.31,430.46c39.23-12.51,83-9.2,120.16,8.43a158.9,158.9,0,0,1,29.85,18.39c2.62,2.05,6.34-1.62,3.7-3.69a171.05,171.05,0,0,0-120-35.2,163.82,163.82,0,0,0-35,7c-3.18,1-1.82,6.06,1.39,5Z"/><path class="cls-9" d="M1535.17,459.31c36.47-19.17,80.14-23.35,119.8-12.47a157.78,157.78,0,0,1,32.57,13c3,1.58,5.6-2.92,2.64-4.51-37.8-20.16-83.17-24.81-124.44-13.56a163.83,163.83,0,0,0-33.21,13.08C1529.56,456.36,1532.19,460.87,1535.17,459.31Z"/><path class="cls-9" d="M1535.17,494.11c36.47-19.17,80.14-23.35,119.8-12.46a157.22,157.22,0,0,1,32.57,13c3,1.58,5.6-2.93,2.64-4.51-37.8-20.17-83.17-24.81-124.44-13.57a163.87,163.87,0,0,0-33.21,13.09c-3,1.56-.34,6.07,2.64,4.5Z"/><path class="cls-9" d="M1691.45,527.05a2.23,2.23,0,0,0-1.28-2.16,171.11,171.11,0,0,0-98.57-18.46c-.21,0-.41.05-.64.06h0a4.44,4.44,0,0,0-.62.1,164.88,164.88,0,0,0-57.8,17.81,2.64,2.64,0,0,0-1.28,2.27V591.6a2.63,2.63,0,0,0,2.67,2.59,2.18,2.18,0,0,0,.63-.09c.8-.23,1.6-.45,2.42-.66a258.83,258.83,0,0,1,55.72-8.72l1.22-.05a292.79,292.79,0,0,1,46,1.65c.32,0,.64.06,1,.11.78.08,1.58.18,2.37.28q.46,0,.9.12c3.05.38,6.07.81,9.11,1.28q6.57,1,13.13,2.34l.84.17q10.54,2.1,21,4.8a2.64,2.64,0,0,0,3.23-1.9,2.57,2.57,0,0,0,.08-.62V527.15A.18.18,0,0,0,1691.45,527.05Z"/><path class="cls-10" d="M1595.69,510a8.56,8.56,0,0,0-6.15-.54,7.31,7.31,0,0,0-4.1,3.85,18.69,18.69,0,0,0-1.34,5.3c-.11.72-.12,1.62.6,2a1.54,1.54,0,0,0,1.55-.31,4.61,4.61,0,0,0,.91-1.27,13.77,13.77,0,0,1,11.64-6.32l1.93.76A22.77,22.77,0,0,0,1595.69,510Z"/><path class="cls-5" d="M1616.55,524.93c-1.49-2.2-3.26-4.55-6-5.27-3.21-.83-6.52.82-9.32,2.45A271.38,271.38,0,0,0,1577,538v.09l18-1.11c4.34-.27,8.83-.57,12.67-2.4a12.08,12.08,0,0,1,4.53-1.69,7.56,7.56,0,0,1,5.24,2.53c8.31,7.88,10.71,19.92,20,26.84A253.9,253.9,0,0,0,1616.55,524.93Z"/><path class="cls-5" d="M1593.91,584.67l-1.22.05c-2.9-1-5.88-2-8.89-2.76-2-.53-3.93-1-5.92-1.4-2.24-.48-4.5-.87-6.76-1.2a108.87,108.87,0,0,0-13-1.09.25.25,0,0,1-.27-.21.24.24,0,0,1,.21-.26h.06c.55,0,1.11,0,1.65.05a107.26,107.26,0,0,1,13,1.27c2.24.36,4.49.8,6.71,1.29,2,.45,4,1,6,1.51Q1589.78,583.12,1593.91,584.67Z"/><path class="cls-5" d="M1644.1,586.83q-.43-.08-.9-.12c-1.2-1-2.42-1.94-3.69-2.86q-2.38-1.73-4.89-3.23a86,86,0,0,0-11.56-5.89,115.21,115.21,0,0,0-19.52-6.16,193.63,193.63,0,0,0-23.1-3.62c-7.76-.8-15.56-1.28-23.35-1.77-.33,0-.35-.51,0-.49l2.94.19c7.88.49,15.77,1,23.6,1.93a180.22,180.22,0,0,1,23.06,4,111.88,111.88,0,0,1,18.9,6.49,85.22,85.22,0,0,1,10.16,5.41c2.07,1.3,4.07,2.7,6,4.18C1642.54,585.52,1643.34,586.15,1644.1,586.83Z"/><path class="cls-5" d="M1640.83,586.43c-.32,0-.64-.09-1-.11-.36-.29-.75-.57-1.13-.85a78.71,78.71,0,0,0-8.37-5.24,89.6,89.6,0,0,0-8.09-3.88,113.27,113.27,0,0,0-19.53-6.16,193.79,193.79,0,0,0-23.09-3.62c-7.76-.8-15.56-1.29-23.35-1.77-.34,0-.34-.51,0-.49l2.94.19c7.88.49,15.76,1,23.59,1.93a179.89,179.89,0,0,1,23.06,4,111.61,111.61,0,0,1,18.9,6.5c2.3,1,4.54,2.17,6.74,3.41A70.39,70.39,0,0,1,1640.83,586.43Z"/><path class="cls-5" d="M1667.18,590.62l-.84-.17c-.31-.33-.61-.68-.9-1q-2.25-2.58-4.44-5.22-8.64-10.29-16.38-21.13-6.63-9.24-12.58-18.84-2.83-4.54-5.51-9.19c-1.4-2.4-2.75-4.81-4.08-7.22-.38-.7-.74-1.4-1.11-2.09-.85-1.64-1.71-3.29-2.61-4.91a13.88,13.88,0,0,0-4.21-5,6.2,6.2,0,0,0-3-1,9.15,9.15,0,0,0-4.31,1.11,140.81,140.81,0,0,0-27.38,16.8,132.52,132.52,0,0,0-22.24,22c-.21.24-.66,0-.47-.25.79-1,1.59-1.95,2.39-2.9a133.22,133.22,0,0,1,21-20s0,0,.07,0c.68-.54,1.35-1.06,2.05-1.57a143.41,143.41,0,0,1,13.44-8.77c2.36-1.37,4.78-2.68,7.25-3.91.61-.32,1.24-.63,1.86-.93l1.88-.9a10.29,10.29,0,0,1,4-1.1c4.84-.07,7.33,4.81,9.05,8.1.54,1,1.1,2.05,1.63,3.08q3.13,5.82,6.53,11.55,2.07,3.56,4.25,7.05c2.07,3.32,4.19,6.61,6.4,9.88l0,0h0c2.56,3.87,5.22,7.66,8,11.44q7.08,9.68,14.83,18.93C1663.54,586.46,1665.35,588.56,1667.18,590.62Z"/><path class="cls-5" d="M1691.47,583v.8c-1.72-2-3.48-4-5.22-6l-2.19-2.51q-4.65-5.26-9.35-10.51t-9.48-10.43c-.77-.83-1.53-1.67-2.32-2.5a17.83,17.83,0,0,0-2-1.95,7.71,7.71,0,0,0-2.49-1.38,6.2,6.2,0,0,0-3.2,0c-1.2.28-2.35.71-3.52,1.08l-3.58,1.17L1640.9,553a.23.23,0,0,1-.31-.13h0a.24.24,0,0,1,.13-.32l0,0,1.81-.57,7.24-2.37c1.2-.4,2.4-.78,3.6-1.16a10.68,10.68,0,0,1,3.48-.7,7.9,7.9,0,0,1,5.12,2.4c.75.7,1.43,1.43,2.11,2.18l2.4,2.61q4.83,5.27,9.59,10.58t9.46,10.67l.68.78C1688,578.94,1689.73,581,1691.47,583Z"/><path class="cls-10" d="M1605.09,513.76l-.48.21a13.13,13.13,0,0,0-10.61-6.42c-7.13-.51-13.39,4.24-14,10.58a10.46,10.46,0,0,0,2.11,7.3l-.44.26a10.91,10.91,0,0,1-2.21-7.6c.59-6.6,7.11-11.54,14.53-11A13.67,13.67,0,0,1,1605.09,513.76Z"/><path class="cls-5" d="M1569.88,526.59a12.84,12.84,0,0,0-11.7.75,185.41,185.41,0,0,1,19,3.94C1574.58,529.93,1572.56,527.81,1569.88,526.59Z"/><path class="cls-5" d="M1558.15,527.33l-.71.51c.24-.18.49-.34.74-.5Z"/><path class="cls-5" d="M1660.61,553a6,6,0,0,0-2.54-1.89l-1,0a104.68,104.68,0,0,0,29.9,30.42Z"/><path class="cls-5" d="M1579.35,530.29l-.84-.84a24.62,24.62,0,0,0-7.68-5.62,12.25,12.25,0,0,0-4.66-1,14.87,14.87,0,0,0-4.85.94c-.73.26-1.44.56-2.15.87s-1.59.74-2.37,1.13c-1.47.72-2.93,1.48-4.36,2.27q-4.29,2.35-8.3,5.07-2.09,1.41-4.08,2.91t-3.63,2.87c-.26.2-.64-.13-.38-.34l.94-.77c.9-.72,1.8-1.43,2.73-2.12,1.68-1.26,3.41-2.48,5.17-3.64q4.14-2.73,8.54-5.08,2.21-1.17,4.47-2.25c.46-.22.92-.43,1.39-.63a23.44,23.44,0,0,1,3.29-1.19,13,13,0,0,1,5-.43,14,14,0,0,1,4.58,1.41,29.9,29.9,0,0,1,7.6,6.06C1580,530.18,1579.58,530.52,1579.35,530.29Z"/><path class="cls-9" d="M1319.31,465.27c39.23-12.52,83-9.2,120.16,8.43a157.87,157.87,0,0,1,29.85,18.39c2.62,2.05,6.34-1.62,3.7-3.69a171.06,171.06,0,0,0-120-35.21,165.05,165.05,0,0,0-35,7c-3.18,1-1.82,6.06,1.39,5Z"/><path class="cls-9" d="M1319.31,500.07c39.23-12.51,83-9.2,120.16,8.43a158.9,158.9,0,0,1,29.85,18.39c2.62,2.06,6.34-1.61,3.7-3.69A171.05,171.05,0,0,0,1353,488a164.43,164.43,0,0,0-35,7c-3.18,1-1.82,6.06,1.39,5Z"/><path class="cls-9" d="M1319.31,534.88c39.23-12.52,83-9.2,120.16,8.43a157.87,157.87,0,0,1,29.85,18.39c2.62,2,6.34-1.62,3.7-3.69a171.06,171.06,0,0,0-120-35.21,164.45,164.45,0,0,0-35,7.05c-3.18,1-1.82,6.06,1.39,5Z"/><path class="cls-9" d="M1319.31,569.69c39.23-12.52,83-9.21,120.16,8.43a157.87,157.87,0,0,1,29.85,18.39c2.62,2,6.34-1.62,3.7-3.7a171.05,171.05,0,0,0-120-35.2,165.05,165.05,0,0,0-35,7c-3.18,1-1.82,6.06,1.39,5Z"/><path class="cls-9" d="M1319.31,604.49c39.23-12.51,83-9.2,120.16,8.43a158.39,158.39,0,0,1,29.85,18.39c2.62,2.05,6.34-1.62,3.7-3.69a171,171,0,0,0-120-35.2,163.82,163.82,0,0,0-35,7c-3.18,1-1.82,6.06,1.39,5Z"/><path class="cls-6" d="M1460.64,374.46V472c0,1.67-2.89,3.05-6.8,3.43a21.18,21.18,0,0,1-2.14.1,17.87,17.87,0,0,1-6.32-1,8.39,8.39,0,0,1-1.09-.52c-1-.57-1.54-1.24-1.54-2V366.94c3.19,1.06,6.16,2.18,9,3.34Q1456.55,372.31,1460.64,374.46Z"/><rect class="cls-8" x="1495.58" y="407.91" width="2.56" height="315.56"/><path class="cls-3" d="M1726.25,662.2a27.05,27.05,0,0,1-20.46,8.3c-11.82-.42-25.92-.63-41.23-.31l-.09-.07,66.35-86,2.86,57.34A27,27,0,0,1,1726.25,662.2Z"/><polygon class="cls-11" points="1561.08 962.79 1557.54 991.52 1554.84 1013.35 1553.76 1022.16 1538.38 1022.16 1538.38 1014.34 1538.36 988.44 1538.36 962.79 1561.08 962.79"/><polygon class="cls-11" points="1453.82 959.78 1449.46 973.25 1445.96 984.05 1445.35 985.91 1442.96 993.29 1437.9 1008.91 1435.38 1016.68 1421.38 1013.98 1420.27 1013.77 1421.17 1009.08 1421.73 1006.22 1427.85 974.49 1428.84 969.38 1429 968.56 1429.45 966.19 1431.52 955.48 1446.43 958.36 1448.15 958.69 1453.82 959.78"/><path class="cls-12" d="M1584.19,791.73c-8.8,48.35-11,69.22-11,69.22s6.59,7.69,2.19,12.09,0,13.19,0,13.19l-9.89,106.58-8-1.29-19.18-3.08-6.91-1.12,4.39-100s-4.39-8.8-2.2-11-2.19-15.38-2.19-15.38L1526,756.56l-34.07,114.28s3.31,4.4,0,7.69-9.88,19.78-9.88,19.78l-20.26,70.9-1.72,6-10.56-2-11.5-2.16-2.12-.39-3.76-.72-2.42-.45-.82-.15-4-.75,1.2-5.34.63-2.82,17.14-76.12.39-1.76.42-1.86s-2.2-5.49,1.09-8.79a8.59,8.59,0,0,0,2.2-7.7,3.51,3.51,0,0,1-.29-.36,4.62,4.62,0,0,1-.79-1.8c-.29-1.37,0-3.3,2.19-5.53a9.32,9.32,0,0,0,1.56-2.23c3.34-6.33,5-19.74,5-19.74s3-106.16,12.7-122.38a5.2,5.2,0,0,1,1.58-1.78c11-6.59,116.47,0,116.47,0s.15.76.38,2.21C1588,720.77,1591.65,750.72,1584.19,791.73Z"/><path id="fa90ba82-4976-41ea-9b03-d8a96d925ef6-2705" class="cls-11" d="M1580.73,596.68l3.08-18.55,56.72,9.54,80.47,5.76a12.07,12.07,0,1,1-2.06,13.05l-49.35,3.32Z"/><path id="fb44d525-e05f-4433-9150-930b9a652ce4-2706" class="cls-13" d="M1538.34,583.84l4-16.56s21.75-4,38.94-.18L1646,579.52l-5.24,39.1Z"/><path id="ed2da19a-1c50-4597-bafc-ed19ebf50383-2707" class="cls-11" d="M1388.2,720.23l36.19-78.62L1450.8,586l22.9,13.48-71.3,129.41a12.08,12.08,0,1,1-14.83-8.5l.63-.15Z"/><path id="a46ff28a-e8a9-4d92-ab46-12a75733fdc3-2708" class="cls-13" d="M1492.57,562.16,1475,554.1s-3.11-1.08-9.83,8.22-64.49,97-64.49,97L1437.37,676Z"/><path class="cls-12" d="M1581,1039.27l-22.87-15.8v-10.31l-3.25.19-16.46,1-4.34.25-3,35.91,0,.5h10.8l.1-.5,1.83-9.7,4.68,9.7.25.5h28.65a6.57,6.57,0,0,0,2.51-.5,6.44,6.44,0,0,0,1.14-11.23Z"/><path class="cls-12" d="M1459,1040.21l-10-10.86-7-7.59-1.15-1.26-.17-.18-.55-.6,2.3-10.05-4.62-.76-16.17-2.69-.88-.14-1.72-.29-.39-.07-5.52,17.39-5,15.71-.54,1.72,6.65,1.52,3.88.88,1.92-4.4.21-.47,1.25-2.88v0l.78-1.74,2.54,11,.44.1h.06l1.56.36,3,.7,21.3,4.87,1.52.34a6.43,6.43,0,0,0,6.16-10.63Z"/><path class="cls-11" d="M1557.62,511.47a35.71,35.71,0,0,1-24.17,17.89c-.57.12-1.13.22-1.71.31a35.78,35.78,0,1,1,25.88-18.2Z"/><path class="cls-12" d="M1543.39,462.9c-11.71-8-22-9.28-30.49-7a11.14,11.14,0,0,0-4.46-4c-6.6-16.64-26.7-26.64-44-21.78s-29.34,24.13-26.07,41.87c2,11,8.94,20.52,11.73,31.35,5.38,21-7.76,45-28.33,51.73,19.47,3.91,40.91-8,47.89-26.57,3.39-9,3.6-18.89,4-28.53a94.52,94.52,0,0,1,2.43-19.75,42.78,42.78,0,0,1,3.14-8.41,28.78,28.78,0,0,1,13.78-13.36,11,11,0,0,0,1.6,9.89c-4.56,5.72-7,11.9-7,15.61-9.48,17.33,4.08,32.23,21.42,41.71a35.52,35.52,0,0,0,22.69,4l.73-3.1,1,2.79,3.28,9.35q5.67,2.74,11.25,6c-1.41-6.63-2.55-13.26-3.34-19.73-1.09-8.81,2.71-21.93,5.45-29.91a47.32,47.32,0,0,0,2.57-15.29v-.22l2.67,8.56L1565,484C1563.23,473.64,1565,461.88,1543.39,462.9Z"/><path class="cls-13" d="M1468.81,700.53a31.28,31.28,0,0,0,0-15.38c-2.2-7.7,2.2-11,2.2-11l1.1-118.67c4.64-4.64,17.08-4.72,24-4.36v-5.22a7.25,7.25,0,0,1,7.25-7.26h32.18a7.26,7.26,0,0,1,7.26,7.26v6.26l9.43.15c16.44,1.22,30.82,17.45,30.82,17.45l-14.29,54.94s4.4,45,9.89,50.55,3.3,8.79,3.3,8.79-3.3,12.08,3.29,16.48,2.2,12.09,2.2,12.09-118.67,2.19-122-1.1S1468.81,700.53,1468.81,700.53Z"/><path class="cls-3" d="M262.77,1177.63c-7.93-.57-10,1-22,0h-22l2.86-52.65,34.64,13.88,172.11,4.22-.1.29c-.08.23-7.72,22.58-1.75,31l.25.35h-.48l-157.89,1.45C266.69,1176.23,264.48,1177.75,262.77,1177.63Z"/><path class="cls-7" d="M271.7,1178.31c-15.32-1.09-31.19,4.87-44.43-1.85l-10.58.64,0-.09c-.09-.25-5.09-39.59,5-54.84l.45-.67.35,3.61-3.34,49,7.39-2.47c17.94,8.45,39.27,2.87,59.8,2.79l139.71-.51c2.93,0,5.37,2,5.45,4.45v.25l-151.35,0C277.32,1178.61,274.5,1178.51,271.7,1178.31Z"/><polygon class="cls-8" points="418.68 1153.7 261.45 1150.57 261.29 1150.51 224.14 1136.59 224.84 1134.72 261.83 1148.58 418.72 1151.7 418.68 1153.7"/><polygon class="cls-8" points="417.84 1162.12 260.61 1158.99 260.45 1158.93 223.3 1145.01 224.01 1143.14 260.99 1157 417.88 1160.12 417.84 1162.12"/><polygon class="cls-8" points="417 1170.54 259.77 1167.41 259.61 1167.35 222.47 1153.43 223.17 1151.56 260.15 1165.42 417.04 1168.54 417 1170.54"/><path class="cls-8" d="M272.79,1143.62a105.14,105.14,0,0,1-41.74-11.77l-10.9-5.78.29-2.86a1.73,1.73,0,0,1,1.84-1.4h1L369.87,1124a86,86,0,0,1,28.13,5.1l31.95,11.6,0,.17c-.27,2.69-3,4.77-6.18,4.74l-144.43-1.69C277.13,1143.87,275,1143.78,272.79,1143.62Z"/><polygon class="cls-7" points="429.64 1141.3 429.61 1141.3 253.77 1137.27 253.65 1137.22 221.95 1122.54 222.27 1122.04 223.24 1122.06 254.07 1136.34 428.27 1140.33 429.67 1140.36 429.64 1141.3"/><path class="cls-7" d="M293,1123.08l-2.24,0-50.39-.74-2.39,0c11.52,12.26,37,15.33,74.29,10.58Z"/><path class="cls-3" d="M360.43,1133.22l-157.89-1.45h-.48l.25-.35c6-8.46-1.67-30.81-1.75-31l-.1-.29,172.11-4.22L407.21,1082l2.86,52.65h-22c-12,1-14.07-.57-22,0C364.36,1134.75,362.15,1133.23,360.43,1133.22Z"/><path class="cls-7" d="M348.7,1135.61l-151.35,0v-.25c.07-2.46,2.51-4.46,5.44-4.45l139.71.51c20.53.08,41.87,5.66,59.8-2.79l7.39,2.47-3.33-49,.34-3.61.45.67c10.11,15.25,5.11,54.59,5,54.84l0,.09-10.58-.64c-13.24,6.72-29.11.76-44.43,1.85Q352.94,1135.61,348.7,1135.61Z"/><polygon class="cls-8" points="210.12 1108.7 367.01 1105.58 404 1091.72 404.7 1093.59 367.55 1107.51 367.39 1107.57 210.16 1110.7 210.12 1108.7"/><polygon class="cls-8" points="210.96 1117.12 367.85 1114 404.83 1100.14 405.54 1102.01 368.39 1115.93 368.23 1115.99 211 1119.12 210.96 1117.12"/><polygon class="cls-8" points="211.8 1125.54 368.69 1122.42 405.67 1108.56 406.38 1110.43 369.23 1124.35 369.07 1124.41 211.84 1127.54 211.8 1125.54"/><path class="cls-8" d="M349.52,1100.9l-144.43,1.69c-3.2,0-5.91-2-6.18-4.74l0-.17,32-11.6A86,86,0,0,1,259,1081l146.63-2.16h1a1.73,1.73,0,0,1,1.84,1.4l.29,2.86-10.9,5.78a105.14,105.14,0,0,1-41.73,11.77Q352.8,1100.86,349.52,1100.9Z"/><polygon class="cls-7" points="199.17 1097.36 200.57 1097.33 374.77 1093.34 405.61 1079.06 406.57 1079.04 406.89 1079.54 375.19 1094.22 375.07 1094.27 199.23 1098.3 199.2 1098.3 199.17 1097.36"/><path class="cls-7" d="M316.62,1089.85c37.31,4.75,62.77,1.68,74.29-10.58l-2.39,0-50.39.74-2.23,0Z"/><polygon class="cls-11" points="495.83 924.45 498.03 929.55 494.44 947.67 457.87 942.59 458.16 920.5 458.9 915.66 495.83 924.45"/><polygon class="cls-11" points="512.73 1159.29 504.66 1159.29 500.82 1128.16 512.73 1128.16 512.73 1159.29"/><path class="cls-12" d="M490.73,1169.82a3.44,3.44,0,0,0,3.45,3.44h15.34l2.65-5.46,1,5.46H519l-1.62-19.5-2.63-.16-8.84-.52-1.42-.09v5.52L492.22,1167A3.42,3.42,0,0,0,490.73,1169.82Z"/><polygon class="cls-11" points="440.15 1123.61 432.09 1123.61 427.34 1077.79 442.5 1076.89 440.15 1123.61"/><path class="cls-12" d="M416.15,1134.14a3.46,3.46,0,0,0,3.45,3.45H435l2.65-5.46,1,5.46h5.79l-1.63-19.51-2.34-.14-9-.54-1.56-.09v5.53l-12.25,8.46A3.47,3.47,0,0,0,416.15,1134.14Z"/><path class="cls-12" d="M516.15,1132.45h0l-1.55-50.6a13.24,13.24,0,0,0-.17-12.5l-.23-.41.58-2.67a17,17,0,0,0-1-10.23l-1.45-47.2c5.17-33.52-19.47-55.38-19.47-55.38l2.26-17.56-39.86.9.68,16.66L448,980.7c-4.17,40.64-32.25,66.18-28,105a.72.72,0,0,1,0,.33,10,10,0,0,0,.8,8,3,3,0,0,1,.36,1c.88,6.82,1-1.8,2.16,5l-.22.12a1.91,1.91,0,0,0-.79,2.52c.39,1.11,1.36,1.79,2.18,1.51l21.31.22a1.92,1.92,0,0,0,.78-2.52c-.38-1.11-1.36-1.79-2.17-1.51l-1.33.67,2.22-7.25.78-.73a3.39,3.39,0,0,0,.16-4.78,4,4,0,0,0-.59-.5h0l2.21-11.79-.32-8.92.65-10.12,28-40.51,11.31,56L499,1133a2.15,2.15,0,0,0-.67,2,2.2,2.2,0,0,0,2.19,1.73h15.69a2.13,2.13,0,0,0,2.13-2.14,2.1,2.1,0,0,0-.07-.56A2.17,2.17,0,0,0,516.15,1132.45Z"/><path class="cls-12" d="M504.2,838.35a19.74,19.74,0,1,1-33.94-13.69l.09-.09.48-.49h0a3.31,3.31,0,0,0,.62-.56c2.67-3.72,5.69-6.84,13-4.89C495,821.42,504.2,827.45,504.2,838.35Z"/><path class="cls-11" d="M395.79,829.9a7.22,7.22,0,0,0,6.91,7.53,6.86,6.86,0,0,0,1.28-.06l50.9,41.78,7.77-13.67-52.48-36.76a7.26,7.26,0,0,0-14.38,1.18Z"/><path class="cls-13" d="M476.37,891.47s0-1.51-8.11-1.45c-10,.07-37.7-14.35-35.29-27.93a5.68,5.68,0,0,1-6.77-1.62l13.47-13c4.23.29,4.27,3.12,3.91,4.74l10.82,4.3,28.19,16.19-5,16.27Z"/><circle class="cls-14" cx="479.6" cy="842.92" r="16.55"/><path class="cls-13" d="M456.86,925.24a6.63,6.63,0,0,0,.32,8.36,7.36,7.36,0,0,0,.77,2.7,3.08,3.08,0,0,0,.32.48.61.61,0,0,0,.07.1,5.41,5.41,0,0,0,2.87,1.93l30.29,8.46,4,1.12.7.19.39-5.47a4.9,4.9,0,0,0,1.08-6.29l-.56-.92,3.25-8.75.32-.86L509,904v-1.48l0-1.54.08-10.73a21.87,21.87,0,0,0-8.66-17.46,21.5,21.5,0,0,0-8.29-3.89h-.07l-3.28-4.41-13.29,1.32L474.4,868l-1.34,2.72-9.63,5.74-3.3,7.65-2.22,5.18a14.06,14.06,0,0,0-6.09,9.44c-1.27,8,4.37,16.1,5,17L457,925Z"/><path class="cls-12" d="M496.92,847.26l-.45-.08-7.73-1.37L488.5,840l-3.12,5.23c-7.11,2.36-13.77,1-20-1.92a57.4,57.4,0,0,1-6-3.31c-.63-9.86,3.36-16.18,10.78-15.52.27,0,.47-.25.7-.37h0c.4-.19.81-.37,1.22-.53a18.22,18.22,0,0,1,19.14,3.71C496.25,832.07,498.53,840,496.92,847.26Z"/><path class="cls-15" d="M496.47,847.18a33.65,33.65,0,0,0-25.91-22.52l-.21-.09-.22-.12.7-.37h0l.62-.56.6,0S493.15,820.2,496.47,847.18Z"/><path class="cls-12" d="M500.56,962.54a2.82,2.82,0,0,1-2.87.46,6.67,6.67,0,0,1-2.45-1.79A23.21,23.21,0,0,1,489.59,951l.91-1.62a8.89,8.89,0,0,1,5.34-9.76,5.49,5.49,0,0,1,3.37-.29,3.18,3.18,0,0,1,2.32,2.3c.35,1.73-1.09,3.29-2.54,4.28a18.19,18.19,0,0,1-8.53,3,29.41,29.41,0,0,1,9.46,8.5,6.93,6.93,0,0,1,1.26,2.46A2.82,2.82,0,0,1,500.56,962.54Z"/><path id="be339808-9edc-488a-82d9-9b8c80f783b0-2709" class="cls-7" d="M95.53,1179.21H574.47c.85,0,1.53-1.15,1.53-2.57s-.68-2.57-1.53-2.57H95.53c-.84,0-1.53,1.15-1.53,2.57s.69,2.57,1.53,2.57Z"/><path class="cls-11" d="M433.53,962.5a7.23,7.23,0,0,0,6.54-7.86,7.61,7.61,0,0,0-.22-1.25L470.65,939l18.55-30-14.58-5.88-12.51,24.17L430.44,948.4a7.27,7.27,0,0,0,3.09,14.1Z"/><path class="cls-13" d="M504.64,880.26s3.63,1.19-.35,8.23c-3.19,5.64-18.74,38.11-25.08,44.49a5.69,5.69,0,0,1-.71,6.93l-14.64-11.62c-.28-4.23,2.52-4.65,4.18-4.51l3.36-11.94,11.75-29.45,18.88-3Z"/><path class="cls-12" d="M505,825.06c.69-2.8,5.71-4.87-2.89-8.77-2.09-.95-2-4.22-3.77-5.68a6.13,6.13,0,0,0-6.41-1.12,6.25,6.25,0,0,0-3.08,5,18.36,18.36,0,0,0,.7,6.08l-.17.24,10.23,7.83c1.25,1,2.88,2,4.29,1.24C505.45,829.07,504.53,826.79,505,825.06Z"/><ellipse class="cls-16" cx="994.75" cy="1036.9" rx="45.99" ry="5.6"/><ellipse class="cls-9" cx="994.55" cy="994.58" rx="43.47" ry="46.37"/><rect class="cls-17" x="981.22" y="1022.02" width="27.05" height="24.73"/><polygon class="cls-18" points="1043.63 1028.01 1042.09 1036.51 1052.13 1038.06 1058.7 1034.19 1058.32 1028.01 1043.63 1028.01"/><path class="cls-19" d="M993,868.41s-.77,8.89-2.71,9.27,4.25,15.85,4.25,15.85h9.28l7.34-1.93-3.48-8.51s-4.63-6.18-1.16-11.2S993,868.41,993,868.41Z"/><path class="cls-16" d="M993,868.41s-.77,8.89-2.71,9.27,4.25,15.85,4.25,15.85h9.28l7.34-1.93-3.48-8.51s-4.63-6.18-1.16-11.2S993,868.41,993,868.41Z"/><path class="cls-12" d="M973.69,936.42s-10.05,19.32-1.94,23.19,10,3.48,10,4.64-1.54.77-.77,2.7-1.55,9.66.77,14.3,1.55,8.11,1.55,8.11a6.28,6.28,0,0,0,.77,1.94c.77,1.54,1.16,2.7.77,3.48s-2.7,5.79-.38,7,14.29,1.93,15.45,0-1.16-3.09,0-4.25,1.94-1.55,1.16-2.32-1.54-10.43-1.54-10.43,1.93-11.21,1.16-12.75-1.94-3.1-1.16-4.26,1.54-.77,1.93-2.31,1.16-5,1.16-5l4.25-.38,10.05,1.93s11.2,12.36,23.57,16.23c0,0,3.48,3.48,4.64,3.48s1.16,0,.77.77-1.55.77-.77,1.54,1.93-.38,1.16.78-1.55,1.16-.78,1.93-.38,5-.38,5.41-3.48,36.71-2.32,37.48,17.39,3.1,18.55,0-.78-6.95-.78-6.95,5.8-46.37,4.26-49.47-7-17-35.94-25.89c0,0-8.12-1.54-8.12-2.7s-.77-8.5-2.32-8.89-10.43-.77-10.43-.77l-11.21,3.48-15.45-2.71Z"/><path class="cls-12" d="M987.21,1001.34l-1.93,7s-1.55,11.21.39,13.91a12.09,12.09,0,0,0,9.25,5.18,6.2,6.2,0,0,0,6.48-4.29,1.72,1.72,0,0,0,.11-.5c0-.77-1.16-10.05-1.16-10.05l-1.93-9.66-.39-2.7Z"/><path class="cls-12" d="M1043.63,1034.58s-1.93-1.93-2.32,0-1.93,10.05.78,10.43,28.59,4.25,31.3,2.71,7.73-3.87,4.63-5-12-4.63-12-4.63-5-6.57-5.79-7-5,.39-7,1.93S1043.63,1034.58,1043.63,1034.58Z"/><circle class="cls-19" cx="1002.28" cy="864.55" r="11.98"/><path class="cls-18" d="M1001.12,891.6l-4.63-5-5.14-10s-3.75-1.16-4.52.77-14.69,8.11-14.69,8.11,3.48,32.46,1.93,35.56-4.25,15.45-1.93,16.61,13.14,0,16.62,1.55,13.52,1.54,16.23-.39,3.48-3.48,6.18-2.32c2.3,1,7.69-32.75,9.24-42.81a4.58,4.58,0,0,0-1.9-4.44c-3.47-2.44-9.71-6.63-10.82-6.08C1006.15,883.87,1001.12,891.6,1001.12,891.6Z"/><path class="cls-18" d="M1017.74,890.05h0a4.59,4.59,0,0,1,3.44,3.94l3.13,28.14s-7.73,16.61-11.59,5.41S1017.74,890.05,1017.74,890.05Z"/><path class="cls-18" d="M1017,924.83l8.5-2.32s1.54,10.82,3.09,10.82-5.41,6.18-8.89,5.41-8.5-3.48-8.89-5.41,3.48-10.05,3.48-10.05Z"/><path class="cls-12" d="M993.24,869.71c.81-1.79.67-3.89,1.35-5.74a6.84,6.84,0,0,1,8.77-4.1,6.58,6.58,0,0,1,1.64.86c.87.62,1.74,1.49,2.79,1.37s2.16-1.4,3.21-.93.84,2.59,2,3.07a1.47,1.47,0,0,0,1.7-.7,4.16,4.16,0,0,0,.5-1.92,9.28,9.28,0,0,0-.4-4.89,11.65,11.65,0,0,1-.79-1.58,5.82,5.82,0,0,1-.15-1.56,11.13,11.13,0,0,0-1.12-5.63,8.11,8.11,0,0,0-5.17-3.56,19.68,19.68,0,0,0-6.41-.26c-3.54.3-7.24.94-10,3.14a4.19,4.19,0,0,0-1,1,5.26,5.26,0,0,0-.51,1.49,31.26,31.26,0,0,1-2.69,7.06,15.12,15.12,0,0,0-1.39,3,3.86,3.86,0,0,0,.34,3.19,12,12,0,0,0,1.94,1.76c.63.6.92,1.76,1.62,2.22s1.33.11,2,.54C992.25,868.09,992.3,869.28,993.24,869.71Z"/><path class="cls-3" d="M1003.06,897.39l1.15-2.32s17,5,20.49,9.67c0,0,8.5-5.41,13.13-4.64l4.64.77-14.3,12.75L1010,912.08Z"/><path class="cls-17" d="M1002.28,895.07l-15.84,22,22.8,11.21s2.13,1.16,3.77,0l15.16-7,14.3-20.48-14.3,7.34a3.37,3.37,0,0,0-4.63-1.54Z"/><path class="cls-19" d="M1026.63,934.1l3.09-8.11s7-8.89,3.09-13.14-8.11,12.37-8.11,12.37Z"/><path class="cls-19" d="M991,932.81l6.74-5.47s10.48-4.2,9.27-9.81-13.22,6.62-13.22,6.62Z"/><path class="cls-16" d="M974.27,893.72h-.39s-6-7.15-7.15,2.51-5,41.74,5,42.9A24.44,24.44,0,0,0,989,934.3s7.34-11.21,4.64-11.21a72.9,72.9,0,0,0-8.12-.39c-3.46.22-6.57,1.2-6.37.2C979.48,921,985.09,896.43,974.27,893.72Z"/><path class="cls-18" d="M973.69,886.19l-1.55-.78s-6.18,1.16-7.34,10.82-5,41.74,5,42.9,23.57-1.55,23.57-1.55,2.71-14.68,0-14.68-16.61,1.93-16.23,0S984.51,888.89,973.69,886.19Z"/><polygon class="cls-18" points="1021.02 929.66 1025.29 923.13 1027.98 933.91 1021.02 937 1021.02 929.66"/><path class="cls-20" d="M1485.65,1089.22c3.36-1.62,33.36-11.57,34.44-10.09.67.94-5.25,32-6.19,33C1513.63,1112.49,1492.37,1095.54,1485.65,1089.22Zm166.56-680.39c0-.13-6.59-12.65-9.42-19.1-.13-.41-.4-1.48-.53-2.16a2,2,0,0,0-.81-1.21.82.82,0,0,0-1.08.14l-17.62,16.55h0a2.58,2.58,0,0,0-.54,1.07,2.43,2.43,0,0,0,.27,1.35c.13.13,1.88,3.36,2.82,4.84,3.23,5,8.75,16.28,8.75,16.41a1.78,1.78,0,0,0,.94.81,1.22,1.22,0,0,0,.94-.4s2.42-3.37,3.63-4.85c2-2.15,4-4.3,6.19-6.32a7.73,7.73,0,0,1,2.83-2.15,11.82,11.82,0,0,0,3.36-2.56A2.29,2.29,0,0,0,1652.21,408.83ZM46.7,1137h0a1.55,1.55,0,0,0-1.61-1.61.85.85,0,0,0-.54.13c-2.15.27-19.24.13-29.87,0a1.64,1.64,0,0,0-1.21.54,1.7,1.7,0,0,0-.54,1.21c0,.27,0,6.59.14,7.94l.54,18.29a2.51,2.51,0,0,0,.53,1.22,1.58,1.58,0,0,0,1.08.4h.14a218.4,218.4,0,0,1,29.6-.81,1.88,1.88,0,0,0,1.21-.4,2,2,0,0,0,.53-1.21C46.57,1154.47,46.57,1144.92,46.7,1137Z"/><path class="cls-17" d="M804.72,1058.27c-.13-.13-9-11-13.05-16.82a14.27,14.27,0,0,1-.94-2c-.27-.54-.54-1-.94-1.08a.9.9,0,0,0-1.08.4l-14.13,19.78h0c-.26.27-.26.67-.26,1.21a2,2,0,0,0,.53,1.21c.14.14,2.43,3,3.77,4.17,4.17,4.17,11.84,14.13,12,14.27a1.21,1.21,0,0,0,1.07.53.86.86,0,0,0,.81-.67,57.74,57.74,0,0,1,2.69-5.52c1.48-2.55,3.09-5,4.71-7.4a8.48,8.48,0,0,1,2.29-2.69,10.14,10.14,0,0,0,2.82-3.23C805.39,1060,805.26,1058.94,804.72,1058.27Z"/><path class="cls-17" d="M1661.11,128.64h0a1.47,1.47,0,0,0,1.88-1.08V127c.27-1.88,3.77-17,6.06-26.24a1,1,0,0,0-.27-1.07,1.81,1.81,0,0,0-1.08-.67c-.27,0-6.32-1.48-7.67-1.75l-18-3.64a1.3,1.3,0,0,0-1.21.27,3.42,3.42,0,0,0-.67.81v.13a191,191,0,0,1-5.25,26.11,1.39,1.39,0,0,0,.27,1.21,1.83,1.83,0,0,0,1.08.67C1644,124.6,1653.31,126.75,1661.11,128.64Z"/><path class="cls-17" d="M982.45,340.21a.7.7,0,0,0-.53-.27A.7.7,0,0,1,982.45,340.21Z"/><path class="cls-5" d="M728.32,778.74a5.36,5.36,0,0,1-5-3.27,5.43,5.43,0,0,1,2.7-7.11A23.07,23.07,0,0,0,738,756.28a22.5,22.5,0,0,0,.28-16.91c-.43-1.27-1.14-2.55-1.7-4A41.1,41.1,0,0,1,733.3,727a26.85,26.85,0,0,1,2.84-18.19,46.4,46.4,0,0,1,10.8-12.93,5.34,5.34,0,1,1,7,8.1c-4,3.55-6.68,6.68-8.38,10-2,3.69-2.7,7.53-1.85,10.8a30.14,30.14,0,0,0,2.42,6.11l2.13,4.69a34.55,34.55,0,0,1-.43,25,33.89,33.89,0,0,1-17.48,17.76A4.58,4.58,0,0,1,728.32,778.74Zm58-72.9a5.36,5.36,0,0,1,5.4,2.7,5.56,5.56,0,0,1-2,7.53,23.61,23.61,0,0,0-10.8,13.5,23.29,23.29,0,0,0,1.56,17.19,39.23,39.23,0,0,0,2.28,3.84,48.31,48.31,0,0,1,4.26,8.1,26.86,26.86,0,0,1-.85,18.76,46.32,46.32,0,0,1-9.66,14.35,5.46,5.46,0,0,1-7.82.28,5.28,5.28,0,0,1-.28-7.67,37.93,37.93,0,0,0,7.53-10.94,16.43,16.43,0,0,0,.71-11.23,33.79,33.79,0,0,0-3.13-5.82c-.85-1.42-1.85-3-2.7-4.55a34.62,34.62,0,0,1-2.41-25.29,34.13,34.13,0,0,1,15.91-19.9A2.8,2.8,0,0,1,786.3,705.84ZM105.5,946.7c8.1,9.66,12.79,22.31,13.36,31.83.71,10.37-3.41,23.3-14.5,29-4.26,2.13-9.52,3.12-15.91,3.12-11.23-.14-18.33-4.12-21.88-11.93-3-6.68-3.27-16.2,2.55-22.6,4.55-5,11.09-5.82,15.92-2.27a4,4,0,1,1-4.69,6.39c-2.56-1.84-5.12.86-5.4,1.14-3.41,3.69-3,10-1.14,14.07,2.14,4.83,6.68,7.1,14.78,7.24,5.12,0,9.1-.71,12.22-2.27,6.68-3.41,10.94-12.22,10.23-21.31-.71-10.38-7.53-25.87-18.47-34-6-4.4-12.08-5.82-18.33-4.4-4.41,1-8.81,3.41-13.78,7.1-9.38,7.25-16.63,16.77-20.18,27-3.84,10.95-3,22.46,2.7,34a3.94,3.94,0,0,1-7.11,3.41c-6.53-13.36-7.67-27.29-3.12-40.08a67.72,67.72,0,0,1,22.87-30.69c5.83-4.4,11.37-7.25,16.77-8.53,8.53-2,17,0,24.87,5.69A54.88,54.88,0,0,1,105.5,946.7Z"/><circle class="cls-5" cx="1174.66" cy="325.72" r="10.09"/><circle class="cls-5" cx="1189.72" cy="294.74" r="10.09"/><circle class="cls-5" cx="1208.19" cy="318.62" r="10.09"/><path class="cls-5" d="M1878.05,529.35c-6.82-7.67-13.78-15.35-21-23,8-8,15.77-16.34,22.17-25.86a5.32,5.32,0,1,0-8.81-6,157.55,157.55,0,0,1-20.61,24c-6.82-7.11-13.78-14.21-20.88-21.18a5.33,5.33,0,1,0-7.54,7.53c7,6.82,13.79,13.93,20.61,21-1.56,1.57-3.27,3.13-5,4.55-5.82,5.4-11.93,11.09-17.62,17.05a5.51,5.51,0,0,0,0,7.54h0a5.38,5.38,0,0,0,7.54-.15c5.54-5.68,11.51-11.22,17.19-16.62,1.7-1.57,3.27-3.13,5-4.69,7,7.53,13.93,15.06,20.75,22.59l.28.29a5.46,5.46,0,0,0,7.39.28A5,5,0,0,0,1878.05,529.35ZM199.71,460.29l-.56-3.69A413.4,413.4,0,0,1,195.88,404c0-7.82,0-16.34.28-26.29v-3.27c0-7.1,0-15.91,5.54-19.18,3.13-1.85,7.25-1.42,12.08,1.28,8.1,4.4,18.76,12.36,24.87,21.17,7.81,11.08,10.37,24,7.1,36.52-4.54,17.48-21.31,44.05-42.63,45.61Zm6.4-98.62c-.29,0-.43,0-.57.15s-1,.71-1.56,3.83a60.47,60.47,0,0,0-.43,9V378c-.28,9.8-.28,18.18-.28,26a403.15,403.15,0,0,0,2.84,47.89c15.63-3.84,29-25.72,32.68-39.51,2.7-10.23.57-21-6-30.26h0c-5.54-7.82-15.49-15.07-22.59-18.9A10,10,0,0,0,206.11,361.67ZM467.86,193.43a1.07,1.07,0,0,1-.57-.14,23.43,23.43,0,0,0-9.52-1,1.85,1.85,0,0,1-.29-3.69,26.94,26.94,0,0,1,10.8,1.13,1.83,1.83,0,0,1,1.28,2.28A1.93,1.93,0,0,1,467.86,193.43Zm-14.5,13.78a1.82,1.82,0,0,1-1.7-1.14,29.56,29.56,0,0,1-1.85-9.37,1.78,1.78,0,1,1,3.55-.15,32.53,32.53,0,0,0,1.56,8.25,1.74,1.74,0,0,1-1.13,2.27C453.79,207.21,453.5,207.21,453.36,207.21Zm-17.05-8.67a1.73,1.73,0,0,1-1.42-.71,1.92,1.92,0,0,1,.28-2.55,44.58,44.58,0,0,1,8.24-5.12,1.81,1.81,0,1,1,1.57,3.27,37,37,0,0,0-7.53,4.69A1.64,1.64,0,0,1,436.31,198.54Zm9.09-12.93a2.15,2.15,0,0,1-1.7-1,28.64,28.64,0,0,0-3.41-4.83c-.43-.57-1-1.28-1.56-2a1.82,1.82,0,0,1,2.84-2.28c.57.71,1.13,1.42,1.56,2a26.72,26.72,0,0,1,3.84,5.54,1.88,1.88,0,0,1-.86,2.42A1.07,1.07,0,0,1,445.4,185.61Zm8.81-.42a3.37,3.37,0,0,1-1.13-.29,1.81,1.81,0,0,1-.43-2.56,78.58,78.58,0,0,0,4.69-7.39,1.78,1.78,0,1,1,3.13,1.71,67.05,67.05,0,0,1-5,8A1.81,1.81,0,0,1,454.21,185.19ZM1196.83,651a1.07,1.07,0,0,1-.57-.14,23.43,23.43,0,0,0-9.52-1,1.85,1.85,0,1,1-.29-3.69,26.94,26.94,0,0,1,10.8,1.13,1.82,1.82,0,0,1,1.28,2.28A1.93,1.93,0,0,1,1196.83,651Zm-14.5,13.78a1.83,1.83,0,0,1-1.7-1.13,29.68,29.68,0,0,1-1.85-9.38,1.78,1.78,0,1,1,3.55-.15,32.11,32.11,0,0,0,1.57,8.25,1.75,1.75,0,0,1-1.14,2.27C1182.76,664.77,1182.47,664.77,1182.33,664.77Zm-17-8.67a1.73,1.73,0,0,1-1.42-.71,1.92,1.92,0,0,1,.28-2.55,44.33,44.33,0,0,1,8.25-5.12A1.81,1.81,0,0,1,1174,651a37,37,0,0,0-7.53,4.69A1.64,1.64,0,0,1,1165.28,656.1Zm9.09-12.93a2.15,2.15,0,0,1-1.7-1,28.64,28.64,0,0,0-3.41-4.83c-.43-.57-1-1.28-1.56-2a1.82,1.82,0,0,1,2.84-2.28c.57.71,1.13,1.42,1.56,2a26.12,26.12,0,0,1,3.84,5.55,1.88,1.88,0,0,1-.85,2.41A1.11,1.11,0,0,1,1174.37,643.17Zm8.81-.42a3.37,3.37,0,0,1-1.13-.29,1.82,1.82,0,0,1-.43-2.56,79.74,79.74,0,0,0,4.69-7.38,1.78,1.78,0,1,1,3.13,1.7,67.05,67.05,0,0,1-5,8A1.81,1.81,0,0,1,1183.18,642.75Zm440.51,279.08a21.24,21.24,0,0,1-6.39-1c-11.94-3.84-23.59-18.05-26.57-28.42a43.65,43.65,0,0,1-1.28-6.26c-11.51,4.69-22,15.07-21.89,29.84a4,4,0,0,1-3.83,4h0a3.82,3.82,0,0,1-3.84-3.83,37,37,0,0,1,9.95-25.58,44.68,44.68,0,0,1,19.47-12.51c.71-9.23,4.4-18.33,10.51-24.72,10-10.52,25.86-12.65,38.79-14.35l1-.15a3.88,3.88,0,0,1,1.14,7.68l-1,.14c-12.22,1.7-26.15,3.55-34.1,11.94a33.07,33.07,0,0,0-8.1,17.62c11.22-1.42,25.15,1.84,34.53,8.1a23,23,0,0,1,10.23,18,19,19,0,0,1-7.39,15.78A20,20,0,0,1,1623.69,921.83Zm-26.57-37.94a30.1,30.1,0,0,0,1.14,6.25c2.41,8.24,12.36,20.18,21.45,23.16a10.45,10.45,0,0,0,10.24-1.56,10.91,10.91,0,0,0,4.4-9.38,15.36,15.36,0,0,0-6.82-11.79C1619.43,885,1606.64,882.33,1597.12,883.89Z"/></g></g></svg>