<?xml version="1.0" encoding="utf-8"?>
<!-- Generator: Adobe Illustrator 26.0.1, SVG Export Plug-In . SVG Version: 6.00 Build 0)  -->
<svg version="1.1" xmlns="http://www.w3.org/2000/svg" xmlns:xlink="http://www.w3.org/1999/xlink" x="0px" y="0px"
	 viewBox="0 0 669.2 511.6" style="enable-background:new 0 0 669.2 511.6;" xml:space="preserve">
<style type="text/css">
	.st0{clip-path:url(#SVGID_00000020390468116242709410000005536941225671151541_);}
	.st1{fill:#3FA9F5;}
	.st2{clip-path:url(#SVGID_00000124848487072086853580000005806446679266899354_);}
	.st3{opacity:0.1;}
	.st4{clip-path:url(#SVGID_00000094617524570299288090000008353370241605506438_);}
	.st5{fill:#F2F2F2;}
	.st6{fill:#3F3D56;}
</style>
<g id="Layer_1">
</g>
<g id="Group_282">
</g>
<g id="Group_160">
	<g>
		<defs>
			<rect id="SVGID_1_" x="201.6" y="142.6" width="212.8" height="235.6"/>
		</defs>
		<clipPath id="SVGID_00000073721851392707432560000009105709105183463306_">
			<use xlink:href="#SVGID_1_"  style="overflow:visible;"/>
		</clipPath>
		<g id="Group_158" style="clip-path:url(#SVGID_00000073721851392707432560000009105709105183463306_);">
			<path id="Path_643" class="st1" d="M343.5,142.6l70.5,85.5L309.6,351.2l-69.5-81.7L343.5,142.6z"/>
			<g id="Group_157">
				<g>
					<defs>
						<rect id="SVGID_00000062882997417893673400000006579699038829883297_" x="201.6" y="142.6" width="212.8" height="235.6"/>
					</defs>
					<clipPath id="SVGID_00000044861260452355581950000004735946557952028327_">
						<use xlink:href="#SVGID_00000062882997417893673400000006579699038829883297_"  style="overflow:visible;"/>
					</clipPath>
					<g id="Group_156" style="clip-path:url(#SVGID_00000044861260452355581950000004735946557952028327_);">
						<g id="Group_155" transform="translate(38.518)" class="st3">
							<g id="Group_154">
								<g>
									<defs>
										
											<rect id="SVGID_00000023963109535487551360000012265310112878046911_" x="201.6" y="142.6" width="173.8" height="208.6"/>
									</defs>
									<clipPath id="SVGID_00000075857003805121521160000017949711656919858866_">
										<use xlink:href="#SVGID_00000023963109535487551360000012265310112878046911_"  style="overflow:visible;"/>
									</clipPath>
									<g id="Group_153" style="clip-path:url(#SVGID_00000075857003805121521160000017949711656919858866_);">
										<path id="Path_644" d="M305,142.6l70.5,85.5L271.1,351.2l-69.5-81.7L305,142.6z"/>
									</g>
								</g>
							</g>
						</g>
						<path id="Path_645" class="st5" d="M411.1,229.1L411.1,229.1c-1.6-2.8-3.5-5.4-5.7-7.7l-64.7-65.6c0,0-22.5-3.8-27.2,7.5
							l82.7,67.6L411.1,229.1z"/>
						<path id="Path_646" class="st1" d="M414.4,227.7l-95.8,146.6c0,0-9.4,6.6-18.8,2.8l-98.2-66.2L305.9,153l93.9,73.3
							L414.4,227.7z"/>
						
							<rect id="Rectangle_67" x="346.5" y="161" transform="matrix(0.5839 -0.8118 0.8118 0.5839 -16.302 364.3082)" class="st6" width="1.5" height="74.1"/>
						
							<rect id="Rectangle_68" x="268.2" y="294.5" transform="matrix(0.5517 -0.8341 0.8341 0.5517 -94.0025 415.7402)" class="st6" width="143" height="1.5"/>
						
							<rect id="Rectangle_69" x="258.2" y="295.6" transform="matrix(0.5931 -0.8051 0.8051 0.5931 -164.5357 344.88)" class="st6" width="1.5" height="79.3"/>
						
							<rect id="Rectangle_70" x="194.4" y="236.3" transform="matrix(0.5715 -0.8206 0.8206 0.5715 -80.5646 319.8472)" class="st6" width="143.1" height="1.5"/>
						
							<rect id="Rectangle_71" x="367.8" y="138.9" transform="matrix(0.6762 -0.7367 0.7367 0.6762 -20.217 332.6558)" class="st6" width="0.9" height="100.9"/>
						
							<rect id="Rectangle_72" x="363.3" y="138.3" transform="matrix(0.6618 -0.7497 0.7497 0.6618 -19.4815 337.0096)" class="st6" width="0.9" height="103.6"/>
						
							<rect id="Rectangle_73" x="360" y="138.3" transform="matrix(0.6402 -0.7682 0.7682 0.6402 -16.8946 345.5468)" class="st6" width="0.9" height="105"/>
					</g>
				</g>
			</g>
		</g>
	</g>
</g>
</svg>
