<?xml version="1.0" encoding="utf-8"?>
<!-- Generator: Adobe Illustrator 26.0.1, SVG Export Plug-In . SVG Version: 6.00 Build 0)  -->
<svg version="1.1" xmlns="http://www.w3.org/2000/svg" xmlns:xlink="http://www.w3.org/1999/xlink" x="0px" y="0px"
	 viewBox="0 0 669.2 511.6" style="enable-background:new 0 0 669.2 511.6;" xml:space="preserve">
<style type="text/css">
	.st0{clip-path:url(#SVGID_00000163063044105243177350000009984320061950240190_);}
	.st1{fill:#3FA9F5;}
	.st2{clip-path:url(#SVGID_00000176744769425250095290000000837648887448468371_);}
	.st3{opacity:0.1;}
	.st4{clip-path:url(#SVGID_00000003063501497939516680000006695389841211296384_);}
	.st5{fill:#F2F2F2;}
	.st6{fill:#3F3D56;}
</style>
<g id="Layer_1">
</g>
<g id="Group_282">
</g>
<g id="Group_160">
	<g>
		<defs>
			<rect id="SVGID_1_" x="201.6" y="142.6" width="212.8" height="235.6"/>
		</defs>
		<clipPath id="SVGID_00000137117463903273046940000014201842048243207561_">
			<use xlink:href="#SVGID_1_"  style="overflow:visible;"/>
		</clipPath>
		<g id="Group_158" style="clip-path:url(#SVGID_00000137117463903273046940000014201842048243207561_);">
			<path id="Path_643" class="st1" d="M375.9,269.5l-69.5,81.7L202.1,228.1l70.5-85.5L375.9,269.5z"/>
			<g id="Group_157">
				<g>
					<defs>
						<rect id="SVGID_00000017502864665421548120000006255397289804463540_" x="201.6" y="142.6" width="212.8" height="235.6"/>
					</defs>
					<clipPath id="SVGID_00000150782848361382384670000002730603833170683780_">
						<use xlink:href="#SVGID_00000017502864665421548120000006255397289804463540_"  style="overflow:visible;"/>
					</clipPath>
					<g id="Group_156" style="clip-path:url(#SVGID_00000150782848361382384670000002730603833170683780_);">
						<g id="Group_155" transform="translate(38.518)" class="st3">
							<g id="Group_154">
								<g>
									<defs>
										
											<rect id="SVGID_00000018231663184420763120000005763780533812104074_" x="163.6" y="142.6" width="173.8" height="208.6"/>
									</defs>
									<clipPath id="SVGID_00000101795269920896634930000014543243005930049197_">
										<use xlink:href="#SVGID_00000018231663184420763120000005763780533812104074_"  style="overflow:visible;"/>
									</clipPath>
									<g id="Group_153" style="clip-path:url(#SVGID_00000101795269920896634930000014543243005930049197_);">
										<path id="Path_644" d="M337.4,269.5l-69.5,81.7L163.6,228.1l70.5-85.5L337.4,269.5z"/>
									</g>
								</g>
							</g>
						</g>
						<path id="Path_645" class="st5" d="M219.9,231l82.7-67.6c-4.7-11.3-27.2-7.5-27.2-7.5l-64.7,65.6c-2.3,2.3-4.2,4.9-5.7,7.7
							l0,0L219.9,231z"/>
						<path id="Path_646" class="st1" d="M216.2,226.3l93.9-73.3l104.3,157.8L316.2,377c-9.4,3.8-18.8-2.8-18.8-2.8l-95.8-146.6
							L216.2,226.3z"/>
						
							<rect id="Rectangle_67" x="231.7" y="197.3" transform="matrix(0.8118 -0.5839 0.5839 0.8118 -65.0681 194.2017)" class="st6" width="74.1" height="1.5"/>
						
							<rect id="Rectangle_68" x="275.5" y="223.8" transform="matrix(0.8341 -0.5517 0.5517 0.8341 -117.064 201.423)" class="st6" width="1.5" height="143"/>
						
							<rect id="Rectangle_69" x="317.4" y="334.5" transform="matrix(0.8051 -0.5931 0.5931 0.8051 -129.2369 277.102)" class="st6" width="79.3" height="1.5"/>
						
							<rect id="Rectangle_70" x="349.3" y="165.5" transform="matrix(0.8206 -0.5715 0.5715 0.8206 -72.6837 242.5579)" class="st6" width="1.5" height="143.1"/>
						
							<rect id="Rectangle_71" x="197.3" y="188.9" transform="matrix(0.7367 -0.6762 0.6762 0.7367 -62.8074 217.33)" class="st6" width="100.9" height="0.9"/>
						
							<rect id="Rectangle_72" x="200.4" y="189.6" transform="matrix(0.7497 -0.6618 0.6618 0.7497 -62.6724 214.5084)" class="st6" width="103.6" height="0.9"/>
						
							<rect id="Rectangle_73" x="203.1" y="190.3" transform="matrix(0.7682 -0.6402 0.6402 0.7682 -62.9158 207.841)" class="st6" width="105" height="0.9"/>
					</g>
				</g>
			</g>
		</g>
	</g>
</g>
</svg>
