<?xml version="1.0" encoding="utf-8"?>
<!-- Generator: Adobe Illustrator 26.0.1, SVG Export Plug-In . SVG Version: 6.00 Build 0)  -->
<svg version="1.1" id="Layer_1" xmlns="http://www.w3.org/2000/svg" xmlns:xlink="http://www.w3.org/1999/xlink" x="0px" y="0px"
	 viewBox="0 0 1920 511.6" style="enable-background:new 0 0 1920 511.6;" xml:space="preserve">
<style type="text/css">
	.st0{clip-path:url(#SVGID_00000088811769234555255350000014567885244654652579_);}
	.st1{clip-path:url(#SVGID_00000078729164920769103500000016095398527597640377_);}
	.st2{fill:#FF6584;}
	.st3{fill:#28374E;}
	.st4{fill:#F2F2F2;}
	.st5{opacity:0.1;}
	.st6{clip-path:url(#SVGID_00000102510270092047697060000010581084720285898637_);}
	.st7{clip-path:url(#SVGID_00000019662741006567052170000010108707343367417015_);}
	.st8{clip-path:url(#SVGID_00000097486118298030969900000005853931255468629923_);}
	.st9{clip-path:url(#SVGID_00000106841974695683414190000017729862751632026029_);}
	.st10{fill:#E6E6E6;}
	.st11{fill:#FFFFFF;}
	.st12{fill:#3FA9F5;}
	.st13{clip-path:url(#SVGID_00000086676296953848894840000013928498615177321658_);}
	.st14{clip-path:url(#SVGID_00000080188839997388034590000008771600973157428659_);}
	.st15{fill:#3F3D56;}
	.st16{clip-path:url(#SVGID_00000027605317660745213940000009433435085184550300_);}
	.st17{clip-path:url(#SVGID_00000145046572141733316900000004631948476545932178_);}
	.st18{clip-path:url(#SVGID_00000146500151946913016370000007551817889520096428_);}
	.st19{clip-path:url(#SVGID_00000026842700395502987640000015716904212068762004_);}
	.st20{clip-path:url(#SVGID_00000020390668936023731680000015046123465179983019_);}
</style>
<g>
	<g id="Group_229" transform="translate(533 -0.188)">
		<g>
			<defs>
				<rect id="SVGID_1_" x="0" y="-101.3" width="761" height="615"/>
			</defs>
			<clipPath id="SVGID_00000123425459258032751610000015755525495021446832_">
				<use xlink:href="#SVGID_1_"  style="overflow:visible;"/>
			</clipPath>
			<g id="Group_227" style="clip-path:url(#SVGID_00000123425459258032751610000015755525495021446832_);">
				<g>
					<defs>
						<rect id="SVGID_00000142170135394090033540000002363691239074896275_" x="0" y="-101.3" width="761" height="615"/>
					</defs>
					<clipPath id="SVGID_00000098917513318087186890000008124471527012788367_">
						<use xlink:href="#SVGID_00000142170135394090033540000002363691239074896275_"  style="overflow:visible;"/>
					</clipPath>
					<g id="Group_226" style="clip-path:url(#SVGID_00000098917513318087186890000008124471527012788367_);">
						<path id="Path_662" class="st2" d="M195.4,15.9c38.1,0,69,30.9,69,69s-30.9,69-69,69s-69-30.9-69-69l0,0
							C126.4,46.8,157.3,15.9,195.4,15.9"/>
						<path id="Path_663" class="st3" d="M760.6,63.5v181.4c0,147.9-119.9,267.8-267.7,267.8H0V331.3C0,220.9,67.7,121.9,170.5,81.7
							c8.5-3.3,17.2-6.2,26.1-8.6c0.2-0.1,0.4-0.1,0.5-0.1c2.6-0.7,5.2-1.4,7.9-2c0.1,0,0.3-0.1,0.4-0.1c16.3-3.9,32.9-6.2,49.7-7
							c2-0.1,4-0.2,6-0.2c0.7,0,1.4,0,2.2,0c1.5,0,3,0,4.6,0L760.6,63.5z"/>
						<path id="Path_664" class="st4" d="M354.8,395.8C159.3,395.8,0.7,448.5,0,513.6h709.6C709,448.5,550.4,395.8,354.8,395.8"/>
						<g id="Group_210" transform="translate(223.406 550.119)" class="st5">
							<g id="Group_209">
								<g>
									<defs>
										<rect id="SVGID_00000112600361184380429660000016626266407873677461_" x="0" y="-101.5" width="131.4" height="36.5"/>
									</defs>
									<clipPath id="SVGID_00000047040784356958469110000000443812324275628957_">
										<use xlink:href="#SVGID_00000112600361184380429660000016626266407873677461_"  style="overflow:visible;"/>
									</clipPath>
									<g id="Group_208" style="clip-path:url(#SVGID_00000047040784356958469110000000443812324275628957_);">
										<path id="Path_665" d="M65.7-101.5c36.3,0,65.7,8.2,65.7,18.3S102-65,65.7-65S0-73.2,0-83.3S29.4-101.5,65.7-101.5"/>
									</g>
								</g>
							</g>
						</g>
						<g id="Group_213" transform="translate(365.499 517.265)" class="st5">
							<g id="Group_212">
								<g>
									<defs>
										<rect id="SVGID_00000000180479658981396700000012021692011168209581_" x="0" y="-101.5" width="131.4" height="36.5"/>
									</defs>
									<clipPath id="SVGID_00000073684495775506478830000013713277874762063797_">
										<use xlink:href="#SVGID_00000000180479658981396700000012021692011168209581_"  style="overflow:visible;"/>
									</clipPath>
									<g id="Group_211" style="clip-path:url(#SVGID_00000073684495775506478830000013713277874762063797_);">
										<path id="Path_666" d="M65.7-101.5c36.3,0,65.7,8.2,65.7,18.3S102-65,65.7-65S0-73.2,0-83.3S29.4-101.5,65.7-101.5"/>
									</g>
								</g>
							</g>
						</g>
						<g id="Group_216" transform="translate(229.977 551.944)" class="st5">
							<g id="Group_215">
								<g>
									<defs>
										<rect id="SVGID_00000150804537799698156930000015030237641165912716_" x="0" y="-101.3" width="118" height="33"/>
									</defs>
									<clipPath id="SVGID_00000098188683686754296260000002788029646834536880_">
										<use xlink:href="#SVGID_00000150804537799698156930000015030237641165912716_"  style="overflow:visible;"/>
									</clipPath>
									<g id="Group_214" style="clip-path:url(#SVGID_00000098188683686754296260000002788029646834536880_);">
										<path id="Path_667" d="M59.1-101.5c32.7,0,59.1,7.4,59.1,16.4S91.8-68.7,59.1-68.7S0-76,0-85.1S26.5-101.5,59.1-101.5"/>
									</g>
								</g>
							</g>
						</g>
						<g id="Group_219" transform="translate(372.069 519.09)" class="st5">
							<g id="Group_218">
								<g>
									<defs>
										<rect id="SVGID_00000123437832078165812530000017827289478085451427_" x="-0.1" y="-101.4" width="118" height="33"/>
									</defs>
									<clipPath id="SVGID_00000080902765482203786190000012967729379764830593_">
										<use xlink:href="#SVGID_00000123437832078165812530000017827289478085451427_"  style="overflow:visible;"/>
									</clipPath>
									<g id="Group_217" style="clip-path:url(#SVGID_00000080902765482203786190000012967729379764830593_);">
										<path id="Path_668" d="M59.1-101.5c32.7,0,59.1,7.4,59.1,16.4S91.8-68.7,59.1-68.7S0-76,0-85.1S26.5-101.5,59.1-101.5"/>
									</g>
								</g>
							</g>
						</g>
						<path id="Path_669" class="st4" d="M113.3,130.9c3.2,0,5.7,2.6,5.7,5.7s-2.6,5.7-5.7,5.7c-3.2,0-5.7-2.6-5.7-5.7l0,0
							C107.6,133.5,110.2,130.9,113.3,130.9"/>
						<path id="Path_670" class="st4" d="M607.8,356c3.2,0,5.7,2.6,5.7,5.7s-2.6,5.7-5.7,5.7c-3.2,0-5.7-2.6-5.7-5.7
							C602,358.5,604.6,356,607.8,356L607.8,356"/>
						<path id="Path_671" class="st4" d="M336.8,171.1c3.2,0,5.7,2.6,5.7,5.7c0,3.2-2.6,5.7-5.7,5.7c-3.2,0-5.7-2.6-5.7-5.7l0,0
							C331,173.7,333.6,171.1,336.8,171.1"/>
						<path id="Path_672" class="st2" d="M621.8,139.1c1.8,0,3.3,1.5,3.3,3.3s-1.5,3.3-3.3,3.3c-1.8,0-3.3-1.5-3.3-3.3v0
							C618.5,140.6,619.9,139.1,621.8,139.1"/>
						<path id="Path_673" class="st2" d="M126.5,303.4c1.8,0,3.3,1.5,3.3,3.3c0,1.8-1.5,3.3-3.3,3.3s-3.3-1.5-3.3-3.3
							C123.2,304.9,124.7,303.4,126.5,303.4"/>
						<path id="Path_674" class="st4" d="M77.2,375.9h-1.5v-1.5h-0.3v1.5h-1.5v0.3h1.5v1.5h0.3v-1.5h1.5L77.2,375.9z"/>
						<path id="Path_675" class="st4" d="M557.7,254.4h-1.5v-1.5h-0.3v1.5h-1.5v0.3h1.5v1.5h0.3v-1.5h1.5L557.7,254.4z"/>
						<path id="Path_676" class="st4" d="M681.7,229.7h-1.5v-1.5h-0.3v1.5h-1.5v0.3h1.5v1.5h0.3V230h1.5L681.7,229.7z"/>
						<path id="Path_677" class="st4" d="M414.8,295.4h-1.5v-1.5H413v1.5h-1.5v0.3h1.5v1.5h0.3v-1.5h1.5L414.8,295.4z"/>
						<path id="Path_678" class="st4" d="M645.6,303.7h-1.5v-1.5h-0.3v1.5h-1.5v0.3h1.5v1.5h0.3v-1.5h1.5L645.6,303.7z"/>
						<path id="Path_679" class="st4" d="M367.1,339h-1.5v-1.5h-0.3v1.5h-1.5v0.3h1.5v1.5h0.3v-1.5h1.5L367.1,339z"/>
						<path id="Path_680" class="st4" d="M472.3,340.6h-1.5v-1.5h-0.3v1.5H469v0.3h1.5v1.5h0.3v-1.5h1.5L472.3,340.6z"/>
						<path id="Path_681" class="st4" d="M78.8,201h-1.5v-1.5h-0.3v1.5h-1.5v0.3h1.5v1.5h0.3v-1.5h1.5L78.8,201z"/>
						<rect id="Rectangle_88" x="556" y="87.9" class="st10" width="2.4" height="47.7"/>
						<path id="Path_682" class="st10" d="M502.5,214.7l-21.7,50.1l4.2,7.1l-1.4,2.4l9.9,5.2v-2.8l3.8-0.9l16.1-29.3L502.5,214.7z"
							/>
						<path id="Path_683" class="st10" d="M485.5,273.7c0,0-16.1,25,1.9,28.8s3.3-26.4,3.3-26.4L485.5,273.7z"/>
						<path id="Path_684" class="st11" d="M508.6,262.4l-5.7,18.4l-2.4,23.6l-4.2,8.5l4.7,38.2l7.6,7.6l3.3,37.8v17l9,15.6
							l-11.6,16.4c-1.7,2.4-1.1,5.6,1.2,7.3c0.8,0.6,1.8,0.9,2.9,1c2.5,0.1,5.9-0.7,10.3-2.9c13.7-7.1,13.2-13.7,13.2-13.7
							s8.5,0,9-6.6s-5.2-53.8-5.2-53.8l-5.2-20.3v-55.3h1.9l0.9,47.2l4.2,17.5l0.5,7.6l6.1,75.5c0,0,27.4,7.6,28.8,1.4
							s-10.4-9.9-10.4-9.9l7.1-13.7v-26.4l-2.4-5.7l-4.2-38.2l7.1-7.6l3.8-4.7v-37.8l-4.7-14.6l-1.4-12.3l-7.6-18.9
							C565.3,260.5,530.8,249.2,508.6,262.4"/>
						<path id="Path_685" class="st12" d="M570,155.7c0,19.8-16.1,35.9-35.9,35.9s-35.9-16.1-35.9-35.9c0-7.7,2.5-15.2,7.1-21.4l0,0
							c11.8-15.9,34.3-19.2,50.2-7.4C564.6,133.7,570,144.3,570,155.7"/>
						<g id="Group_222" transform="translate(504.354 223.234)" class="st5">
							<g id="Group_221">
								<g>
									<defs>
										<rect id="SVGID_00000025438238369821504640000004174009374735653262_" x="0" y="-101.5" width="60.5" height="35.9"/>
									</defs>
									<clipPath id="SVGID_00000005981833472997569900000003480831177811521198_">
										<use xlink:href="#SVGID_00000025438238369821504640000004174009374735653262_"  style="overflow:visible;"/>
									</clipPath>
									<g id="Group_220" style="clip-path:url(#SVGID_00000005981833472997569900000003480831177811521198_);">
										<path id="Path_686" d="M60.5-82.4l-2.9,16.8c-22-57.1-57-22-57.6-21.4c11.8-15.9,34.3-19.2,50.2-7.4
											C54.5-91.3,58-87.1,60.5-82.4"/>
									</g>
								</g>
							</g>
						</g>
						<path id="Path_687" class="st11" d="M565.8,138.9l-2.9,16.8c-22-57.1-57-22-57.6-21.4c11.8-15.9,34.3-19.2,50.2-7.4
							C559.8,130.1,563.3,134.2,565.8,138.9L565.8,138.9z"/>
						<path id="Path_688" class="st11" d="M560.9,131.9l4.9,17.1c0,0-10.2,30.6-57.6,31.7l-1.6,4.4l-5.2,1.4l-2.4,9.9l6.6,62.8
							c0,0-2.8,6.1,1.9,5.7c0,0,31.2-10.4,58.1-0.9c0,0,5.7,2.4,4.2-2.8c0,0,18.9-11.8,17.5-24.1s1.4-69.4,1.4-69.4
							s2.8-16.5-5.7-20.3C583.2,147.2,570.7,129.7,560.9,131.9"/>
						<path id="Path_689" class="st10" d="M550.6,251.2c0,0-29.6,3-21.4,19.4s22.8-13.8,22.8-13.8L550.6,251.2z"/>
						<path id="Path_690" class="st10" d="M565.7,177.9c0,0-5.2,6.1-3.3,16.1s9,32.1,9,32.1l-25,23.1l7.6,10.4l34-17.5l7.6-4.7
							c-1.9-19.1-6.6-37.8-13.9-55.6l-1.2-3C580.4,178.8,571.4,175.1,565.7,177.9"/>
						<path id="Path_691" class="st10" d="M563.4,143.7c4.8,0,8.7,3.9,8.7,8.7c0,4.8-3.9,8.7-8.7,8.7c-4.8,0-8.7-3.9-8.7-8.7v0
							C554.6,147.6,558.5,143.7,563.4,143.7"/>
						<path id="Path_692" class="st10" d="M557.2,81.3c3.5,0,6.4,2.9,6.4,6.4c0,3.5-2.9,6.4-6.4,6.4c-3.5,0-6.4-2.9-6.4-6.4
							C550.9,84.2,553.7,81.3,557.2,81.3"/>
						<path id="Path_693" class="st4" d="M395.1,187.8h-1.5v-1.5h-0.3v1.5h-1.5v0.3h1.5v1.5h0.3v-1.5h1.5L395.1,187.8z"/>
						<path id="Path_694" class="st4" d="M529.8,141.8h-1.5v-1.5H528v1.5h-1.5v0.3h1.5v1.5h0.3v-1.5h1.5L529.8,141.8z"/>
						<path id="Path_695" class="st4" d="M515,155.8h-1.5v-1.5h-0.3v1.5h-1.5v0.3h1.5v1.5h0.3v-1.5h1.5L515,155.8z"/>
						<path id="Path_696" class="st4" d="M456.7,114.5c1.8,0,3.3,1.5,3.3,3.3s-1.5,3.3-3.3,3.3c-1.8,0-3.3-1.5-3.3-3.3v0
							C453.4,115.9,454.9,114.5,456.7,114.5"/>
						<path id="Path_697" class="st4" d="M294.8,140.9c0,229.2-28.8,229.2-64.4,229.2c-18.4,0-35,0-46.7-31.7
							c-3.4-9.1-6.3-20.8-8.8-35.9c-5.6-33.9-8.8-85-8.8-161.6c0.2-28.7,3.1-57.2,8.8-85.3c2.6-13,5.6-25.5,8.8-37.5
							c4-14.6,8.4-28.4,12.8-41c3-8.5,5.9-16.4,8.8-23.8c13.4-33.9,25.1-54.9,25.1-54.9S294.8,14.3,294.8,140.9"/>
						<g id="Group_225" transform="translate(196.568 54.868)" class="st5">
							<g id="Group_224">
								<g>
									<defs>
										<rect id="SVGID_00000027590743206781868080000014092882477766165904_" x="0" y="-101.5" width="8.8" height="399.6"/>
									</defs>
									<clipPath id="SVGID_00000178897101522375119220000001600466914252682427_">
										<use xlink:href="#SVGID_00000027590743206781868080000014092882477766165904_"  style="overflow:visible;"/>
									</clipPath>
									<g id="Group_223" style="clip-path:url(#SVGID_00000178897101522375119220000001600466914252682427_);">
										<path id="Path_698" d="M8.8-101.5V298H0V-77.8C3-86.2,5.9-94.2,8.8-101.5"/>
									</g>
								</g>
							</g>
						</g>
						<path id="Path_699" class="st15" d="M228.5,21.3c19.5,0,35.4,15.8,35.4,35.4S248,92,228.5,92s-35.4-15.8-35.4-35.4l0,0
							C193.1,37.1,209,21.3,228.5,21.3C228.5,21.3,228.5,21.3,228.5,21.3"/>
						<path id="Path_700" class="st12" d="M306.1,348.5c-7.9-19.4-18-22.7-24.6-22.4v-3.1H178.4v3.1c-6.6-0.3-16.7,3-24.6,22.4
							c-12.8,31.4,7.9,85.5,7.9,85.5s-11-75.4,25.6-75.9c3.2,4.1,7.1,7.7,11.5,10.4v20.3h59.1v-18.4c5.8-2.9,10.8-7.1,14.8-12.3
							c36.6,0.5,25.6,75.9,25.6,75.9S318.9,379.9,306.1,348.5"/>
						<path id="Path_701" class="st12" d="M228.5,29.1c15.2,0,27.5,12.3,27.5,27.5s-12.3,27.5-27.5,27.5S201,71.9,201,56.7l0,0
							C201,41.5,213.3,29.1,228.5,29.1C228.5,29.1,228.5,29.1,228.5,29.1"/>
						<path id="Path_702" class="st12" d="M694.9,63.5h-1.6c0.2,37,30.3,66.9,67.3,67v-1.6C724.4,128.8,695.1,99.6,694.9,63.5"/>
						<path id="Path_703" class="st12" d="M664.5,63.5h-1.6c0.3,53.8,43.9,97.3,97.7,97.4v-1.6C707.7,159.2,664.7,116.4,664.5,63.5"
							/>
						<path id="Path_704" class="st12" d="M633.3,63.5h-1.6c0.3,71,57.9,128.5,129,128.6v-1.6C690.4,190.4,633.5,133.7,633.3,63.5"
							/>
					</g>
				</g>
			</g>
		</g>
	</g>
	<g id="Group_242" transform="translate(-161 -4637)">
		<g id="Group_194" transform="translate(225.795 4867.247)">
			<g>
				<defs>
					<rect id="SVGID_00000145754659619379533950000014052335760118696354_" x="0" y="-101.5" width="27.4" height="27.4"/>
				</defs>
				<clipPath id="SVGID_00000147937145000442697470000003979716206034206360_">
					<use xlink:href="#SVGID_00000145754659619379533950000014052335760118696354_"  style="overflow:visible;"/>
				</clipPath>
				<g id="Group_193" style="clip-path:url(#SVGID_00000147937145000442697470000003979716206034206360_);">
					<path id="Path_653" class="st15" d="M13.7-74.1C6.1-74.1,0-80.3,0-87.8s6.1-13.7,13.7-13.7s13.7,6.1,13.7,13.7
						S21.3-74.1,13.7-74.1C13.7-74.1,13.7-74.1,13.7-74.1 M13.7-99.3c-6.3,0-11.4,5.1-11.4,11.4s5.1,11.4,11.4,11.4
						s11.4-5.1,11.4-11.4S20-99.3,13.7-99.3C13.7-99.3,13.7-99.3,13.7-99.3"/>
				</g>
			</g>
		</g>
		<path id="Path_654" class="st15" d="M473.2,4882.9l13.9-13l13,13.9l-14,13L473.2,4882.9z M487.3,4867.5l-16.5,15.4l15.4,16.5
			l16.5-15.4L487.3,4867.5z"/>
		<path id="Path_655" class="st15" d="M629.5,4725.2h19.1v19.1h-19.1V4725.2z M627.8,4746h22.5v-22.5h-22.5V4746z"/>
	</g>
	<g id="Group_243" transform="translate(1417.656 188)">
		<g id="Group_194-2" transform="translate(397.136 42.248)">
			<g>
				<defs>
					<rect id="SVGID_00000049181032918071534180000008757153645651356580_" x="0" y="-101.5" width="27.4" height="27.4"/>
				</defs>
				<clipPath id="SVGID_00000165955859321817325280000002985444216115521707_">
					<use xlink:href="#SVGID_00000049181032918071534180000008757153645651356580_"  style="overflow:visible;"/>
				</clipPath>
				<g id="Group_193-2" style="clip-path:url(#SVGID_00000165955859321817325280000002985444216115521707_);">
					<path id="Path_653-2" class="st15" d="M13.7-74.1c7.6,0,13.7-6.1,13.7-13.7s-6.1-13.7-13.7-13.7S0-95.4,0-87.8
						C0-80.3,6.1-74.1,13.7-74.1L13.7-74.1 M13.7-99.3c6.3,0,11.4,5.1,11.4,11.4S20-76.4,13.7-76.4S2.3-81.5,2.3-87.8l0,0
						C2.3-94.1,7.4-99.3,13.7-99.3L13.7-99.3"/>
				</g>
			</g>
		</g>
		<path id="Path_654-2" class="st15" d="M177.1,57.9l-14-13l-13,13.9l13.9,13L177.1,57.9z M163.1,42.5l16.5,15.4l-15.4,16.5
			L147.7,59L163.1,42.5z"/>
		<path id="Path_655-2" class="st15" d="M20.8-99.8H1.7v19.1h19.1V-99.8z M22.5-79H0v-22.5h22.5V-79z"/>
	</g>
	<g id="Group_283" transform="translate(64.795 256.222)">
		<g>
			<defs>
				<rect id="SVGID_00000099650285094967056160000008183303238732938655_" x="0" y="-101.5" width="212.8" height="235.6"/>
			</defs>
			<clipPath id="SVGID_00000103944452154792273660000014774176192109491332_">
				<use xlink:href="#SVGID_00000099650285094967056160000008183303238732938655_"  style="overflow:visible;"/>
			</clipPath>
			<g id="Group_158" style="clip-path:url(#SVGID_00000103944452154792273660000014774176192109491332_);">
				<path id="Path_643" class="st12" d="M141.9-101.5L212.3-16L108,107L38.5,25.3L141.9-101.5z"/>
				<g id="Group_157">
					<g>
						<defs>
							<rect id="SVGID_00000159443427878458466090000016867612513746742156_" x="0" y="-101.5" width="212.8" height="235.6"/>
						</defs>
						<clipPath id="SVGID_00000096029377025623229900000017117805133867276417_">
							<use xlink:href="#SVGID_00000159443427878458466090000016867612513746742156_"  style="overflow:visible;"/>
						</clipPath>
						<g id="Group_156" style="clip-path:url(#SVGID_00000096029377025623229900000017117805133867276417_);">
							<g id="Group_155" transform="translate(38.518)" class="st5">
								<g id="Group_154">
									<g>
										<defs>
											<rect id="SVGID_00000029024975369087446370000016882197732036727204_" x="0" y="-101.5" width="173.8" height="208.6"/>
										</defs>
										<clipPath id="SVGID_00000114068403358943299470000008782119413486878143_">
											<use xlink:href="#SVGID_00000029024975369087446370000016882197732036727204_"  style="overflow:visible;"/>
										</clipPath>
										<g id="Group_153" style="clip-path:url(#SVGID_00000114068403358943299470000008782119413486878143_);">
											<path id="Path_644" d="M103.3-101.5L173.8-16L69.5,107L0,25.3L103.3-101.5z"/>
										</g>
									</g>
								</g>
							</g>
							<path id="Path_645" class="st4" d="M209.5-15.1L209.5-15.1c-1.6-2.8-3.5-5.4-5.7-7.7L139-88.4c0,0-22.5-3.8-27.2,7.5
								l82.7,67.6L209.5-15.1z"/>
							<path id="Path_646" class="st12" d="M212.8-16.5L117,130c0,0-9.4,6.6-18.8,2.8L0,66.6L104.3-91.2l93.9,73.3L212.8-16.5z"/>
							
								<rect id="Rectangle_67" x="144.9" y="-83.2" transform="matrix(0.5839 -0.8118 0.8118 0.5839 98.042 99.0259)" class="st15" width="1.5" height="74.1"/>
							
								<rect id="Rectangle_68" x="66.6" y="50.4" transform="matrix(0.5517 -0.8341 0.8341 0.5517 19.2736 138.1076)" class="st15" width="143" height="1.5"/>
							
								<rect id="Rectangle_69" x="56.6" y="51.4" transform="matrix(0.5931 -0.8051 0.8051 0.5931 -49.9717 83.1995)" class="st15" width="1.5" height="79.3"/>
							
								<rect id="Rectangle_70" x="-7.2" y="-7.9" transform="matrix(0.5715 -0.8206 0.8206 0.5715 33.4217 49.7582)" class="st15" width="143.1" height="1.5"/>
							
								<rect id="Rectangle_71" x="166.2" y="-105.3" transform="matrix(0.6762 -0.7367 0.7367 0.6762 94.3967 105.0471)" class="st15" width="0.9" height="100.9"/>
							
								<rect id="Rectangle_72" x="161.7" y="-105.9" transform="matrix(0.6618 -0.7497 0.7497 0.6618 95.3932 103.2941)" class="st15" width="0.9" height="103.6"/>
							
								<rect id="Rectangle_73" x="158.4" y="-105.9" transform="matrix(0.6402 -0.7682 0.7682 0.6402 98.1499 102.8057)" class="st15" width="0.9" height="105"/>
						</g>
					</g>
				</g>
			</g>
		</g>
	</g>
</g>
</svg>
