<?xml version="1.0" encoding="utf-8"?>
<!-- Generator: Adobe Illustrator 26.0.1, SVG Export Plug-In . SVG Version: 6.00 Build 0)  -->
<svg version="1.1" id="Layer_1" xmlns="http://www.w3.org/2000/svg" xmlns:xlink="http://www.w3.org/1999/xlink" x="0px" y="0px"
	 viewBox="0 0 1801 626.5" style="enable-background:new 0 0 1801 626.5;" xml:space="preserve">
<style type="text/css">
	.st0{clip-path:url(#SVGID_00000080921745761416279910000000979534065473706426_);}
	.st1{clip-path:url(#SVGID_00000108283283531638921610000002924555653507774604_);}
	.st2{fill:#FF6584;}
	.st3{fill:#28374E;}
	.st4{fill:#F2F2F2;}
	.st5{opacity:0.1;}
	.st6{clip-path:url(#SVGID_00000046337234478066898160000000928453932162590900_);}
	.st7{clip-path:url(#SVGID_00000016768063530611591670000008052010002817872311_);}
	.st8{clip-path:url(#SVGID_00000090279207971771613120000000844679538274245287_);}
	.st9{clip-path:url(#SVGID_00000147903834881149480380000004172564241245310083_);}
	.st10{fill:#E6E6E6;}
	.st11{fill:#FFFFFF;}
	.st12{fill:#3FA9F5;}
	.st13{clip-path:url(#SVGID_00000009564812119109527190000016241162688515956649_);}
	.st14{clip-path:url(#SVGID_00000083072224625260649830000007275632239047760542_);}
	.st15{fill:#3F3D56;}
	.st16{clip-path:url(#SVGID_00000092438375178824388850000002786825114363930551_);}
	.st17{clip-path:url(#SVGID_00000040557796926288784370000005976215703621184915_);}
	.st18{clip-path:url(#SVGID_00000179638083435729784850000009302180673510986915_);}
	.st19{clip-path:url(#SVGID_00000150785043866560359120000012427137571216913816_);}
	.st20{clip-path:url(#SVGID_00000018207544537267613680000006681697958238198923_);}
</style>
<g>
	<g id="Group_229" transform="translate(533 -0.188)">
		<g>
			<g>
				<g>
					<defs>
						<rect id="SVGID_1_" x="-51" y="11.7" width="761" height="615"/>
					</defs>
					<clipPath id="SVGID_00000074418308055578515300000005156128571290728106_">
						<use xlink:href="#SVGID_1_"  style="overflow:visible;"/>
					</clipPath>
					<g id="Group_227" style="clip-path:url(#SVGID_00000074418308055578515300000005156128571290728106_);">
						<g>
							<g>
								<g>
									<defs>
										<rect id="SVGID_00000110442969321084281800000014093967843312364174_" x="-51" y="11.7" width="761" height="615"/>
									</defs>
									<clipPath id="SVGID_00000017480162026569376950000003049007340043889554_">
										<use xlink:href="#SVGID_00000110442969321084281800000014093967843312364174_"  style="overflow:visible;"/>
									</clipPath>
									<g id="Group_226" style="clip-path:url(#SVGID_00000017480162026569376950000003049007340043889554_);">
										<path id="Path_662" class="st2" d="M144.4,128.9c38.1,0,69,30.9,69,69s-30.9,69-69,69s-69-30.9-69-69l0,0
											C75.4,159.8,106.3,128.9,144.4,128.9"/>
										<path id="Path_663" class="st3" d="M709.6,176.5v181.4c0,147.9-119.9,267.8-267.7,267.8H-51V444.3
											c0-110.4,67.7-209.4,170.5-249.6c8.5-3.3,17.2-6.2,26.1-8.6c0.2-0.1,0.4-0.1,0.5-0.1c2.6-0.7,5.2-1.4,7.9-2
											c0.1,0,0.3-0.1,0.4-0.1c16.3-3.9,32.9-6.2,49.7-7c2-0.1,4-0.2,6-0.2c0.7,0,1.4,0,2.2,0c1.5,0,3,0,4.6,0L709.6,176.5z"/>
										<path id="Path_664" class="st4" d="M303.8,508.8c-195.5,0-354.1,52.7-354.8,117.8h709.6
											C658,561.5,499.4,508.8,303.8,508.8"/>
										<g id="Group_210" transform="translate(223.406 550.119)" class="st5">
											<g id="Group_209">
												<g>
													<g>
														<g>
															<defs>
																
																	<rect id="SVGID_00000119118591110763069930000000465282943783162040_" x="-51" y="11.5" width="131.4" height="36.5"/>
															</defs>
															<clipPath id="SVGID_00000108997709697270297350000017873678965110476681_">
																<use xlink:href="#SVGID_00000119118591110763069930000000465282943783162040_"  style="overflow:visible;"/>
															</clipPath>
															<g id="Group_208" style="clip-path:url(#SVGID_00000108997709697270297350000017873678965110476681_);">
																<path id="Path_665" d="M14.7,11.5c36.3,0,65.7,8.2,65.7,18.3S51,48,14.7,48S-51,39.8-51,29.7S-21.6,11.5,14.7,11.5"
																	/>
															</g>
														</g>
													</g>
												</g>
											</g>
										</g>
										<g id="Group_213" transform="translate(365.499 517.265)" class="st5">
											<g id="Group_212">
												<g>
													<g>
														<g>
															<defs>
																
																	<rect id="SVGID_00000016053860681427163640000010701416836116488891_" x="-51" y="11.5" width="131.4" height="36.5"/>
															</defs>
															<clipPath id="SVGID_00000035525214860783044680000000155601601320984220_">
																<use xlink:href="#SVGID_00000016053860681427163640000010701416836116488891_"  style="overflow:visible;"/>
															</clipPath>
															<g id="Group_211" style="clip-path:url(#SVGID_00000035525214860783044680000000155601601320984220_);">
																<path id="Path_666" d="M14.7,11.5c36.3,0,65.7,8.2,65.7,18.3S51,48,14.7,48S-51,39.8-51,29.7S-21.6,11.5,14.7,11.5"
																	/>
															</g>
														</g>
													</g>
												</g>
											</g>
										</g>
										<g id="Group_216" transform="translate(229.977 551.944)" class="st5">
											<g id="Group_215">
												<g>
													<g>
														<g>
															<defs>
																<rect id="SVGID_00000118360830162206163620000001255270589814577796_" x="-51" y="11.7" width="118" height="33"/>
															</defs>
															<clipPath id="SVGID_00000080198803953639486020000016560915315747469194_">
																<use xlink:href="#SVGID_00000118360830162206163620000001255270589814577796_"  style="overflow:visible;"/>
															</clipPath>
															<g id="Group_214" style="clip-path:url(#SVGID_00000080198803953639486020000016560915315747469194_);">
																<path id="Path_667" d="M8.1,11.5c32.7,0,59.1,7.4,59.1,16.4S40.8,44.3,8.1,44.3S-51,37-51,27.9S-24.5,11.5,8.1,11.5
																	"/>
															</g>
														</g>
													</g>
												</g>
											</g>
										</g>
										<g id="Group_219" transform="translate(372.069 519.09)" class="st5">
											<g id="Group_218">
												<g>
													<g>
														<g>
															<defs>
																
																	<rect id="SVGID_00000102519909664554242330000013986036333282875009_" x="-51.1" y="11.6" width="118" height="33"/>
															</defs>
															<clipPath id="SVGID_00000070840684120276999140000018157750772046070411_">
																<use xlink:href="#SVGID_00000102519909664554242330000013986036333282875009_"  style="overflow:visible;"/>
															</clipPath>
															<g id="Group_217" style="clip-path:url(#SVGID_00000070840684120276999140000018157750772046070411_);">
																<path id="Path_668" d="M8.1,11.5c32.7,0,59.1,7.4,59.1,16.4S40.8,44.3,8.1,44.3S-51,37-51,27.9S-24.5,11.5,8.1,11.5
																	"/>
															</g>
														</g>
													</g>
												</g>
											</g>
										</g>
										<path id="Path_669" class="st4" d="M62.3,243.9c3.2,0,5.7,2.6,5.7,5.7s-2.6,5.7-5.7,5.7c-3.2,0-5.7-2.6-5.7-5.7l0,0
											C56.6,246.5,59.2,243.9,62.3,243.9"/>
										<path id="Path_670" class="st4" d="M556.8,469c3.2,0,5.7,2.6,5.7,5.7s-2.6,5.7-5.7,5.7c-3.2,0-5.7-2.6-5.7-5.7
											C551,471.5,553.6,469,556.8,469L556.8,469"/>
										<path id="Path_671" class="st4" d="M285.8,284.1c3.2,0,5.7,2.6,5.7,5.7c0,3.2-2.6,5.7-5.7,5.7c-3.2,0-5.7-2.6-5.7-5.7l0,0
											C280,286.7,282.6,284.1,285.8,284.1"/>
										<path id="Path_672" class="st2" d="M570.8,252.1c1.8,0,3.3,1.5,3.3,3.3s-1.5,3.3-3.3,3.3s-3.3-1.5-3.3-3.3l0,0
											C567.5,253.6,568.9,252.1,570.8,252.1"/>
										<path id="Path_673" class="st2" d="M75.5,416.4c1.8,0,3.3,1.5,3.3,3.3s-1.5,3.3-3.3,3.3s-3.3-1.5-3.3-3.3
											S73.7,416.4,75.5,416.4"/>
										<path id="Path_674" class="st4" d="M26.2,488.9h-1.5v-1.5h-0.3v1.5h-1.5v0.3h1.5v1.5h0.3v-1.5h1.5V488.9z"/>
										<path id="Path_675" class="st4" d="M506.7,367.4h-1.5v-1.5h-0.3v1.5h-1.5v0.3h1.5v1.5h0.3v-1.5h1.5V367.4z"/>
										<path id="Path_676" class="st4" d="M630.7,342.7h-1.5v-1.5h-0.3v1.5h-1.5v0.3h1.5v1.5h0.3V343h1.5V342.7z"/>
										<path id="Path_677" class="st4" d="M363.8,408.4h-1.5v-1.5H362v1.5h-1.5v0.3h1.5v1.5h0.3v-1.5h1.5V408.4z"/>
										<path id="Path_678" class="st4" d="M594.6,416.7h-1.5v-1.5h-0.3v1.5h-1.5v0.3h1.5v1.5h0.3V417h1.5V416.7z"/>
										<path id="Path_679" class="st4" d="M316.1,452h-1.5v-1.5h-0.3v1.5h-1.5v0.3h1.5v1.5h0.3v-1.5h1.5V452z"/>
										<path id="Path_680" class="st4" d="M421.3,453.6h-1.5v-1.5h-0.3v1.5H418v0.3h1.5v1.5h0.3v-1.5h1.5V453.6z"/>
										<path id="Path_681" class="st4" d="M27.8,314h-1.5v-1.5H26v1.5h-1.5v0.3H26v1.5h0.3v-1.5h1.5V314z"/>
										<rect id="Rectangle_88" x="505" y="200.9" class="st10" width="2.4" height="47.7"/>
										<path id="Path_682" class="st10" d="M451.5,327.7l-21.7,50.1l4.2,7.1l-1.4,2.4l9.9,5.2v-2.8l3.8-0.9l16.1-29.3
											L451.5,327.7z"/>
										<path id="Path_683" class="st10" d="M434.5,386.7c0,0-16.1,25,1.9,28.8s3.3-26.4,3.3-26.4L434.5,386.7z"/>
										<path id="Path_684" class="st11" d="M457.6,375.4l-5.7,18.4l-2.4,23.6l-4.2,8.5l4.7,38.2l7.6,7.6l3.3,37.8v17l9,15.6
											l-11.6,16.4c-1.7,2.4-1.1,5.6,1.2,7.3c0.8,0.6,1.8,0.9,2.9,1c2.5,0.1,5.9-0.7,10.3-2.9c13.7-7.1,13.2-13.7,13.2-13.7
											s8.5,0,9-6.6s-5.2-53.8-5.2-53.8l-5.2-20.3v-55.3h1.9l0.9,47.2l4.2,17.5l0.5,7.6l6.1,75.5c0,0,27.4,7.6,28.8,1.4
											s-10.4-9.9-10.4-9.9l7.1-13.7v-26.4l-2.4-5.7l-4.2-38.2l7.1-7.6l3.8-4.7v-37.8l-4.7-14.6l-1.4-12.3l-7.6-18.9
											C514.3,373.5,479.8,362.2,457.6,375.4"/>
										<path id="Path_685" class="st12" d="M519,268.7c0,19.8-16.1,35.9-35.9,35.9s-35.9-16.1-35.9-35.9c0-7.7,2.5-15.2,7.1-21.4
											l0,0c11.8-15.9,34.3-19.2,50.2-7.4C513.6,246.7,519,257.3,519,268.7"/>
										<g id="Group_222" transform="translate(504.354 223.234)" class="st5">
											<g id="Group_221">
												<g>
													<g>
														<g>
															<defs>
																
																	<rect id="SVGID_00000167369673329276308710000008909803102924316320_" x="-51" y="11.5" width="60.5" height="35.9"/>
															</defs>
															<clipPath id="SVGID_00000056398111015930375060000012667408155787464619_">
																<use xlink:href="#SVGID_00000167369673329276308710000008909803102924316320_"  style="overflow:visible;"/>
															</clipPath>
															<g id="Group_220" style="clip-path:url(#SVGID_00000056398111015930375060000012667408155787464619_);">
																<path id="Path_686" d="M9.5,30.6L6.6,47.4c-22-57.1-57-22-57.6-21.4c11.8-15.9,34.3-19.2,50.2-7.4
																	C3.5,21.7,7,25.9,9.5,30.6"/>
															</g>
														</g>
													</g>
												</g>
											</g>
										</g>
										<path id="Path_687" class="st11" d="M514.8,251.9l-2.9,16.8c-22-57.1-57-22-57.6-21.4c11.8-15.9,34.3-19.2,50.2-7.4
											C508.8,243.1,512.3,247.2,514.8,251.9L514.8,251.9z"/>
										<path id="Path_688" class="st11" d="M509.9,244.9l4.9,17.1c0,0-10.2,30.6-57.6,31.7l-1.6,4.4l-5.2,1.4l-2.4,9.9l6.6,62.8
											c0,0-2.8,6.1,1.9,5.7c0,0,31.2-10.4,58.1-0.9c0,0,5.7,2.4,4.2-2.8c0,0,18.9-11.8,17.5-24.1c-1.4-12.3,1.4-69.4,1.4-69.4
											s2.8-16.5-5.7-20.3C532.2,260.2,519.7,242.7,509.9,244.9"/>
										<path id="Path_689" class="st10" d="M499.6,364.2c0,0-29.6,3-21.4,19.4s22.8-13.8,22.8-13.8L499.6,364.2z"/>
										<path id="Path_690" class="st10" d="M514.7,290.9c0,0-5.2,6.1-3.3,16.1s9,32.1,9,32.1l-25,23.1l7.6,10.4l34-17.5l7.6-4.7
											c-1.9-19.1-6.6-37.8-13.9-55.6l-1.2-3C529.4,291.8,520.4,288.1,514.7,290.9"/>
										<path id="Path_691" class="st10" d="M512.4,256.7c4.8,0,8.7,3.9,8.7,8.7c0,4.8-3.9,8.7-8.7,8.7s-8.7-3.9-8.7-8.7l0,0
											C503.6,260.6,507.5,256.7,512.4,256.7"/>
										<path id="Path_692" class="st10" d="M506.2,194.3c3.5,0,6.4,2.9,6.4,6.4s-2.9,6.4-6.4,6.4s-6.4-2.9-6.4-6.4
											C499.9,197.2,502.7,194.3,506.2,194.3"/>
										<path id="Path_693" class="st4" d="M344.1,300.8h-1.5v-1.5h-0.3v1.5h-1.5v0.3h1.5v1.5h0.3v-1.5h1.5V300.8z"/>
										<path id="Path_694" class="st4" d="M478.8,254.8h-1.5v-1.5H477v1.5h-1.5v0.3h1.5v1.5h0.3v-1.5h1.5V254.8z"/>
										<path id="Path_695" class="st4" d="M464,268.8h-1.5v-1.5h-0.3v1.5h-1.5v0.3h1.5v1.5h0.3v-1.5h1.5V268.8z"/>
										<path id="Path_696" class="st4" d="M405.7,227.5c1.8,0,3.3,1.5,3.3,3.3s-1.5,3.3-3.3,3.3s-3.3-1.5-3.3-3.3l0,0
											C402.4,228.9,403.9,227.5,405.7,227.5"/>
										<path id="Path_697" class="st4" d="M243.8,253.9c0,229.2-28.8,229.2-64.4,229.2c-18.4,0-35,0-46.7-31.7
											c-3.4-9.1-6.3-20.8-8.8-35.9c-5.6-33.9-8.8-85-8.8-161.6c0.2-28.7,3.1-57.2,8.8-85.3c2.6-13,5.6-25.5,8.8-37.5
											c4-14.6,8.4-28.4,12.8-41c3-8.5,5.9-16.4,8.8-23.8c13.4-33.9,25.1-54.9,25.1-54.9S243.8,127.3,243.8,253.9"/>
										<g id="Group_225" transform="translate(196.568 54.868)" class="st5">
											<g id="Group_224">
												<g>
													<g>
														<g>
															<defs>
																
																	<rect id="SVGID_00000108997587054252181480000014766184502385460650_" x="-51" y="11.5" width="8.8" height="399.6"/>
															</defs>
															<clipPath id="SVGID_00000177453237230817469370000004989087107022813359_">
																<use xlink:href="#SVGID_00000108997587054252181480000014766184502385460650_"  style="overflow:visible;"/>
															</clipPath>
															<g id="Group_223" style="clip-path:url(#SVGID_00000177453237230817469370000004989087107022813359_);">
																<path id="Path_698" d="M-42.2,11.5V411H-51V35.2C-48,26.8-45.1,18.8-42.2,11.5"/>
															</g>
														</g>
													</g>
												</g>
											</g>
										</g>
										<path id="Path_699" class="st15" d="M177.5,134.3c19.5,0,35.4,15.8,35.4,35.4S197,205,177.5,205s-35.4-15.8-35.4-35.4l0,0
											C142.1,150.1,158,134.3,177.5,134.3L177.5,134.3"/>
										<path id="Path_700" class="st12" d="M255.1,461.5c-7.9-19.4-18-22.7-24.6-22.4V436H127.4v3.1c-6.6-0.3-16.7,3-24.6,22.4
											c-12.8,31.4,7.9,85.5,7.9,85.5s-11-75.4,25.6-75.9c3.2,4.1,7.1,7.7,11.5,10.4v20.3h59.1v-18.4c5.8-2.9,10.8-7.1,14.8-12.3
											c36.6,0.5,25.6,75.9,25.6,75.9S267.9,492.9,255.1,461.5"/>
										<path id="Path_701" class="st12" d="M177.5,142.1c15.2,0,27.5,12.3,27.5,27.5s-12.3,27.5-27.5,27.5S150,184.9,150,169.7
											l0,0C150,154.5,162.3,142.1,177.5,142.1L177.5,142.1"/>
										<path id="Path_702" class="st12" d="M643.9,176.5h-1.6c0.2,37,30.3,66.9,67.3,67v-1.6
											C673.4,241.8,644.1,212.6,643.9,176.5"/>
										<path id="Path_703" class="st12" d="M613.5,176.5h-1.6c0.3,53.8,43.9,97.3,97.7,97.4v-1.6
											C656.7,272.2,613.7,229.4,613.5,176.5"/>
										<path id="Path_704" class="st12" d="M582.3,176.5h-1.6c0.3,71,57.9,128.5,129,128.6v-1.6
											C639.4,303.4,582.5,246.7,582.3,176.5"/>
									</g>
								</g>
							</g>
						</g>
					</g>
				</g>
			</g>
		</g>
	</g>
	<g id="Group_242" transform="translate(-161 -4637)">
		<g id="Group_194" transform="translate(225.795 4867.247)">
			<g>
				<g>
					<g>
						<defs>
							<rect id="SVGID_00000167386473632118224090000009319482995879581579_" x="-51" y="11.5" width="27.4" height="27.4"/>
						</defs>
						<clipPath id="SVGID_00000010270737928636055120000012179528255613220743_">
							<use xlink:href="#SVGID_00000167386473632118224090000009319482995879581579_"  style="overflow:visible;"/>
						</clipPath>
						<g id="Group_193" style="clip-path:url(#SVGID_00000010270737928636055120000012179528255613220743_);">
							<path id="Path_653" class="st15" d="M-37.3,38.9c-7.6,0-13.7-6.2-13.7-13.7s6.1-13.7,13.7-13.7s13.7,6.1,13.7,13.7
								S-29.7,38.9-37.3,38.9L-37.3,38.9 M-37.3,13.7c-6.3,0-11.4,5.1-11.4,11.4s5.1,11.4,11.4,11.4s11.4-5.1,11.4-11.4
								S-31,13.7-37.3,13.7L-37.3,13.7"/>
						</g>
					</g>
				</g>
			</g>
		</g>
		<path id="Path_654" class="st15" d="M422.2,4995.9l13.9-13l13,13.9l-14,13L422.2,4995.9z M436.3,4980.5l-16.5,15.4l15.4,16.5
			l16.5-15.4L436.3,4980.5z"/>
		<path id="Path_655" class="st15" d="M578.5,4838.2h19.1v19.1h-19.1V4838.2z M576.8,4859h22.5v-22.5h-22.5V4859z"/>
	</g>
	<g id="Group_243" transform="translate(1417.656 188)">
		<g id="Group_194-2" transform="translate(397.136 42.248)">
			<g>
				<g>
					<g>
						<defs>
							<rect id="SVGID_00000079455603622646251420000006370703812552307339_" x="-51" y="11.5" width="27.4" height="27.4"/>
						</defs>
						<clipPath id="SVGID_00000042703144870326704820000012141777606861305493_">
							<use xlink:href="#SVGID_00000079455603622646251420000006370703812552307339_"  style="overflow:visible;"/>
						</clipPath>
						<g id="Group_193-2" style="clip-path:url(#SVGID_00000042703144870326704820000012141777606861305493_);">
							<path id="Path_653-2" class="st15" d="M-37.3,38.9c7.6,0,13.7-6.1,13.7-13.7s-6.1-13.7-13.7-13.7S-51,17.6-51,25.2
								C-51,32.7-44.9,38.9-37.3,38.9L-37.3,38.9 M-37.3,13.7c6.3,0,11.4,5.1,11.4,11.4S-31,36.6-37.3,36.6s-11.4-5.1-11.4-11.4l0,0
								C-48.7,18.9-43.6,13.7-37.3,13.7L-37.3,13.7"/>
						</g>
					</g>
				</g>
			</g>
		</g>
		<path id="Path_654-2" class="st15" d="M126.1,170.9l-14-13l-13,13.9l13.9,13L126.1,170.9z M112.1,155.5l16.5,15.4l-15.4,16.5
			L96.7,172L112.1,155.5z"/>
		<path id="Path_655-2" class="st15" d="M-30.2,13.2h-19.1v19.1h19.1C-30.2,32.3-30.2,13.2-30.2,13.2z M-28.5,34H-51V11.5h22.5V34z"
			/>
	</g>
	<g id="Group_283" transform="translate(64.795 256.222)">
		<g>
			<g>
				<g>
					<defs>
						<rect id="SVGID_00000068637120432179883950000011576812190987476109_" x="-51" y="11.5" width="212.8" height="235.6"/>
					</defs>
					<clipPath id="SVGID_00000014613332826855873400000011536658959282059193_">
						<use xlink:href="#SVGID_00000068637120432179883950000011576812190987476109_"  style="overflow:visible;"/>
					</clipPath>
					<g id="Group_158" style="clip-path:url(#SVGID_00000014613332826855873400000011536658959282059193_);">
						<path id="Path_643" class="st12" d="M90.9,11.5L161.3,97L57,220l-69.5-81.7L90.9,11.5z"/>
						<g id="Group_157">
							<g>
								<g>
									<g>
										<defs>
											<rect id="SVGID_00000154417493681035783720000008351453806235090060_" x="-51" y="11.5" width="212.8" height="235.6"/>
										</defs>
										<clipPath id="SVGID_00000041992506539889002430000001865811745121576098_">
											<use xlink:href="#SVGID_00000154417493681035783720000008351453806235090060_"  style="overflow:visible;"/>
										</clipPath>
										<g id="Group_156" style="clip-path:url(#SVGID_00000041992506539889002430000001865811745121576098_);">
											<g id="Group_155" transform="translate(38.518)" class="st5">
												<g id="Group_154">
													<g>
														<g>
															<g>
																<defs>
																	
																		<rect id="SVGID_00000025444015139275139340000001781782016396800926_" x="-51" y="11.5" width="173.8" height="208.6"/>
																</defs>
																<clipPath id="SVGID_00000044861164791283198660000003467583666509958584_">
																	<use xlink:href="#SVGID_00000025444015139275139340000001781782016396800926_"  style="overflow:visible;"/>
																</clipPath>
																<g id="Group_153" style="clip-path:url(#SVGID_00000044861164791283198660000003467583666509958584_);">
																	<path id="Path_644" d="M52.3,11.5L122.8,97L18.5,220L-51,138.3L52.3,11.5z"/>
																</g>
															</g>
														</g>
													</g>
												</g>
											</g>
											<path id="Path_645" class="st4" d="M158.5,97.9L158.5,97.9c-1.6-2.8-3.5-5.4-5.7-7.7L88,24.6c0,0-22.5-3.8-27.2,7.5
												l82.7,67.6L158.5,97.9z"/>
											<path id="Path_646" class="st12" d="M161.8,96.5L66,243c0,0-9.4,6.6-18.8,2.8L-51,179.6L53.3,21.8l93.9,73.3L161.8,96.5z
												"/>
											
												<rect id="Rectangle_67" x="93.9" y="29.8" transform="matrix(0.5839 -0.8118 0.8118 0.5839 -14.8688 104.6385)" class="st15" width="1.5" height="74.1"/>
											
												<rect id="Rectangle_68" x="15.6" y="163.4" transform="matrix(0.5517 -0.8341 0.8341 0.5517 -97.863 146.2738)" class="st15" width="143" height="1.5"/>
											
												<rect id="Rectangle_69" x="5.6" y="164.4" transform="matrix(0.5931 -0.8051 0.8051 0.5931 -161.6848 88.1416)" class="st15" width="1.5" height="79.3"/>
											
												<rect id="Rectangle_70" x="-58.2" y="105.1" transform="matrix(0.5715 -0.8206 0.8206 0.5715 -81.1421 56.2897)" class="st15" width="143.1" height="1.5"/>
											
												<rect id="Rectangle_71" x="115.2" y="7.7" transform="matrix(0.6762 -0.7367 0.7367 0.6762 -5.4237 104.0251)" class="st15" width="0.9" height="100.9"/>
											
												<rect id="Rectangle_72" x="110.7" y="7.1" transform="matrix(0.6618 -0.7497 0.7497 0.6618 -6.5751 103.2351)" class="st15" width="0.9" height="103.6"/>
											
												<rect id="Rectangle_73" x="107.4" y="7.1" transform="matrix(0.6402 -0.7682 0.7682 0.6402 -6.9642 104.2842)" class="st15" width="0.9" height="105"/>
										</g>
									</g>
								</g>
							</g>
						</g>
					</g>
				</g>
			</g>
		</g>
	</g>
</g>
</svg>
