<?xml version="1.0" encoding="utf-8"?>
<!-- Generator: Adobe Illustrator 26.0.1, SVG Export Plug-In . SVG Version: 6.00 Build 0)  -->
<svg version="1.1" id="Layer_1" xmlns="http://www.w3.org/2000/svg" xmlns:xlink="http://www.w3.org/1999/xlink" x="0px" y="0px"
	 viewBox="0 0 593.6 146.1" style="enable-background:new 0 0 593.6 146.1;" xml:space="preserve">
<style type="text/css">
	.st0{clip-path:url(#SVGID_00000005954734913088513150000000714062135229340817_);}
	.st1{fill:#3F3D56;}
	.st2{clip-path:url(#SVGID_00000016767493960736546600000013594521891403481732_);}
	.st3{fill:none;}
	.st4{fill:#28374E;}
	.st5{fill:#0071BC;}
	.st6{fill:#F2F2F2;}
	.st7{fill:#CCCCCC;}
</style>
<g>
	<g id="Group_194" transform="translate(229 1712.247)">
		<g>
			<defs>
				<rect id="SVGID_1_" x="-193.9" y="-1709.3" width="9.5" height="9.5"/>
			</defs>
			<clipPath id="SVGID_00000083090291586680849690000002556109807814658215_">
				<use xlink:href="#SVGID_1_"  style="overflow:visible;"/>
			</clipPath>
			<g id="Group_193" style="clip-path:url(#SVGID_00000083090291586680849690000002556109807814658215_);">
				<path id="Path_653" class="st1" d="M-189.2-1699.8c-2.6,0-4.8-2.1-4.8-4.8c0-2.6,2.1-4.8,4.8-4.8c2.6,0,4.8,2.1,4.8,4.8
					C-184.4-1701.9-186.5-1699.8-189.2-1699.8C-189.2-1699.8-189.2-1699.8-189.2-1699.8 M-189.2-1708.5c-2.2,0-4,1.8-4,4
					c0,2.2,1.8,4,4,4c2.2,0,4-1.8,4-4C-185.2-1706.7-187-1708.5-189.2-1708.5C-189.2-1708.5-189.2-1708.5-189.2-1708.5"/>
			</g>
		</g>
	</g>
	<path id="Path_654" class="st1" d="M109.4,54.5l4.9-4.5l4.5,4.9l-4.9,4.5L109.4,54.5z M114.3,49.2l-5.7,5.4l5.4,5.7l5.7-5.4
		L114.3,49.2z"/>
	<path id="Path_655" class="st1" d="M4.7,89.5h6.6v6.6H4.7V89.5z M4.1,96.7h7.9v-7.9H4.1V96.7z"/>
	<g id="Group_195" transform="translate(1562.945 5.017)">
		<g>
			<defs>
				<rect id="SVGID_00000096058526726607807340000008358612450688473249_" x="-1014.6" y="-0.3" width="9.5" height="9.5"/>
			</defs>
			<clipPath id="SVGID_00000007425997577611101380000012994316147875381168_">
				<use xlink:href="#SVGID_00000096058526726607807340000008358612450688473249_"  style="overflow:visible;"/>
			</clipPath>
			
				<g id="Group_193-2" transform="translate(0 0)" style="clip-path:url(#SVGID_00000007425997577611101380000012994316147875381168_);">
				<path id="Path_653-2" class="st1" d="M-1009.9,9.2c2.6,0,4.8-2.1,4.8-4.8s-2.1-4.8-4.8-4.8c-2.6,0-4.8,2.1-4.8,4.8
					C-1014.7,7.1-1012.5,9.2-1009.9,9.2L-1009.9,9.2 M-1009.9,0.5c2.2,0,4,1.8,4,4s-1.8,4-4,4c-2.2,0-4-1.8-4-4l0,0
					C-1013.9,2.2-1012.1,0.5-1009.9,0.5L-1009.9,0.5"/>
			</g>
		</g>
	</g>
	<path id="Path_656" class="st1" d="M483.5,56.3l-4.9-4.5l-4.5,4.9l4.9,4.5L483.5,56.3z M478.6,50.9l5.7,5.4L479,62l-5.7-5.4
		L478.6,50.9z"/>
	<path id="Path_657" class="st1" d="M588.2,91.2h-6.6v6.6h6.6V91.2z M588.8,98.4H581v-7.9h7.9V98.4z"/>
	<rect x="128.4" y="2.9" class="st3" width="341.2" height="137.6"/>
	<path id="Path_761" class="st4" d="M169.4,99.3c0,4.3-1.6,7.8-4.8,10.5c-3.2,2.6-7.5,4-12.8,4c-1.9,0-3.8-0.2-5.7-0.5v19.4
		c0,2.8,0.2,4.4,0.6,4.9c0.4,0.5,1.8,0.8,4.2,0.9c1.4,0,2,0.2,2,0.6c0,0.4-0.4,0.6-1.2,0.6h-19.9c-1.7,0-2.6,0-2.9-0.1
		c-0.2-0.1-0.4-0.2-0.4-0.4c0-0.4,0.4-0.6,1.2-0.6c2.5,0,3.9-0.3,4.4-0.7c0.5-0.4,0.7-1.6,0.7-3.5V95.4c0-3.2-0.1-5.2-0.4-5.8
		s-1.5-1-3.9-1c-1.4,0-2-0.2-2-0.6c0-0.5,0.6-0.7,1.9-0.7l21.6-0.1c5.3,0,9.2,0.8,11.9,2.4C167.5,92,169.4,95.2,169.4,99.3
		 M157.2,99.7c0-7.5-2.3-11.2-7-11.2c-2.8,0-4.2,1.2-4.2,3.7v19.8c1.4,0,2.8,0,4.2-0.2c1.4-0.2,2.7-0.8,3.8-1.7
		C156.2,108.2,157.2,104.7,157.2,99.7"/>
	<path id="Path_762" class="st4" d="M210.6,139.3c0,0.3-0.2,0.5-0.7,0.5h-6c-4.3,0-7-0.1-8-0.2h-1.2l-1.8,0.2c-0.7,0-1-0.1-1-0.6
		c0-0.3,0.1-0.5,0.4-0.5h1.7c1.1,0.1,1.7-0.2,1.9-0.9c0.1-0.4,0.1-2.9,0.1-7.6V119c0-4.7-0.2-7.5-0.7-8.3c-0.6-1.3-1.9-2-3.7-2
		c-1.9,0-3.4,0.9-4.5,2.7c-0.5,0.9-0.8,2.7-0.7,5.5v20.7c-0.1,0.8,1,1.1,3.1,1.1c0.4,0,0.7,0.2,0.7,0.5c0,0.4-0.3,0.5-1,0.5h-0.6
		c-0.6-0.2-1.2-0.3-1.8-0.2h-3.3l-4.2,0.1l-4.5,0.2h-2.3c-0.8,0-1.1-0.2-1.1-0.5c0-0.1,0-0.2,0.2-0.3c0.2-0.1,0.5-0.1,0.7-0.1
		c1.9,0,3-0.1,3.4-0.2s0.6-0.7,0.7-1.7c0.1-0.6,0.1-3.6,0.1-9.1v-27.7c0-5.4-0.1-8.6-0.3-9.4s-1.3-1.2-3.2-1.2
		c-1.5,0-2.2-0.2-2.2-0.5s0.9-0.5,2.6-0.6c3.7-0.2,7.4-0.9,10.9-2c0.5-0.2,0.9-0.3,1.4-0.3c0.4,0,0.6,1.4,0.6,4.2v20.8
		c1.5-2.1,2.9-3.5,4.3-4.2c1.4-0.8,3.3-1.1,5.6-1.1c5,0,8.1,2,9.4,6c0.5,1.3,0.7,3.4,0.7,6.3v17.6c0,1.3,0.2,2.1,0.6,2.4
		c0.4,0.3,1.5,0.5,3.2,0.5C210.4,138.8,210.6,138.9,210.6,139.3"/>
	<path id="Path_763" class="st4" d="M245.9,135.5c0,0.4-0.4,1-1.2,1.7c-2.2,2-4.8,3-8,3c-2.1,0-3.6-0.4-4.5-1.3
		c-0.9-0.9-1.5-2.4-1.8-4.7c-2.3,4.1-5.4,6.2-9.3,6.2c-2.2,0-3.9-0.7-5.3-2s-2-3.1-2-5.3c0-6.3,5.4-10.1,16.3-11.3v-1.6
		c0-5-0.2-8.1-0.5-9.3l-0.1-0.4c-0.7-2.5-2.5-3.8-5.4-3.8c-1.7,0-3,0.5-4,1.4c-1,1-1.5,1.9-1.5,2.8c0,0.5,0.6,0.8,1.8,0.9
		c1.8,0.2,2.7,1.3,2.7,3.3c0,1-0.4,2-1.1,2.8c-0.8,0.7-1.8,1.1-2.8,1.1c-1.3,0.1-2.6-0.4-3.6-1.3c-0.9-0.9-1.4-2.1-1.4-3.4
		c0-2.2,1.1-4.1,3.2-5.9c2.2-1.8,5-2.6,8.5-2.6c5.2,0,8.9,0.9,10.9,2.8c1.7,1.6,2.5,4.3,2.5,8.2v12.9c0,2.5,0,4,0.1,4.4
		c0.3,2.1,1,3.2,2.2,3.2c0.9,0,1.9-0.6,3.2-1.8c0.2-0.2,0.5-0.4,0.6-0.4C245.7,135.1,245.9,135.2,245.9,135.5
		C245.9,135.4,245.9,135.5,245.9,135.5 M230.1,126.5v-3.7c-4.9,1-7.3,3.7-7.3,8.3c0,3.5,1.2,5.3,3.6,5.3c1.4,0,2.3-0.8,2.9-2.3
		C229.8,132.6,230.1,130.1,230.1,126.5"/>
	<path id="Path_764" class="st4" d="M270.2,129.1c0,3.4-1,6.1-3.1,8.2c-2.1,2.1-4.7,3.1-8,3.1c-1.6,0-3.5-0.4-5.7-1.2
		c-1.8-0.7-3-1-3.5-1c-1,0-1.6,0.4-1.9,1.1c-0.3,0.7-0.5,1.1-0.7,1.1c-0.3,0-0.5-0.2-0.5-0.5c0-0.5,0.1-1,0.1-1.4
		c0.2-1.7,0.2-3.3,0.2-5v-3.7c0-0.6,0.1-0.8,0.4-0.8c0.3,0,0.5,0.4,0.7,1.1c0.4,2.6,1.8,5,3.8,6.7c1.9,1.7,4.5,2.7,7.1,2.7
		c2.9,0.2,5.4-2.1,5.6-5c0-0.2,0-0.4,0-0.6c0-1.3-0.5-2.5-1.4-3.3c-0.7-0.7-2.6-1.5-5.7-2.5c-3.8-1.3-6.5-2.8-8.2-4.6
		c-1.7-1.8-2.5-4.1-2.5-6.8c-0.1-2.8,1-5.5,3-7.6c1.9-2,4.6-3.1,7.4-3.1c1.1,0,3,0.4,5.7,1.1c0.3,0.1,0.6,0.1,0.9,0.2
		c1.1,0,1.9-0.7,2.5-2c0.1-0.2,0.2-0.4,0.4-0.4c0.4,0,0.5,0.3,0.5,0.9l-0.1,1.4c-0.1,0.3-0.1,0.7-0.1,1.1c0,2.1,0.1,4.2,0.4,6.3v0.4
		c0,0.4-0.2,0.6-0.5,0.6c-0.3,0-0.5-0.2-0.6-0.7c-1.5-5.1-4.4-7.7-8.9-7.7c-1.5-0.1-3,0.4-4.1,1.4c-1.1,0.8-1.7,2.1-1.6,3.5
		c-0.1,1.2,0.4,2.3,1.4,3.1c0.9,0.8,2.7,1.6,5.3,2.6c4.6,1.6,7.7,3.2,9.3,4.8S270.2,126.2,270.2,129.1"/>
	<path id="Path_765" class="st4" d="M303.4,130.3c0,1.1-0.7,2.6-2,4.4c-2.8,3.9-6.5,5.8-11,5.8c-5.1,0-9.3-1.6-12.5-4.8
		c-3.3-3.2-4.9-7.4-4.9-12.4c0-4.9,1.6-9,4.8-12.3c3.2-3.3,7.1-4.9,11.9-4.9c3.2,0,6,0.7,8.2,2.1c2.5,1.5,4.2,3.9,4.9,6.7
		c0.2,1.1,0.4,2.2,0.5,3.2c-1.2,0.1-5.8,0.2-14,0.3c-1.3,0-2.8,0.1-4.8,0.2c-0.2,1.8-0.2,3.3-0.2,4.6c0,5.9,1.2,10,3.7,12.5
		c1.4,1.4,3.4,2.2,5.4,2.2c1.9,0,3.6-0.7,5.1-1.8c1.6-1.2,2.9-2.8,3.7-4.7c0.4-1,0.7-1.4,1-1.4C303.3,129.8,303.4,130,303.4,130.3
		 M293.9,117.1c0-3.8-0.2-6.5-0.8-8c-0.6-1.5-1.7-2.2-3.2-2.2c-3.1,0-4.8,3.4-5.3,10.3H293.9z"/>
	<path id="Path_766" class="st4" d="M347.8,125.9c0.1,3-1,5.8-2.9,8.1c-1.9,2.2-4.6,3.7-7.9,4.5c-2.5,0.6-5,0.9-7.6,1.1
		c-2.4,0.1-9.3,0.2-20.8,0.2c-1.6,0-2.6,0-2.9-0.1c-0.3,0-0.5-0.3-0.5-0.5c0,0,0,0,0,0c0-0.5,0.8-0.7,2.5-0.7c1.6,0,2.7-0.2,3.1-0.7
		c0.4-0.5,0.6-1.7,0.6-3.5V90.9c0-1.5-1.2-2.2-3.5-2.3c-1.8,0-2.7-0.3-2.7-0.6c0-0.4,0.6-0.6,1.7-0.6h21.2c11.6,0,17.4,4,17.4,12
		c0,6.6-4.3,10.7-13,12.3l-0.1,0.3c5.1,1.1,8.6,2.4,10.6,4C346.2,118.6,347.8,121.9,347.8,125.9 M335.7,125.5c0-7.1-2-11.2-6-12.4
		c-1.6-0.5-3.9-0.7-6.9-0.7v4.4c0,1.3-0.1,3-0.2,5.4c0,1.2-0.1,3.3-0.1,6.5c0,5.4,0.2,8.3,0.5,8.7c0.4,0.6,1.5,0.8,3.4,0.8
		C332.7,138.2,335.7,134,335.7,125.5 M334.3,99.7c0-7.3-2.2-10.9-6.7-10.9c-1.6,0-2.6,0.1-3.2,0.2c-1.1,0.4-1.6,1.1-1.6,2.3v19.9
		c4.4,0,7.4-0.8,9-2.3S334.3,104.3,334.3,99.7"/>
	<path id="Path_767" class="st4" d="M387.5,123.5c0,5.4-2.1,9.7-6.3,13.1c-3.3,2.6-7,3.9-10.9,3.9c-4.7,0-8.8-1.7-12.3-5.1
		c-3.4-3.4-5.2-7.4-5.2-12c-0.1-4.7,1.8-9.1,5.2-12.3c3.3-3.3,7.8-5.2,12.5-5.1c4.7,0,8.7,1.7,12,5.2
		C385.7,114.4,387.5,118.9,387.5,123.5 M376.1,123.6c0-6.2-0.4-10.5-1.3-12.8c-1-2.6-2.5-3.9-4.6-3.9c-2,0-3.5,1.3-4.6,4
		c-1.1,2.7-1.6,6.4-1.6,11.1c0,6.6,0.7,11.3,2,14c1,2.2,2.5,3.3,4.4,3.3c2.4,0,3.9-1.4,4.7-4.2C375.7,132.5,376.1,128.7,376.1,123.6
		"/>
	<path id="Path_768" class="st4" d="M425.8,123.5c0,5.4-2.1,9.7-6.3,13.1c-3.3,2.6-7,3.9-10.9,3.9c-4.7,0-8.8-1.7-12.3-5.1
		c-3.4-3.4-5.2-7.4-5.2-12c-0.1-4.7,1.8-9.1,5.2-12.3c3.3-3.3,7.8-5.2,12.5-5.1c4.7,0,8.7,1.7,12,5.2
		C424.1,114.4,425.9,118.9,425.8,123.5 M414.4,123.6c0-6.2-0.4-10.5-1.3-12.8c-1-2.6-2.5-3.9-4.6-3.9c-2,0-3.5,1.3-4.6,4
		c-1.1,2.7-1.6,6.4-1.6,11.1c0,6.6,0.7,11.3,2,14c1,2.2,2.5,3.3,4.4,3.3c2.4,0,3.9-1.4,4.7-4.2C414.1,132.5,414.4,128.7,414.4,123.6
		"/>
	<path id="Path_769" class="st4" d="M469.6,139.1c0,0.4-0.9,0.5-2.8,0.5h-16.2c-0.7,0-1.1-0.2-1.1-0.5c0-0.4,0.7-0.6,2-0.6
		c0.9-0.1,1.3-0.3,1.3-0.8s-1.1-2.5-3.2-5.9c-0.6-0.9-1.5-2.3-2.6-4.2c-0.8-1.4-1.9-3.2-3.4-5.5v11.1c0,2.7,0.1,4.2,0.3,4.7
		c0.2,0.5,0.7,0.7,1.7,0.7h1.3c0.5,0,0.7,0.2,0.7,0.6c0,0.4-0.3,0.6-0.8,0.6h-17.6c-0.6,0-0.8-0.2-0.8-0.5c0-0.4,0.7-0.6,2-0.6
		c1.7-0.1,2.6-0.2,2.8-0.5c0.2-0.2,0.3-1.5,0.3-3.8V94.5c0-2-0.2-3.2-0.7-3.6s-1.6-0.7-3.5-0.6c-1,0-1.5-0.2-1.5-0.6
		c0-0.3,0.1-0.5,0.3-0.6c0.7-0.1,1.5-0.1,2.2-0.2c5.1-0.2,8.7-0.9,10.7-2c0.6-0.3,1.2-0.6,1.8-0.7c0.2,0.7,0.3,2.1,0.4,4.1l0.3,8.1
		v22.4c1.4-1.3,2.7-2.6,3.9-4l3.4-3.9c2.4-2.7,3.6-4.2,3.6-4.4c0-0.3-0.2-0.4-0.5-0.5c-0.3,0-1.3-0.1-3-0.2c-1.2,0-1.7-0.2-1.7-0.6
		c0-0.4,0.3-0.5,0.9-0.5h11.6c0.9,0,1.4,0.2,1.4,0.5c0,0.3-1,0.5-3.1,0.6c-1.2,0-2.4,0.5-3.3,1.4c-1.6,1.5-3.6,3.6-6,6.4l8.7,13.1
		c0.5,0.8,1.2,1.9,2.2,3.4c0.2,0.2,0.5,0.8,1.1,1.7l1.2,1.8l0.6,0.9c0.4,0.6,0.8,1.2,1.4,1.6c0.4,0.2,1,0.3,2,0.3
		C469.1,138.5,469.6,138.7,469.6,139.1"/>
	<path id="Path_770" class="st5" d="M294.2,11.5c17.4,0,31.5,14.1,31.5,31.5c0,17.4-14.1,31.5-31.5,31.5
		c-17.4,0-31.5-14.1-31.5-31.5c0,0,0,0,0,0C262.7,25.6,276.8,11.5,294.2,11.5C294.2,11.5,294.2,11.5,294.2,11.5"/>
	<path id="Path_771" class="st4" d="M281.2,2.9l-20.9,25.4l31,36.6L312,40.6L281.2,2.9z"/>
	<path id="Path_772" class="st6" d="M261.1,28.6L261.1,28.6c0.5-0.8,1-1.6,1.7-2.3l19.2-19.5c0,0,6.7-1.1,8.1,2.2l-24.6,20.1
		L261.1,28.6z"/>
	<path id="Path_773" class="st4" d="M260.1,28.2l28.5,43.6c0,0,2.8,2,5.6,0.8l29.2-19.7L292.4,6l-27.9,21.8L260.1,28.2z"/>
	<path id="Path_774" class="st7" d="M262.7,26.8l22.1-20.3l0.2,0.2l-22.1,20.3L262.7,26.8z"/>
	<path id="Path_775" class="st7" d="M263.5,27.1l23.1-20.4l0.2,0.2l-23.1,20.4L263.5,27.1z"/>
	<path id="Path_776" class="st7" d="M264.1,27.1l24-20l0.2,0.2l-24,20L264.1,27.1z"/>
</g>
</svg>
