<?xml version="1.0" encoding="utf-8"?>
<!-- Generator: Adobe Illustrator 26.0.1, SVG Export Plug-In . SVG Version: 6.00 Build 0)  -->
<svg version="1.1" xmlns="http://www.w3.org/2000/svg" xmlns:xlink="http://www.w3.org/1999/xlink" x="0px" y="0px"
	 viewBox="0 0 669.2 511.6" style="enable-background:new 0 0 669.2 511.6;" xml:space="preserve">
<style type="text/css">
	.st0{clip-path:url(#SVGID_00000083083386320500611520000005604754926494857656_);}
	.st1{fill:#28374E;}
	.st2{fill:#0071BC;}
	.st3{fill:#F2F2F2;}
	.st4{fill:#CCCCCC;}
</style>
<g id="Layer_1">
	<g id="Group_255" transform="translate(0 0)">
		<g>
			<defs>
				<rect id="SVGID_1_" x="51" y="148.2" width="540.4" height="217.9"/>
			</defs>
			<clipPath id="SVGID_00000086680976532091843070000010421983313666659226_">
				<use xlink:href="#SVGID_1_"  style="overflow:visible;"/>
			</clipPath>
			
				<g id="Group_254" transform="translate(0 0)" style="clip-path:url(#SVGID_00000086680976532091843070000010421983313666659226_);">
				<path id="Path_761" class="st1" d="M116,300.8c0,6.9-2.6,12.4-7.7,16.6c-5.1,4.2-11.9,6.3-20.3,6.3c-3-0.1-6.1-0.4-9.1-0.8v30.7
					c0,4.4,0.3,7,0.9,7.7c0.6,0.8,2.8,1.2,6.6,1.4c2.2-0.1,3.2,0.3,3.2,1c0,0.7-0.6,1-1.9,1H56.2c-2.6,0-4.1-0.1-4.5-0.2
					c-0.4-0.2-0.6-0.4-0.6-0.7c0-0.6,0.6-0.9,1.9-0.9c3.9-0.1,6.2-0.4,7-1.1c0.8-0.6,1.1-2.5,1.1-5.5v-61.7c0-5.1-0.2-8.2-0.6-9.2
					c-0.4-1-2.4-1.6-6.1-1.6c-2.2,0-3.2-0.3-3.2-1c0-0.7,1-1.1,3-1.1l34.2-0.1c8.4,0,14.6,1.3,18.8,3.8
					C113,289.2,116,294.3,116,300.8 M96.7,301.5c0-11.8-3.7-17.8-11.1-17.8c-4.5,0-6.7,2-6.7,5.9v31.4c2.2,0.1,4.5-0.1,6.7-0.4
					c2.2-0.4,4.3-1.3,6-2.8C95,314.9,96.7,309.4,96.7,301.5"/>
				<path id="Path_762" class="st1" d="M181.3,364.1c0,0.5-0.4,0.7-1.1,0.7h-9.6c-6.9,0-11.1-0.1-12.7-0.4h-1.9l-2.9,0.4
					c-1,0.1-1.6-0.2-1.6-0.9c0-0.5,0.2-0.8,0.6-0.8h2.8c1.8,0.1,2.7-0.4,3-1.4c0.2-0.6,0.2-4.6,0.2-12v-17.8
					c0-7.4-0.4-11.8-1.1-13.2c-1-2.1-3-3.1-5.9-3.1c-3.1,0-5.5,1.4-7.1,4.2c-0.8,1.4-1.2,4.3-1.2,8.8v32.8c-0.1,1.2,1.6,1.8,4.9,1.8
					c0.7,0,1.1,0.2,1.1,0.7c0,0.6-0.5,0.8-1.6,0.8h-1c-0.9-0.3-1.9-0.4-2.9-0.4h-5.3l-6.7,0.1l-7.1,0.2h-3.6c-1.2,0-1.8-0.2-1.8-0.7
					c0-0.2,0.1-0.4,0.2-0.5c0.3-0.1,0.7-0.1,1.1-0.1c3,0,4.8-0.1,5.4-0.4s0.9-1.2,1.1-2.8c0.1-1,0.1-5.7,0.1-14.4v-43.9
					c0-8.6-0.2-13.6-0.5-14.9c-0.4-1.3-2.1-2-5.1-2c-2.3,0-3.5-0.2-3.5-0.7c0-0.5,1.3-0.8,4-1c5.9-0.4,11.7-1.4,17.3-3.1
					c0.7-0.3,1.5-0.4,2.3-0.5c0.6,0,1,2.2,1,6.7v33c2.3-3.3,4.6-5.5,6.8-6.7c2.2-1.2,5.2-1.8,8.9-1.8c7.9,0,12.8,3.2,14.8,9.6
					c0.7,2.1,1.1,5.4,1.1,10v27.9c0,2.1,0.3,3.3,1,3.8c0.7,0.5,2.4,0.7,5.1,0.7C180.9,363.3,181.3,363.6,181.3,364.1"/>
				<path id="Path_763" class="st1" d="M237.1,358.1c0,0.6-0.6,1.5-1.9,2.7c-3.4,3.2-7.7,4.7-12.7,4.7c-3.3,0-5.6-0.7-7.1-2.1
					c-1.5-1.4-2.5-3.8-2.9-7.4c-3.6,6.5-8.5,9.8-14.7,9.8c-3.4,0-6.2-1.1-8.3-3.2s-3.2-4.9-3.2-8.4c0-10,8.6-16,25.8-17.8V334
					c0-8-0.3-12.9-0.8-14.7l-0.1-0.6c-1.1-4-3.9-6-8.5-6c-2.6,0-4.7,0.8-6.3,2.3c-1.6,1.5-2.4,3-2.4,4.4c0,0.8,1,1.3,2.9,1.4
					c2.9,0.2,4.3,2,4.3,5.3c0,1.6-0.6,3.2-1.7,4.4c-1.2,1.2-2.8,1.8-4.5,1.7c-2.1,0.1-4.1-0.7-5.7-2.1c-1.5-1.4-2.3-3.3-2.2-5.3
					c0-3.4,1.7-6.5,5.1-9.3c3.4-2.8,7.9-4.2,13.5-4.2c8.3,0,14.1,1.5,17.3,4.4c2.6,2.5,3.9,6.8,3.9,12.9V349c0,4,0,6.3,0.1,6.9
					c0.4,3.3,1.6,5,3.5,5c1.4,0,3-1,5-2.9c0.4-0.4,0.7-0.6,1-0.6c0.3,0,0.6,0.2,0.6,0.5C237.2,358,237.2,358.1,237.1,358.1
					 M212.1,343.9V338c-7.7,1.5-11.6,5.9-11.6,13.2c0,5.6,1.9,8.4,5.7,8.4c2.1,0,3.7-1.2,4.5-3.6
					C211.7,353.6,212.1,349.6,212.1,343.9"/>
				<path id="Path_764" class="st1" d="M275.6,348c0,5.3-1.6,9.7-4.9,13c-3.3,3.3-7.5,5-12.6,5c-2.5,0-5.6-0.6-9.1-1.9
					c-2.9-1-4.7-1.6-5.6-1.6c-1.5,0-2.5,0.6-3,1.7c-0.5,1.2-0.8,1.7-1.1,1.7c-0.5,0-0.7-0.3-0.7-0.8c0-0.8,0.1-1.5,0.2-2.3
					c0.2-2.6,0.3-5.3,0.3-7.9v-5.9c0-0.9,0.2-1.3,0.6-1.3c0.5,0,0.8,0.6,1.1,1.8c0.7,4.2,2.8,7.9,6.1,10.6c3.1,2.7,7.1,4.2,11.2,4.2
					c4.6,0.2,8.6-3.3,8.8-8c0-0.3,0-0.6,0-0.9c0-2-0.8-3.9-2.3-5.3c-1.1-1-4.1-2.4-9-3.9c-6-2-10.3-4.4-13-7.2
					c-2.7-2.8-4-6.4-4-10.8c-0.1-4.5,1.6-8.8,4.8-12c3-3.2,7.3-5,11.7-4.9c1.8,0,4.8,0.6,9.1,1.7c0.5,0.1,0.9,0.2,1.4,0.2
					c1.8,0,3.1-1.1,3.9-3.2c0.2-0.4,0.4-0.6,0.6-0.6c0.6,0,0.8,0.5,0.8,1.4L271,313c-0.1,0.6-0.1,1.1-0.1,1.7c0,3.4,0.2,6.7,0.6,10
					v0.6c0,0.6-0.2,1-0.7,1c-0.4,0-0.7-0.4-1-1.1c-2.3-8.1-7-12.2-14.1-12.2c-2.4-0.1-4.7,0.7-6.5,2.2c-1.7,1.3-2.6,3.4-2.6,5.5
					c-0.1,1.9,0.7,3.7,2.1,4.9c1.4,1.2,4.2,2.6,8.4,4.1c7.3,2.6,12.2,5.1,14.7,7.7C274.4,339.9,275.6,343.4,275.6,348"/>
				<path id="Path_765" class="st1" d="M328.3,349.9c0,1.8-1,4.1-3.1,6.9c-4.5,6.1-10.3,9.2-17.5,9.2c-8.1,0-14.7-2.6-19.9-7.7
					s-7.8-11.6-7.8-19.6c0-7.8,2.5-14.3,7.5-19.6c5-5.2,11.3-7.8,18.8-7.8c5.1,0,9.4,1.1,13,3.3c3.9,2.4,6.7,6.2,7.8,10.6
					c0.4,1.7,0.6,3.4,0.7,5.1c-1.8,0.2-9.2,0.4-22.1,0.5c-2,0-4.5,0.1-7.5,0.2c-0.2,2.9-0.4,5.3-0.4,7.3c0,9.3,2,15.9,5.9,19.8
					c2.2,2.3,5.3,3.5,8.5,3.5c2.9,0,5.8-1.1,8.1-2.9c2.6-1.9,4.6-4.5,5.9-7.4c0.6-1.5,1.2-2.3,1.6-2.3
					C328.1,349.2,328.3,349.4,328.3,349.9 M313.2,328.9c0.1-6.1-0.4-10.3-1.3-12.7c-1-2.4-2.6-3.6-5-3.6c-4.9,0-7.7,5.4-8.4,16.3
					H313.2z"/>
				<path id="Path_766" class="st1" d="M398.6,342.9c0.1,4.7-1.5,9.2-4.5,12.8c-3,3.6-7.2,5.9-12.6,7.1c-3.9,0.9-7.9,1.5-12,1.7
					c-3.8,0.2-14.8,0.2-33,0.2c-2.6,0-4.1,0-4.5-0.1c-0.4,0-0.7-0.4-0.7-0.8c0,0,0,0,0,0c0-0.7,1.3-1.1,3.9-1.1
					c2.6,0,4.2-0.4,4.8-1.1c0.6-0.8,1-2.6,1-5.6v-68.5c0-2.3-1.9-3.5-5.6-3.6c-2.8-0.1-4.2-0.4-4.2-1c0-0.7,0.9-1,2.6-1h33.6
					c18.4,0,27.6,6.3,27.6,19c0,10.5-6.9,17-20.6,19.4l-0.2,0.5c8.1,1.7,13.6,3.8,16.7,6.4C396,331.3,398.6,336.6,398.6,342.9
					 M379.5,342.3c0-11.2-3.2-17.8-9.6-19.6c-2.5-0.7-6.1-1.1-10.9-1.1v6.9c0,2-0.1,4.8-0.2,8.5c-0.1,1.8-0.1,5.3-0.1,10.3
					c0,8.6,0.2,13.2,0.7,13.8c0.6,0.9,2.4,1.3,5.4,1.3C374.6,362.4,379.5,355.7,379.5,342.3 M377.2,301.4c0-11.6-3.5-17.3-10.6-17.3
					c-2.5,0-4.2,0.1-5,0.4c-1.7,0.6-2.6,1.8-2.6,3.7v31.6c7,0,11.7-1.2,14.3-3.7C375.9,313.6,377.2,308.7,377.2,301.4"/>
				<path id="Path_767" class="st1" d="M461.4,339.1c0,8.5-3.3,15.4-10,20.7c-5.3,4.1-11,6.2-17.3,6.2c-7.5,0-14-2.7-19.4-8.1
					s-8.2-11.7-8.2-19.1c-0.1-7.4,2.9-14.5,8.2-19.6c5.2-5.3,12.4-8.2,19.8-8.1c7.4,0,13.8,2.7,19.1,8.2
					C458.6,324.7,461.5,331.8,461.4,339.1 M443.3,339.2c0-9.9-0.7-16.7-2-20.3c-1.5-4.1-3.9-6.1-7.3-6.1c-3.1,0-5.5,2.1-7.2,6.4
					s-2.6,10.1-2.6,17.6c0,10.4,1,17.9,3.1,22.2c1.7,3.5,4,5.3,7,5.3c3.7,0,6.2-2.2,7.4-6.7C442.8,353.4,443.3,347.3,443.3,339.2"/>
				<path id="Path_768" class="st1" d="M522.1,339.1c0,8.5-3.3,15.4-10,20.7c-5.3,4.1-11,6.2-17.3,6.2c-7.5,0-14-2.7-19.4-8.1
					c-5.5-5.4-8.2-11.7-8.2-19.1c-0.1-7.4,2.9-14.5,8.2-19.6c5.2-5.3,12.4-8.2,19.8-8.1c7.4,0,13.8,2.7,19.1,8.2
					C519.4,324.7,522.3,331.8,522.1,339.1 M504.1,339.2c0-9.9-0.7-16.7-2-20.3c-1.5-4.1-3.9-6.1-7.3-6.1c-3.1,0-5.5,2.1-7.2,6.4
					s-2.6,10.1-2.6,17.6c0,10.4,1,17.9,3.1,22.2c1.7,3.5,4,5.3,7,5.3c3.7,0,6.2-2.2,7.4-6.7C503.5,353.4,504.1,347.3,504.1,339.2"/>
				<path id="Path_769" class="st1" d="M591.4,363.8c0,0.6-1.5,0.8-4.4,0.8h-25.6c-1.1,0-1.7-0.3-1.7-0.8c0-0.6,1.1-0.9,3.2-1
					c1.3-0.1,2-0.5,2-1.3c0-0.8-1.7-3.9-5-9.3c-1-1.4-2.4-3.7-4.2-6.7c-1.3-2.2-3-5.1-5.4-8.7v17.6c0,4.2,0.1,6.7,0.4,7.4
					c0.3,0.7,1.2,1.1,2.6,1.1h2.1c0.8,0,1.2,0.3,1.2,0.9s-0.4,0.9-1.3,0.9h-27.9c-0.9,0-1.3-0.3-1.3-0.8s1-0.9,3.1-1
					c2.6-0.1,4.1-0.3,4.5-0.7s0.5-2.4,0.5-6v-62.9c0-3.1-0.3-5-1-5.7s-2.5-1-5.5-1c-1.5,0-2.3-0.3-2.3-0.9c0-0.5,0.2-0.8,0.5-0.9
					c1.2-0.2,2.3-0.2,3.5-0.3c8.1-0.3,13.7-1.4,17-3.1c0.9-0.5,1.9-0.9,2.9-1.1c0.3,1.1,0.5,3.3,0.6,6.5l0.5,12.8V335
					c2.2-2,4.3-4.1,6.2-6.4l5.3-6.2c3.8-4.4,5.7-6.7,5.7-7c0-0.4-0.2-0.6-0.7-0.7s-2.1-0.2-4.8-0.2c-1.8,0-2.8-0.3-2.8-0.9
					c0-0.6,0.5-0.8,1.4-0.8h18.4c1.4,0,2.1,0.2,2.2,0.7c0,0.5-1.6,0.8-4.9,1c-2,0-3.9,0.8-5.3,2.2c-2.5,2.4-5.6,5.8-9.5,10.1
					l13.7,20.8c0.7,1.2,1.9,3,3.5,5.4c0.2,0.3,0.8,1.2,1.8,2.6l2,2.9l1,1.4c0.6,1,1.3,1.8,2.2,2.6c0.6,0.4,1.6,0.5,3.2,0.5
					S591.4,363.1,591.4,363.8"/>
				<path id="Path_770" class="st2" d="M313.6,161.7c27.5,0,49.8,22.3,49.8,49.8s-22.3,49.8-49.8,49.8s-49.8-22.3-49.8-49.8
					c0,0,0,0,0,0C263.8,184,286.1,161.7,313.6,161.7C313.6,161.7,313.6,161.7,313.6,161.7"/>
				<path id="Path_771" class="st1" d="M293.1,148.2l-33.2,40.3l49.1,58l32.7-38.5L293.1,148.2z"/>
				<path id="Path_772" class="st3" d="M261.3,188.9L261.3,188.9c0.7-1.3,1.6-2.5,2.7-3.6l30.5-30.9c0,0,10.6-1.8,12.8,3.5
					l-38.9,31.9L261.3,188.9z"/>
				<path id="Path_773" class="st1" d="M259.7,188.2l45.1,69c0,0,4.4,3.1,8.8,1.3l46.2-31.2L310.8,153l-44.2,34.5L259.7,188.2z"/>
				<path id="Path_774" class="st4" d="M263.8,186l35-32.1l0.3,0.3l-35,32.1L263.8,186z"/>
				<path id="Path_775" class="st4" d="M265.1,186.5l36.6-32.3l0.3,0.3l-36.6,32.3L265.1,186.5z"/>
				<path id="Path_776" class="st4" d="M266,186.5l38-31.7l0.3,0.3l-38,31.7L266,186.5z"/>
			</g>
		</g>
	</g>
</g>
<g id="Group_282">
</g>
</svg>
