<?xml version="1.0" encoding="utf-8"?>
<!-- Generator: Adobe Illustrator 26.0.1, SVG Export Plug-In . SVG Version: 6.00 Build 0)  -->
<svg version="1.1" id="Layer_1" xmlns="http://www.w3.org/2000/svg" xmlns:xlink="http://www.w3.org/1999/xlink" x="0px" y="0px"
	 viewBox="0 0 654.2 682.1" style="enable-background:new 0 0 654.2 682.1;" xml:space="preserve">
<style type="text/css">
	.st0{opacity:0.1;enable-background:new    ;}
	.st1{fill:#3F3D56;}
	.st2{fill:#3FA9F5;}
	.st3{fill:#575A89;}
	.st4{fill:#A0616A;}
	.st5{fill:#2F2E41;}
	.st6{fill:#F2F2F2;}
</style>
<ellipse class="st0" cx="369" cy="569.7" rx="119" ry="14.5"/>
<ellipse class="st1" cx="369.5" cy="460.2" rx="112.5" ry="120"/>
<rect x="334" y="531.2" class="st2" width="70" height="64"/>
<polygon class="st3" points="204.5,546.7 203.5,562.7 220.5,572.7 246.5,568.7 242.5,546.7 "/>
<path class="st4" d="M338.5,142.7c9,13-3,29-3,29l-9,22l19,5h24c0,0,16-40,11-41s-7-24-7-24S329.5,129.7,338.5,142.7z"/>
<path class="st0" d="M338.5,142.7c9,13-3,29-3,29l-9,22l19,5h24c0,0,16-40,11-41s-7-24-7-24S329.5,129.7,338.5,142.7z"/>
<path class="st5" d="M403.5,307.7l-40,7l-29-9c0,0-23,1-27,2s-6,20-6,23s-21,7-21,7c-75,23-89,59-93,67s11,128,11,128s-5,10-2,18
	s45,2,48,0s-6-96-6-97s-3-12-1-14s0-2-2-5s1,0,3-2s-1-2-2-4s-1-2,2-2s12-9,12-9c32-10,61-42,61-42l26-5l11,1c0,0,2,9,3,13s3,3,5,6
	s-1,7-3,11s3,33,3,33s-2,25-4,27s0,3,3,6s-3,6,0,11s34,3,40,0s0-16-1-18s0-5,2-9s2-5,2-5s-2-9,4-21s0-32,2-37s-2-4-2-7s5-2,26-12
	s-5-60-5-60L403.5,307.7z"/>
<path class="st5" d="M360.5,474.7l-1,7l-5,25c0,0-3,24-3,26c0,0.4,0.1,0.9,0.3,1.3c2.3,7.2,9.3,11.8,16.8,11.1
	c13-1.2,20-7.9,23.9-13.4c5-7,1-36,1-36l-5-18L360.5,474.7z"/>
<path class="st5" d="M217.5,559.7c-5-4-16-6-18-5s-15,18-15,18s-23,9-31,12s5,9,12,13s74-6,81-7s3-22,2-27s-6,0-6,0
	S222.5,563.7,217.5,559.7z"/>
<circle class="st4" cx="349.5" cy="123.7" r="31"/>
<path class="st3" d="M335.5,171.7c-2.9-1.4-19,9.4-28,15.7c-3.7,2.6-5.6,7.1-4.9,11.5c4,26,17.9,113.3,23.9,110.8c7-3,9,1,16,6
	s33,5,42,1s37-1,43-4s-1-35-5-43s5-92,5-92s-36-16-38-21s-11.7-2-11.7-2l-13.3,26l-12,13C352.5,193.7,339.5,173.7,335.5,171.7z"/>
<path class="st3" d="M322.5,286.7c-10,29-30-14-30-14l8.1-72.8c0.5-4.9,4.1-9,8.9-10.2l0,0C309.5,189.7,332.5,257.7,322.5,286.7z"/>
<path class="st3" d="M318.5,275.7c0,0,10,21,9,26s-14,12-23,14s-27-14-23-14s8-28,8-28l22,6L318.5,275.7z"/>
<path class="st5" d="M377.5,131.5c1.6-1.1,3.5-0.4,5.1-1.4c1.8-1.2,2.6-4.2,4.2-5.7c1.6-1.6,3.7-2.6,5-4.5c1.6-2.4,1.7-5.5,0.9-8.3
	c-0.9-2.7-2.1-5.3-3.6-7.8c-3.1-5.8-5.4-11.9-7-18.3c-0.2-1.3-0.7-2.6-1.3-3.8c-0.7-1-1.5-1.9-2.5-2.6c-7.2-5.7-16.8-7.4-25.9-8.1
	c-5.5-0.5-11.2-0.7-16.6,0.7s-10.6,4.4-13.4,9.2c-2.5,4.3-2.9,9.6-2.9,14.6c0.1,1.4-0.1,2.7-0.4,4c-0.6,1.4-1.3,2.8-2,4.1
	c-1.8,3.9-1.5,8.4-1.1,12.6c0,1.7,0.5,3.4,1.3,5c0.9,1.5,2.8,2.5,4.4,1.8c3-1.2,2.2-6.6,5.2-8c2.7-1.2,5.3,2.1,8.3,2.4
	c2.7,0.3,5-1.9,7.2-3.5c1.3-0.9,2.7-1.7,4.2-2.2c9.2-3.3,19.4,1.4,22.7,10.6c1.7,4.8,1.4,10.2,3.5,14.9
	C375.3,136,375.5,132.9,377.5,131.5z"/>
<path class="st6" d="M329.5,246.7l-47,4l-37-33l12-2c12-2,34,12,34,12c9-12,53-25,53-25l3,6L329.5,246.7z"/>
<path class="st2" d="M294.5,232.7c-8-4-12,4-12,4l-37-19l37,53l39.2,18c4.2,3,9.8,0,9.8,0l59-29l-41-57L294.5,232.7z"/>
<path class="st4" d="M291.5,280.7c0,0-11-43-21-32c-10,11,8,34,8,34l8,21L291.5,280.7z"/>
<path class="st4" d="M371.6,278c0,0-31.1-31.7-34.2-17.1c-3.1,14.5,24,25.4,24,25.4l17.5,14.2L371.6,278z"/>
<path class="st0" d="M409.5,274.7c0.5,2.6-7.5,0.1-16.5-0.5c-8.4-0.5-17.6,1-21,1c-7,0,12,29,12,29s18.5,15.5,44.5,12.5
	s16-86,13-111s-18.5-6.5-18.5-6.5h-1C394,206.2,408.5,269.7,409.5,274.7z"/>
<path class="st3" d="M414.5,274.7c1,5-35,0-42,0s0,38,0,38s35,7,61,4s16-86,13-111s-19-28-19-28l-4,2
	C395.5,186.7,413.5,269.7,414.5,274.7z"/>
<polygon class="st3" points="301,311.2 283,303.2 290,275.3 301,292.2 "/>
</svg>
