<?xml version="1.0" encoding="utf-8"?>
<!-- Generator: Adobe Illustrator 26.0.1, SVG Export Plug-In . SVG Version: 6.00 Build 0)  -->
<svg version="1.1" xmlns="http://www.w3.org/2000/svg" xmlns:xlink="http://www.w3.org/1999/xlink" x="0px" y="0px"
	 viewBox="0 0 669.2 511.6" style="enable-background:new 0 0 669.2 511.6;" xml:space="preserve">
<style type="text/css">
	.st0{fill:#28374E;}
</style>
<g id="Layer_1">
	<path id="Path_654" class="st0" d="M171.7,284.6l-14-13l13-13.9l13.9,13L171.7,284.6z M155.3,271.7l16.5,15.4l15.4-16.5l-16.5-15.4
		L155.3,271.7z"/>
	<path id="Path_655" class="st0" d="M485.4,390h-19.1v-19.1h19.1V390z M487.2,369.2h-22.5v22.5h22.5V369.2z"/>
	<path class="st0" d="M375.1,156.3C375.1,156.3,375.1,156.3,375.1,156.3c0-7.6,6.1-13.7,13.7-13.7c7.6,0,13.7,6.1,13.7,13.7
		c0,7.6-6.1,13.7-13.7,13.7C381.2,170,375.1,163.9,375.1,156.3z M377.4,156.3c0,6.3,5.1,11.4,11.4,11.4s11.4-5.1,11.4-11.4
		s-5.1-11.4-11.4-11.4C382.5,144.9,377.4,150,377.4,156.3z"/>
</g>
<g id="Group_282">
</g>
</svg>
