<?xml version="1.0" encoding="utf-8"?>
<!-- Generator: Adobe Illustrator 26.0.1, SVG Export Plug-In . SVG Version: 6.00 Build 0)  -->
<svg version="1.1" xmlns="http://www.w3.org/2000/svg" xmlns:xlink="http://www.w3.org/1999/xlink" x="0px" y="0px"
	 viewBox="0 0 669.2 511.6" style="enable-background:new 0 0 669.2 511.6;" xml:space="preserve">
<style type="text/css">
	.st0{fill:#28374E;}
</style>
<g id="Layer_1">
	<path id="Path_654" class="st0" d="M457.7,270.7l13.9-13l13,13.9l-14,13L457.7,270.7z M471.8,255.2l-16.5,15.4l15.4,16.5l16.5-15.4
		L471.8,255.2z"/>
	<path id="Path_655" class="st0" d="M157,370.9h19.1V390H157V370.9z M155.3,391.7h22.5v-22.5h-22.5V391.7z"/>
	<path class="st0" d="M253.7,170c-7.6,0-13.7-6.1-13.7-13.7c0-7.6,6.1-13.7,13.7-13.7c7.6,0,13.7,6.1,13.7,13.7c0,0,0,0,0,0
		C267.4,163.9,261.2,170,253.7,170z M253.7,144.9c-6.3,0-11.4,5.1-11.4,11.4s5.1,11.4,11.4,11.4s11.4-5.1,11.4-11.4
		C265.1,150,260,144.9,253.7,144.9z"/>
</g>
<g id="Group_282">
</g>
</svg>
