<?xml version="1.0" encoding="utf-8"?>
<!-- Generator: Adobe Illustrator 26.0.1, SVG Export Plug-In . SVG Version: 6.00 Build 0)  -->
<svg version="1.1" id="Layer_1" xmlns="http://www.w3.org/2000/svg" xmlns:xlink="http://www.w3.org/1999/xlink" x="0px" y="0px"
	 viewBox="0 0 669.2 511.6" style="enable-background:new 0 0 669.2 511.6;" xml:space="preserve">
<style type="text/css">
	.st0{fill:#FFFFFF;}
	.st1{fill:#CCCCCC;}
	.st2{fill:#F2F2F2;}
	.st3{fill:#3F3D56;}
	.st4{fill:#FF6582;}
	.st5{fill:#3FA9F5;}
	.st6{fill:#E6E6E6;}
</style>
<path class="st0" d="M465.8,258.5v0.7c-1.4-1.6-2.8-3.3-4.2-4.9c-0.6-0.7-1.2-1.4-1.8-2c-2.5-2.9-5.1-5.7-7.6-8.6
	c-2.6-2.8-5.1-5.7-7.7-8.5c-0.6-0.7-1.2-1.4-1.9-2c-0.5-0.6-1.1-1.1-1.7-1.6c-0.6-0.5-1.3-0.9-2-1.1c-0.9-0.2-1.7-0.2-2.6,0
	c-1,0.2-1.9,0.6-2.9,0.9c-1,0.3-1.9,0.6-2.9,0.9c-2,0.6-3.9,1.3-5.8,1.9c-0.1,0-0.2,0-0.3-0.1v0l0,0c0-0.1,0-0.2,0.1-0.3
	c0,0,0,0,0,0c0.5-0.2,1-0.3,1.5-0.5c2-0.7,3.9-1.3,5.9-1.9c1-0.3,2-0.6,2.9-0.9c0.9-0.3,1.9-0.5,2.8-0.6c1.6,0.1,3.1,0.8,4.2,2
	c0.6,0.6,1.2,1.2,1.7,1.8c0.7,0.7,1.3,1.4,2,2.1c2.6,2.9,5.2,5.7,7.8,8.6c2.6,2.9,5.2,5.8,7.7,8.7c0.2,0.2,0.4,0.4,0.6,0.6
	C463,255.2,464.4,256.8,465.8,258.5z"/>
<path class="st0" d="M440.7,234.1c-0.5-0.7-1.2-1.2-2.1-1.5l-0.8,0c6.3,9.8,14.6,18.3,24.3,24.8C455,249.6,447.8,241.9,440.7,234.1z
	"/>
<path class="st1" d="M572.6,336.3l-32.1-171.8c-1.1-5.8-6.1-10.1-12.1-10.3c-0.3,0-0.5,0-0.8,0l-21.9,0.8l-2.4,0.1l-10.9,0.4
	l-2.4,0.1l-7,0.3l-141.5,5.1c-0.2,0-0.4,0-0.6,0l-31.7-0.7l-11.7-0.2l-0.4,0l-8.7-0.2l-75.5-1.6l-20-0.4l-9.9-0.2l-2.4-0.1
	l-11.2-0.2l-2.4-0.1l-11.5-0.2l-2.4-0.1l-12.6-0.3l-2,0l-11.3-0.2l-1.8,0h-0.3c-6.2,0-11.4,4.5-12.5,10.6l-29,178.3
	c-1.1,6.9,3.5,13.4,10.4,14.5c0.7,0.1,1.4,0.2,2,0.2h166.7c2.5,0,4.8,0.8,6.8,2.2l3.2,2.3c2.2,1.6,4.8,2.5,7.5,2.5
	c32.2-8.5,66-8.5,98.2,0c3.4,0,6.6-1.3,8.9-3.7c2-2,4.7-3.2,7.5-3.3l165.7-8.7c7-0.4,12.3-6.3,11.9-13.3
	C572.8,337.4,572.7,336.9,572.6,336.3L572.6,336.3z"/>
<path class="st2" d="M527.2,309.6c-0.4,12.1-10.6,21.6-22.7,21.2c-9.6-0.3-21.1-0.5-33.6-0.2c-40.7,0.9-91.8,6.5-122.6,26.6
	c-3.9,2.5-8.4,3.8-13,3.6c-0.3,0-0.7,0-1-0.1c-4.8-0.4-9.3-2.4-12.8-5.7c-16.9-15.5-55.8-34.3-144.7-35.6c-0.4,0-0.7,0-1.1,0
	c-12.1-0.8-21.3-11.2-20.5-23.3c0,0,0,0,0,0l8.7-138.7l1.3-20.8l2.3-36.4c0.5-7.6,6.8-13.5,14.4-13.5h0.1l53,0.3
	c22.3,1,40.8,3.9,55.5,8.5c5,1.6,9.9,3.5,14.6,5.9c6.4,3.1,12.1,7.4,16.9,12.6c3,3.4,7.1,5.6,11.5,6.2c0.7,0.1,1.4,0.2,2.1,0.2
	c4.1,0.2,8.1-1,11.5-3.3C381.6,93.8,452.1,92,491.1,93c11.3,0.3,20.5,9.1,21.4,20.3L514,134l1.6,20.6l9.1,119.2l2.5,33.2
	C527.2,307.9,527.2,308.7,527.2,309.6z"/>
<path class="st3" d="M189.9,135.4c31.9-10.2,67.5-7.5,97.8,6.9c8.6,4.1,16.8,9.1,24.3,15c2.1,1.7,5.2-1.3,3-3
	c-27.8-21.5-62.7-31.8-97.7-28.7c-9.7,0.9-19.3,2.8-28.5,5.7C186.2,132.1,187.3,136.2,189.9,135.4L189.9,135.4z"/>
<path class="st3" d="M365.6,158.8c29.7-15.6,65.2-19,97.5-10.1c9.2,2.5,18.1,6.1,26.5,10.5c2.4,1.3,4.6-2.4,2.1-3.7
	c-30.8-16.4-67.7-20.2-101.3-11c-9.4,2.6-18.4,6.1-27,10.6C361,156.4,363.2,160.1,365.6,158.8z"/>
<path class="st3" d="M365.6,187.2c29.7-15.6,65.2-19,97.5-10.1c9.2,2.5,18.1,6.1,26.5,10.5c2.4,1.3,4.6-2.4,2.1-3.7
	c-30.8-16.4-67.7-20.2-101.3-11c-9.4,2.6-18.4,6.1-27,10.6C361,184.8,363.2,188.4,365.6,187.2L365.6,187.2z"/>
<path class="st3" d="M492.8,214c0-0.7-0.4-1.4-1-1.8c-24.6-12.9-52.6-18.1-80.2-15c-0.2,0-0.3,0-0.5,0.1h0c-0.2,0-0.3,0-0.5,0.1
	c-16.4,1.9-32.4,6.8-47,14.5c-0.6,0.4-1,1.1-1,1.8v52.8c0,1.2,1,2.1,2.2,2.1c0.2,0,0.3,0,0.5-0.1c0.7-0.2,1.3-0.4,2-0.5
	c14.8-4,30-6.4,45.3-7.1c0.3,0,0.7,0,1,0c12.5-0.5,25-0.1,37.4,1.3c0.3,0,0.5,0,0.8,0.1c0.6,0.1,1.3,0.1,1.9,0.2
	c0.3,0,0.5,0.1,0.7,0.1c2.5,0.3,4.9,0.7,7.4,1c3.6,0.6,7.1,1.2,10.7,1.9c0.2,0,0.5,0.1,0.7,0.1c5.7,1.1,11.4,2.5,17.1,3.9
	c1.2,0.3,2.3-0.4,2.6-1.5c0-0.2,0.1-0.3,0.1-0.5L492.8,214C492.8,214,492.8,214,492.8,214z"/>
<path class="st4" d="M414.8,200.1c-1.6-0.8-3.3-0.9-5-0.4c-1.5,0.6-2.7,1.7-3.3,3.1c-0.6,1.4-0.9,2.8-1.1,4.3
	c-0.1,0.6-0.1,1.3,0.5,1.6c0.4,0.2,0.9,0.1,1.3-0.2c0.3-0.3,0.6-0.6,0.7-1c2.1-3.2,5.6-5.2,9.5-5.2l1.6,0.6
	C417.7,201.7,416.3,200.8,414.8,200.1z"/>
<path class="st0" d="M431.8,212.2c-1.2-1.8-2.7-3.7-4.9-4.3c-2.6-0.7-5.3,0.7-7.6,2c-6.8,3.9-13.3,8.3-19.7,12.9l0,0.1l14.7-0.9
	c3.5-0.2,7.2-0.5,10.3-2c1.1-0.7,2.4-1.2,3.7-1.4c1.6,0.1,3.2,0.8,4.3,2.1c6.8,6.4,8.7,16.2,16.3,21.8
	C444.1,232,438.4,221.9,431.8,212.2z"/>
<path class="st0" d="M413.4,260.9c-0.3,0-0.7,0-1,0c-2.4-0.8-4.8-1.6-7.2-2.3c-1.6-0.4-3.2-0.8-4.8-1.1c-1.8-0.4-3.7-0.7-5.5-1
	c-3.5-0.5-7-0.8-10.6-0.9c-0.1,0-0.2-0.1-0.2-0.2c0-0.1,0.1-0.2,0.2-0.2c0,0,0,0,0,0c0.5,0,0.9,0,1.3,0c3.5,0.1,7.1,0.5,10.6,1
	c1.8,0.3,3.7,0.7,5.5,1c1.6,0.4,3.3,0.8,4.9,1.2C408.9,259.3,411.2,260,413.4,260.9z"/>
<path class="st0" d="M454.2,262.6c-0.2,0-0.5-0.1-0.7-0.1c-1-0.8-2-1.6-3-2.3c-1.3-0.9-2.6-1.8-4-2.6c-3-1.8-6.2-3.4-9.4-4.8
	c-5.1-2.1-10.5-3.8-15.9-5c-6.2-1.4-12.5-2.3-18.8-2.9c-6.3-0.7-12.7-1-19-1.4c-0.3,0-0.3-0.4,0-0.4c0.8,0.1,1.6,0.1,2.4,0.2
	c6.4,0.4,12.8,0.9,19.2,1.6c6.3,0.7,12.6,1.8,18.8,3.3c5.3,1.3,10.4,3.1,15.4,5.3c2.9,1.3,5.6,2.8,8.3,4.4c1.7,1.1,3.3,2.2,4.9,3.4
	C453,261.6,453.6,262.1,454.2,262.6z"/>
<path class="st0" d="M451.6,262.3c-0.3,0-0.5-0.1-0.8-0.1c-0.3-0.2-0.6-0.5-0.9-0.7c-2.2-1.6-4.5-3-6.8-4.3
	c-2.1-1.2-4.3-2.2-6.6-3.2c-5.1-2.1-10.5-3.8-15.9-5c-6.2-1.4-12.5-2.3-18.8-2.9c-6.3-0.7-12.7-1-19-1.4c-0.3,0-0.3-0.4,0-0.4
	c0.8,0.1,1.6,0.1,2.4,0.2c6.4,0.4,12.8,0.8,19.2,1.6c6.3,0.7,12.6,1.8,18.8,3.3c5.3,1.3,10.4,3.1,15.4,5.3c1.9,0.8,3.7,1.8,5.5,2.8
	C446.7,258.8,449.2,260.4,451.6,262.3z"/>
<path class="st0" d="M473,265.7c-0.2,0-0.5-0.1-0.7-0.1c-0.3-0.3-0.5-0.6-0.7-0.8c-1.2-1.4-2.4-2.8-3.6-4.2
	c-4.7-5.6-9.1-11.3-13.3-17.2c-3.6-5-7-10.1-10.2-15.3c-1.5-2.5-3-5-4.5-7.5c-1.1-2-2.2-3.9-3.3-5.9c-0.3-0.6-0.6-1.1-0.9-1.7
	c-0.7-1.3-1.4-2.7-2.1-4c-0.8-1.6-2-3-3.4-4.1c-0.7-0.5-1.6-0.8-2.4-0.8c-1.2,0-2.4,0.3-3.5,0.9c-7.9,3.7-15.4,8.3-22.3,13.7
	c-6.7,5.2-12.8,11.2-18.1,17.9c-0.2,0.2-0.5,0-0.4-0.2c0.6-0.8,1.3-1.6,1.9-2.4c5.1-6,10.8-11.5,17.1-16.3c0,0,0,0,0.1,0
	c0.6-0.4,1.1-0.9,1.7-1.3c3.5-2.6,7.2-5,10.9-7.1c1.9-1.1,3.9-2.2,5.9-3.2c0.5-0.3,1-0.5,1.5-0.8c0.5-0.3,1-0.5,1.5-0.7
	c1-0.5,2.1-0.8,3.2-0.9c3.9-0.1,6,3.9,7.4,6.6c0.4,0.8,0.9,1.7,1.3,2.5c1.7,3.2,3.5,6.3,5.3,9.4c1.1,1.9,2.3,3.8,3.5,5.7
	c1.7,2.7,3.4,5.4,5.2,8c0,0,0,0,0,0l0,0h0c2.1,3.1,4.2,6.2,6.5,9.3c3.8,5.3,7.9,10.4,12.1,15.4C470.1,262.3,471.5,264,473,265.7z"/>
<path class="st4" d="M422.5,203.2l-0.4,0.2c-1.8-3.1-5.1-5-8.6-5.2c-5.8-0.4-10.9,3.5-11.4,8.6c-0.2,2.1,0.4,4.2,1.7,5.9l-0.4,0.2
	c-1.4-1.8-2-4-1.8-6.2c0.5-5.4,5.8-9.4,11.8-9C417.2,197.9,420.6,199.9,422.5,203.2z"/>
<path class="st0" d="M393.8,213.6c-3.1-1.3-6.6-1.1-9.5,0.6c5.2,0.8,10.4,1.9,15.5,3.2C397.7,216.3,396,214.6,393.8,213.6z"/>
<path class="st0" d="M384.3,214.2l-0.6,0.4C383.9,214.5,384.1,214.3,384.3,214.2L384.3,214.2z"/>
<path class="st0" d="M401.5,216.6c-0.2-0.2-0.5-0.5-0.7-0.7c-1.8-1.9-3.9-3.5-6.2-4.6c-1.2-0.5-2.5-0.8-3.8-0.8
	c-1.3,0-2.7,0.3-3.9,0.8c-0.6,0.2-1.2,0.5-1.7,0.7c-0.7,0.3-1.3,0.6-1.9,0.9c-1.2,0.6-2.4,1.2-3.6,1.8c-2.3,1.3-4.6,2.7-6.8,4.1
	c-1.1,0.8-2.2,1.6-3.3,2.4c-1,0.8-2,1.5-3,2.3c-0.2,0.2-0.5-0.1-0.3-0.3c0.3-0.2,0.5-0.4,0.8-0.6c0.7-0.6,1.5-1.2,2.2-1.7
	c1.4-1,2.8-2,4.2-3c2.2-1.5,4.6-2.9,7-4.1c1.2-0.6,2.4-1.2,3.6-1.8c0.4-0.2,0.7-0.3,1.1-0.5c0.9-0.4,1.8-0.7,2.7-1
	c1.3-0.4,2.7-0.5,4-0.4c1.3,0.2,2.6,0.6,3.7,1.1c2.3,1.3,4.4,3,6.2,4.9C402,216.5,401.7,216.8,401.5,216.6z"/>
<path class="st3" d="M189.9,163.7c31.9-10.2,67.5-7.5,97.8,6.9c8.6,4.1,16.8,9.1,24.3,15c2.1,1.7,5.2-1.3,3-3
	c-27.8-21.5-62.7-31.8-97.7-28.7c-9.7,0.9-19.3,2.8-28.5,5.7C186.2,160.4,187.3,164.5,189.9,163.7L189.9,163.7z"/>
<path class="st3" d="M189.9,192c31.9-10.2,67.5-7.5,97.8,6.9c8.6,4.1,16.8,9.1,24.3,15c2.1,1.7,5.2-1.3,3-3
	c-27.8-21.5-62.7-31.8-97.7-28.7c-9.7,0.9-19.3,2.8-28.5,5.7C186.2,188.7,187.3,192.8,189.9,192L189.9,192z"/>
<path class="st3" d="M189.9,220.3c31.9-10.2,67.5-7.5,97.8,6.9c8.6,4.1,16.8,9.1,24.3,15c2.1,1.7,5.2-1.3,3-3
	c-27.8-21.5-62.7-31.8-97.7-28.7c-9.7,0.9-19.3,2.8-28.5,5.7C186.2,217.1,187.3,221.2,189.9,220.3L189.9,220.3z"/>
<path class="st3" d="M189.9,248.7c31.9-10.2,67.5-7.5,97.8,6.9c8.6,4.1,16.8,9.1,24.3,15c2.1,1.7,5.2-1.3,3-3
	c-27.8-21.5-62.7-31.8-97.7-28.7c-9.7,0.9-19.3,2.8-28.5,5.7C186.2,245.4,187.3,249.5,189.9,248.7L189.9,248.7z"/>
<path class="st3" d="M189.9,277c31.9-10.2,67.5-7.5,97.8,6.9c8.6,4.1,16.8,9.1,24.3,15c2.1,1.7,5.2-1.3,3-3
	c-27.8-21.5-62.7-31.8-97.7-28.7c-9.7,0.9-19.3,2.8-28.5,5.7C186.2,273.7,187.3,277.8,189.9,277L189.9,277z"/>
<path class="st5" d="M304.9,101.2v67.9c0,1.4-2.4,2.5-5.5,2.8c0,0-0.1,0-0.1,0c-0.5,0-1.1,0.1-1.7,0.1c-1.8,0-3.5-0.3-5.1-0.8
	c-0.1-0.1-0.3-0.1-0.5-0.2c-0.1-0.1-0.3-0.1-0.4-0.2c-0.8-0.5-1.2-1-1.2-1.6V95.4C295.4,96.9,300.2,98.9,304.9,101.2z"/>
<rect x="333.4" y="117" class="st6" width="2.1" height="242.2"/>
</svg>
