<?xml version="1.0" encoding="utf-8"?>
<!-- Generator: Adobe Illustrator 26.0.1, SVG Export Plug-In . SVG Version: 6.00 Build 0)  -->
<svg version="1.1" id="Layer_1" xmlns="http://www.w3.org/2000/svg" xmlns:xlink="http://www.w3.org/1999/xlink" x="0px" y="0px"
	 viewBox="0 0 669.2 511.6" style="enable-background:new 0 0 669.2 511.6;" xml:space="preserve">
<style type="text/css">
	.st0{clip-path:url(#SVGID_00000110436667574221367080000017225158934417327027_);}
	.st1{fill:#FF6584;}
	.st2{clip-path:url(#SVGID_00000093881883640876506890000005624074659427301773_);}
	.st3{fill:#F2F2F2;}
	.st4{fill:#3F3D56;}
	.st5{clip-path:url(#SVGID_00000150063365420034852980000001132357502420261283_);}
</style>
<g id="Group_266" transform="translate(64.414 14.368)">
	<g>
		<defs>
			<rect id="SVGID_1_" x="196.3" y="98.1" width="142.9" height="142.9"/>
		</defs>
		<clipPath id="SVGID_00000038410076595978239990000004659061601204748712_">
			<use xlink:href="#SVGID_1_"  style="overflow:visible;"/>
		</clipPath>
		<g id="Group_265" style="clip-path:url(#SVGID_00000038410076595978239990000004659061601204748712_);">
			<path id="Path_786" class="st1" d="M267.9,98.1c39.5,0,71.6,32.1,71.6,71.6s-32.1,71.6-71.6,71.6s-71.6-32.1-71.6-71.6
				c0,0,0,0,0,0C196.3,130.1,228.4,98.1,267.9,98.1"/>
		</g>
	</g>
</g>
<g id="Group_263" transform="translate(98.414)">
	<g>
		<defs>
			<rect id="SVGID_00000065778051350428886330000017977030099480562875_" x="212.9" y="91.1" width="193" height="329.5"/>
		</defs>
		<clipPath id="SVGID_00000050655574967419101960000001469227124126161548_">
			<use xlink:href="#SVGID_00000065778051350428886330000017977030099480562875_"  style="overflow:visible;"/>
		</clipPath>
		<g id="Group_262" style="clip-path:url(#SVGID_00000050655574967419101960000001469227124126161548_);">
			<path id="Path_784" class="st3" d="M405.9,256.2c0,72.7-43.2,98.1-96.5,98.1s-96.5-25.4-96.5-98.1s96.5-165.1,96.5-165.1
				S405.9,183.5,405.9,256.2"/>
			<path id="Path_785" class="st4" d="M305.9,343.1l1-60.8l41.1-75.2l-41,65.7l0.4-27.3l28.3-54.4l-28.2,47.2l0.8-49.2l30.4-43.3
				l-30.2,35.6l0.5-90.2l-3.1,119.4l0.3-4.9l-30.9-47.2l30.4,56.7l-2.9,54.9l-0.1-1.5l-35.6-49.7l35.5,54.9l-0.4,6.9l-0.1,0.1l0,0.6
				l-7.3,139.4h9.7l1.2-72l35.4-54.7L305.9,343.1z"/>
		</g>
	</g>
</g>
<g id="Group_264" transform="translate(0 76.56)">
	<g>
		<defs>
			<rect id="SVGID_00000178178284174503311300000001377744974708110215_" x="164.8" y="128.5" width="126.3" height="215.5"/>
		</defs>
		<clipPath id="SVGID_00000132776366261242460850000015623621494004620426_">
			<use xlink:href="#SVGID_00000178178284174503311300000001377744974708110215_"  style="overflow:visible;"/>
		</clipPath>
		<g id="Group_262-2" style="clip-path:url(#SVGID_00000132776366261242460850000015623621494004620426_);">
			<path id="Path_784-2" class="st3" d="M291.1,236.5c0,47.5-28.3,64.1-63.1,64.1s-63.1-16.6-63.1-64.1s63.1-108,63.1-108
				S291.1,188.9,291.1,236.5"/>
			<path id="Path_785-2" class="st4" d="M225.7,293.4l0.6-39.8l26.9-49.2l-26.8,43l0.3-17.9l18.5-35.6l-18.5,30.9l0.5-32.2
				l19.9-28.4l-19.8,23.3l0.3-59l-2.1,78.1l0.2-3.2l-20.2-30.9l19.9,37.1l-1.9,35.9l-0.1-1L200.3,212l23.2,35.9l-0.2,4.5l0,0.1
				l0,0.4l-4.8,91.2h6.4l0.8-47.1l23.1-35.8L225.7,293.4z"/>
		</g>
	</g>
</g>
</svg>
