<?xml version="1.0" encoding="utf-8"?>
<!-- Generator: Adobe Illustrator 26.0.1, SVG Export Plug-In . SVG Version: 6.00 Build 0)  -->
<svg version="1.1" xmlns="http://www.w3.org/2000/svg" xmlns:xlink="http://www.w3.org/1999/xlink" x="0px" y="0px"
	 viewBox="0 0 669.2 511.6" style="enable-background:new 0 0 669.2 511.6;" xml:space="preserve">
<style type="text/css">
	.st0{clip-path:url(#SVGID_00000140010947275282717860000001732308312816941697_);}
	.st1{clip-path:url(#SVGID_00000175281192538224309220000005579743502614673051_);fill:#E6E6E6;}
	.st2{clip-path:url(#SVGID_00000175281192538224309220000005579743502614673051_);fill:#FFFFFF;}
	.st3{clip-path:url(#SVGID_00000175281192538224309220000005579743502614673051_);fill:#3FA9F5;}
	.st4{clip-path:url(#SVGID_00000175281192538224309220000005579743502614673051_);fill:#A0616A;}
	.st5{clip-path:url(#SVGID_00000175281192538224309220000005579743502614673051_);fill:#2F2E41;}
	.st6{opacity:0.2;clip-path:url(#SVGID_00000175281192538224309220000005579743502614673051_);}
	.st7{clip-path:url(#SVGID_00000024714319436762462450000005692699154608934330_);}
	.st8{clip-path:url(#SVGID_00000175281192538224309220000005579743502614673051_);fill:#3F3D56;}
	.st9{clip-path:url(#SVGID_00000175281192538224309220000005579743502614673051_);fill:#F2F2F2;}
	.st10{clip-path:url(#SVGID_00000175281192538224309220000005579743502614673051_);fill:#B3B3B3;}
</style>
<g id="Layer_1">
</g>
<g id="Group_282">
</g>
<g id="Group_160">
</g>
<g id="Group_152">
	<g>
		<defs>
			<rect id="SVGID_1_" x="31.3" y="71.6" width="541.7" height="375.5"/>
		</defs>
		<clipPath id="SVGID_00000158728838712450432950000007170997394658687636_">
			<use xlink:href="#SVGID_1_"  style="overflow:visible;"/>
		</clipPath>
		<g style="clip-path:url(#SVGID_00000158728838712450432950000007170997394658687636_);">
			<defs>
				<rect id="SVGID_00000009576379015177837510000015962791488018650258_" x="31.3" y="71.6" width="541.7" height="375.5"/>
			</defs>
			<clipPath id="SVGID_00000155138344208921367260000005312119633040843155_">
				<use xlink:href="#SVGID_00000009576379015177837510000015962791488018650258_"  style="overflow:visible;"/>
			</clipPath>
			<path id="Path_603" style="clip-path:url(#SVGID_00000155138344208921367260000005312119633040843155_);fill:#E6E6E6;" d="
				M94.4,396.9c0,0-68.9-31.7-44.7-53.7S94.4,396.9,94.4,396.9"/>
			<path id="Path_604" style="clip-path:url(#SVGID_00000155138344208921367260000005312119633040843155_);fill:#E6E6E6;" d="
				M93.2,404.3c0,0-31.7-104,15-99.1S93.2,404.3,93.2,404.3"/>
			<path id="Path_605" style="clip-path:url(#SVGID_00000155138344208921367260000005312119633040843155_);fill:#E6E6E6;" d="
				M70.1,395.1l1.3,17.4l0,0.3c0,2.7,0.1,5.4,0.4,8.1c1.8,17.8,9.6,25.8,18.6,25.8s16.5-8.1,18.3-25.8c0.3-2.7,0.4-5.4,0.4-8.1
				l0-0.2l0-0.1l1.3-17.4L70.1,395.1z"/>
			<path id="Path_606" style="clip-path:url(#SVGID_00000155138344208921367260000005312119633040843155_);fill:#FFFFFF;" d="
				M109.2,412.5L109.2,412.5l0,0.3c0,2.7-0.1,5.4-0.4,8.1H71.9c-0.3-2.7-0.4-5.4-0.4-8.1l0-0.3H109.2z"/>
			<path id="Path_607" style="clip-path:url(#SVGID_00000155138344208921367260000005312119633040843155_);fill:#E6E6E6;" d="
				M543.7,407.5c0,0-53.3-24.6-34.6-41.6C527.9,348.9,543.7,407.5,543.7,407.5"/>
			<path id="Path_608" style="clip-path:url(#SVGID_00000155138344208921367260000005312119633040843155_);fill:#E6E6E6;" d="
				M542.8,413.3c0,0-24.5-80.6,11.6-76.7S542.8,413.3,542.8,413.3"/>
			<path id="Path_609" style="clip-path:url(#SVGID_00000155138344208921367260000005312119633040843155_);fill:#E6E6E6;" d="
				M524.9,406.1l1,13.5l0,0.2c0,2.1,0.1,4.2,0.3,6.3c1.4,13.7,7.4,20,14.4,20s12.8-6.3,14.2-20c0.2-2.1,0.3-4.2,0.3-6.3l0-0.2v0
				l1-13.5H524.9z"/>
			<path id="Path_610" style="clip-path:url(#SVGID_00000155138344208921367260000005312119633040843155_);fill:#FFFFFF;" d="
				M555.2,419.6L555.2,419.6l0,0.2c0,2.1-0.1,4.2-0.3,6.3h-28.6c-0.2-2.1-0.3-4.2-0.3-6.3l0-0.2H555.2z"/>
			<path id="Path_611" style="clip-path:url(#SVGID_00000155138344208921367260000005312119633040843155_);fill:#E6E6E6;" d="
				M210.8,183.6v-23.7h-3.7v23.7c-2.5,1-3.7,3.9-2.7,6.4s3.9,3.7,6.4,2.7s3.7-3.9,2.7-6.4C213.1,185,212.1,184.1,210.8,183.6"/>
			<path id="Path_612" style="clip-path:url(#SVGID_00000155138344208921367260000005312119633040843155_);fill:#E6E6E6;" d="
				M219.4,422.4h-25.2V116.9h-9.8v305.5h-25.2c-12.5,0-22.7,10.2-22.7,22.7l0,0h105.5C242.1,432.6,232,422.5,219.4,422.4z"/>
			<path id="Path_613" style="clip-path:url(#SVGID_00000155138344208921367260000005312119633040843155_);fill:#3FA9F5;" d="
				M136.7,162.3h105.4l-6.4-80.6c-0.5-5.8-5.3-10.2-11.1-10.2h-70.4c-5.8,0-10.6,4.5-11.1,10.2L136.7,162.3z"/>
			<path id="Path_614" style="clip-path:url(#SVGID_00000155138344208921367260000005312119633040843155_);fill:#A0616A;" d="
				M283.4,303.8L283.4,303.8c-4.1-0.7-8,2.1-8.7,6.2c0,0,0,0.1,0,0.1l-3,19.5l10.1,2.7l7.4-18.1c1.6-3.9-0.3-8.3-4.2-9.9
				C284.5,304,284,303.9,283.4,303.8"/>
			<path id="Path_615" style="clip-path:url(#SVGID_00000155138344208921367260000005312119633040843155_);fill:#3FA9F5;" d="
				M283.2,329.5c5.6,22.3,3.2,42.6-17.7,58.6c-25-6.9-41.7-23.5-51.8-47.7c-2.6-6.1,0.3-13.2,6.5-15.8c0,0,0,0,0,0
				c0.2-0.1,0.3-0.1,0.5-0.2c4.7-1.7,10-0.4,13.3,3.4l24.6,28.3l11.5-28.6L283.2,329.5z"/>
			<path id="Path_616" style="clip-path:url(#SVGID_00000155138344208921367260000005312119633040843155_);fill:#E6E6E6;" d="
				M411.5,446.4c-22.9-1.2-37-9.1-40.5-25.2l3.7-6.7l42.1,19.2c3,1.3,4.3,4.8,2.9,7.8c-0.7,1.4-1.9,2.5-3.3,3.1L411.5,446.4z"/>
			<path id="Path_617" style="clip-path:url(#SVGID_00000155138344208921367260000005312119633040843155_);fill:#E6E6E6;" d="
				M393.8,446.5c-11.9-0.4-23.3-0.2-34.1,0.5c-4,0.3-7.4-2.7-7.7-6.6l-0.7-8.1l-9.2-14.7l8-8c13.4,13.3,28.1,24.6,45.6,31.2
				c1.4,1,1.8,2.9,0.8,4.4C395.9,446.1,394.9,446.6,393.8,446.5"/>
			<path id="Path_618" style="clip-path:url(#SVGID_00000155138344208921367260000005312119633040843155_);fill:#2F2E41;" d="
				M329.3,388.7c-15.2,27.1-30.1,45.4-49.7,55.2c-24.1,8-41.8-2.6-55.5-24.2l39.9-26.4l5.8,5.8l52.8-40.2c2.7-2.5,6.9-2.4,9.5,0.2
				l45.1,55.3l-5.5,9.2L329.3,388.7z"/>
			<path id="Path_619" style="clip-path:url(#SVGID_00000155138344208921367260000005312119633040843155_);fill:#2F2E41;" d="
				M342.8,420.6l-20.9-31.9l4.9-9.2l27.6,28.8L342.8,420.6z"/>
			<path id="Path_620" style="clip-path:url(#SVGID_00000155138344208921367260000005312119633040843155_);fill:#A0616A;" d="
				M222.5,277.1c11.5,0,20.9,9.3,20.9,20.9s-9.3,20.9-20.9,20.9s-20.9-9.3-20.9-20.9C201.7,286.4,211,277.1,222.5,277.1
				C222.5,277.1,222.5,277.1,222.5,277.1"/>
			<path id="Path_621" style="clip-path:url(#SVGID_00000155138344208921367260000005312119633040843155_);fill:#A0616A;" d="
				M228.1,336.6l-23.3-8c3.4-5.5,5-12,4.3-18.4h19C226.9,319,226.9,327.8,228.1,336.6"/>
			<path id="Path_622" style="clip-path:url(#SVGID_00000155138344208921367260000005312119633040843155_);fill:#3FA9F5;" d="
				M277.8,392.4c-3.5,1.4-3.8,6.1-7.1,7.7c-16,7.6-32.9,13.8-44.5,24.8c-27.1-18.4-52.2-75.6-19.6-100.6c11.1,6.5,21.1,11.2,20.9,0
				L277.8,392.4z"/>
			
				<g id="Group_148" transform="translate(164.786 270.96)" style="opacity:0.2;clip-path:url(#SVGID_00000155138344208921367260000005312119633040843155_);">
				<g id="Group_147">
					<g>
						<defs>
							<rect id="SVGID_00000124128893636372142550000015717940620514183328_" x="31.3" y="71.6" width="67.6" height="76.9"/>
						</defs>
						<clipPath id="SVGID_00000085942152270525793190000016189415182954288807_">
							<use xlink:href="#SVGID_00000124128893636372142550000015717940620514183328_"  style="overflow:visible;"/>
						</clipPath>
						<g id="Group_146" style="clip-path:url(#SVGID_00000085942152270525793190000016189415182954288807_);">
							<path id="Path_623" d="M98.9,96.9l-11.3-4l-22.4,17.5l-10-36.1c-0.7-2.5-1.8-1.2-3.4,0.5c-4.9-4.5-12.5-4.2-17,0.7
								c-1.9,2.1-3.1,4.8-3.2,7.7c-1.2,26.2,6.7,48.4,26.4,65.3c25.7-5.5,36.6-22.9,41.1-45.4l-1.2-0.8
								C98.1,100.5,98.5,98.7,98.9,96.9"/>
						</g>
					</g>
				</g>
			</g>
			<path id="Path_624" style="clip-path:url(#SVGID_00000155138344208921367260000005312119633040843155_);fill:#2F2E41;" d="
				M225.4,270.5c6.9,1.6,14.7,3.8,15.1,5.9c7.1,1.8,12.4,6.1,13.5,12.6c0.3,2.1-1.1,4.1-3.2,4.5c-0.2,0-0.5,0.1-0.7,0
				c-3.8,0-9.6-0.4-13.4-2c-11.1,7.1-12.9,25.7-8.1,38.4l-7.6-0.7l-7.9-23.1l-2,22.2l-17.4-2.3l2.2-28.3c0.7-6.7,3-13.1,6.6-18.7
				c0.4-0.6,0.8-1.1,1.2-1.6C209.1,271.3,217.4,268.6,225.4,270.5"/>
			<path id="Path_625" style="clip-path:url(#SVGID_00000155138344208921367260000005312119633040843155_);fill:#3F3D56;" d="
				M264.6,340.5l19.1,22.4l28.6-33.8l-19.3-23.5L264.6,340.5z"/>
			<path id="Path_626" style="clip-path:url(#SVGID_00000155138344208921367260000005312119633040843155_);fill:#F2F2F2;" d="
				M307.4,329.9l-22.7-18.6c1.3-3.1,7.5-2.1,7.5-2.1l17.8,18c0.6,0.6,1.1,1.3,1.6,2.1L307.4,329.9z"/>
			<path id="Path_627" style="clip-path:url(#SVGID_00000155138344208921367260000005312119633040843155_);fill:#3F3D56;" d="
				M308.4,328.6l-25.8-20.1L254,351.9l27,18.2c2.6,1,5.2-0.8,5.2-0.8l26.3-40.2L308.4,328.6z"/>
			
				<rect id="Rectangle_55" x="293.8" y="310.7" transform="matrix(0.5842 -0.8116 0.8116 0.5842 -138.2155 372.0396)" style="clip-path:url(#SVGID_00000155138344208921367260000005312119633040843155_);fill:#3FA9F5;" width="0.4" height="20.3"/>
			
				<rect id="Rectangle_56" x="272.3" y="347.4" transform="matrix(0.5517 -0.8341 0.8341 0.5517 -159.0535 399.3138)" style="clip-path:url(#SVGID_00000155138344208921367260000005312119633040843155_);fill:#3FA9F5;" width="39.3" height="0.4"/>
			
				<rect id="Rectangle_57" x="269.5" y="347.7" transform="matrix(0.5931 -0.8051 0.8051 0.5931 -178.9487 363.0606)" style="clip-path:url(#SVGID_00000155138344208921367260000005312119633040843155_);fill:#3FA9F5;" width="0.4" height="21.8"/>
			
				<rect id="Rectangle_58" x="252" y="331.4" transform="matrix(0.571 -0.821 0.821 0.571 -155.6934 365.2825)" style="clip-path:url(#SVGID_00000155138344208921367260000005312119633040843155_);fill:#3FA9F5;" width="39.3" height="0.4"/>
			
				<rect id="Rectangle_59" x="299.6" y="304.7" transform="matrix(0.6755 -0.7373 0.7373 0.6755 -137.5808 324.3755)" style="clip-path:url(#SVGID_00000155138344208921367260000005312119633040843155_);fill:#B3B3B3;" width="0.3" height="27.7"/>
			
				<rect id="Rectangle_60" x="298.4" y="304.5" transform="matrix(0.6617 -0.7498 0.7498 0.6617 -137.9743 331.6311)" style="clip-path:url(#SVGID_00000155138344208921367260000005312119633040843155_);fill:#B3B3B3;" width="0.3" height="28.5"/>
			
				<rect id="Rectangle_61" x="297.5" y="304.5" transform="matrix(0.64 -0.7684 0.7684 0.64 -137.9055 343.4829)" style="clip-path:url(#SVGID_00000155138344208921367260000005312119633040843155_);fill:#B3B3B3;" width="0.3" height="28.8"/>
			<path id="Path_628" style="clip-path:url(#SVGID_00000155138344208921367260000005312119633040843155_);fill:#A0616A;" d="
				M274.9,347.1L274.9,347.1c-3.4-2.4-8.2-1.5-10.6,1.9l0,0l-0.1,0.1l-11,16.3l8,6.7l14.5-13.2c3.1-2.8,3.3-7.6,0.5-10.7
				C275.8,347.8,275.3,347.4,274.9,347.1"/>
			<path id="Path_629" style="clip-path:url(#SVGID_00000155138344208921367260000005312119633040843155_);fill:#3FA9F5;" d="
				M263.6,370.3c-4.5,22.5-15.4,39.9-41.1,45.4c-19.7-17-27.6-39.1-26.4-65.3c0.3-6.7,6-11.8,12.6-11.5c0,0,0,0,0,0
				c0.2,0,0.4,0,0.5,0c5,0.5,9.2,4,10.5,8.8l10,36.1l22.7-20.9L263.6,370.3z"/>
			<path id="Path_631" style="clip-path:url(#SVGID_00000155138344208921367260000005312119633040843155_);fill:#E6E6E6;" d="
				M314.3,127.7c-0.7,0-1.2,0.5-1.2,1.2v95.7c0,0.7,0.5,1.2,1.2,1.2H394c0.7,0,1.2-0.5,1.2-1.2v-95.7c0-0.7-0.5-1.2-1.2-1.2
				L314.3,127.7z"/>
			
				<rect id="Rectangle_62" x="322.5" y="137.2" style="clip-path:url(#SVGID_00000155138344208921367260000005312119633040843155_);fill:#FFFFFF;" width="63.2" height="79.1"/>
			<path id="Path_632" style="clip-path:url(#SVGID_00000155138344208921367260000005312119633040843155_);fill:#E6E6E6;" d="
				M447,152.8c-0.4,0-0.7,0.3-0.7,0.7v47.6c0,0.4,0.3,0.7,0.7,0.7h57.1c0.4,0,0.7-0.3,0.7-0.7v-47.6c0-0.4-0.3-0.7-0.7-0.7H447z"/>
			
				<rect id="Rectangle_63" x="452" y="158.5" style="clip-path:url(#SVGID_00000155138344208921367260000005312119633040843155_);fill:#FFFFFF;" width="47.2" height="37.7"/>
			<path id="Path_633" style="clip-path:url(#SVGID_00000155138344208921367260000005312119633040843155_);fill:#E6E6E6;" d="
				M365.3,134.4H343c-1.7,0-3.1-1.4-3.1-3.1c0-0.5,0.1-1.1,0.4-1.5l11.2-19.3l0,0c0.5-0.8,1.4-1.4,2.3-1.5h0c0.1,0,0.2,0,0.3,0
				c1.1,0,2.1,0.6,2.7,1.5l11.2,19.3c0.8,1.5,0.3,3.3-1.1,4.2C366.3,134.3,365.8,134.4,365.3,134.4L365.3,134.4z M342.4,131.4
				c0,0.1,0,0.2,0.1,0.3c0.1,0.2,0.3,0.3,0.5,0.3h22.3c0.2,0,0.4-0.1,0.5-0.3c0.1-0.1,0.1-0.2,0.1-0.3c0-0.1,0-0.2-0.1-0.3
				l-11.2-19.3c-0.2-0.3-0.5-0.4-0.8-0.2c-0.1,0.1-0.2,0.1-0.2,0.2l-11.2,19.3C342.4,131.2,342.4,131.3,342.4,131.4"/>
			<path id="Path_634" style="clip-path:url(#SVGID_00000155138344208921367260000005312119633040843155_);fill:#E6E6E6;" d="
				M354.1,111.1c1,0,1.8,0.8,1.8,1.8s-0.8,1.8-1.8,1.8c-1,0-1.8-0.8-1.8-1.8C352.3,111.9,353.1,111.1,354.1,111.1L354.1,111.1"/>
			<path id="Path_635" style="clip-path:url(#SVGID_00000155138344208921367260000005312119633040843155_);fill:#E6E6E6;" d="
				M481.6,154.4h-12.1c-0.9,0-1.7-0.7-1.7-1.7c0-0.3,0.1-0.6,0.2-0.8l6-10.5l0,0c0.3-0.5,0.7-0.8,1.3-0.8h0c0.1,0,0.1,0,0.2,0
				c0.6,0,1.1,0.3,1.4,0.8l6,10.5c0.5,0.8,0.2,1.8-0.6,2.3C482.2,154.3,481.9,154.4,481.6,154.4L481.6,154.4z M469.2,152.7
				c0,0.1,0,0.1,0,0.2c0.1,0.1,0.2,0.2,0.3,0.2h12.1c0.1,0,0.2-0.1,0.3-0.2c0-0.1,0-0.1,0-0.2c0-0.1,0-0.1,0-0.2l-6.1-10.5
				c-0.1-0.2-0.3-0.2-0.5-0.1c-0.1,0-0.1,0.1-0.1,0.1l-6,10.5C469.2,152.6,469.2,152.7,469.2,152.7"/>
			<path id="Path_636" style="clip-path:url(#SVGID_00000155138344208921367260000005312119633040843155_);fill:#E6E6E6;" d="
				M475.6,141.7c0.6,0,1,0.4,1,1c0,0.6-0.4,1-1,1s-1-0.4-1-1C474.6,142.2,475,141.7,475.6,141.7"/>
			<path id="Path_637" style="clip-path:url(#SVGID_00000155138344208921367260000005312119633040843155_);fill:#E6E6E6;" d="
				M323.3,186.2c1.8-4.1,5.2-7.3,9.4-8.8c4.4-1.7,9.3-1.4,13.4,0.8c4.8,2.5,8.6,6.5,13.5,9c4.7,2.3,9.9,3.6,15.2,3.6
				c6,0,11.9-1.5,17-4.4c0.4-0.3,0.6-0.8,0.3-1.3c-0.3-0.4-0.8-0.5-1.2-0.3c-9.6,5.4-21.2,5.6-30.9,0.6c-4.9-2.6-8.7-6.7-13.7-9.1
				c-4.3-2.1-9.2-2.3-13.6-0.8c-5,1.7-9,5.4-11,10.2C321,186.8,322.8,187.3,323.3,186.2z"/>
			<path id="Path_638" style="clip-path:url(#SVGID_00000155138344208921367260000005312119633040843155_);fill:#E6E6E6;" d="
				M321.8,203.4c10.2-2.3,20.8-2.2,31,0.1c9.1,2.1,18.4,5.9,27.7,3.1c4.2-1.1,7.9-3.9,10.1-7.7c0.6-1-1-2-1.6-0.9
				c-4,7.3-13.5,8.5-21,7.3c-5-0.8-9.8-2.4-14.7-3.6c-10.6-2.5-21.5-2.5-32.1-0.1C320.2,201.9,320.6,203.7,321.8,203.4z"/>
			<path id="Path_639" style="clip-path:url(#SVGID_00000155138344208921367260000005312119633040843155_);fill:#E6E6E6;" d="
				M321.1,162.3c9.8-1.7,19.8-1.3,29.5,1c9,2.2,17.8,7.3,27.4,6.4c4.4-0.4,8.8-2,11.8-5.4c0.8-0.9-0.5-2.2-1.3-1.3
				c-2.7,2.8-6.3,4.5-10.1,4.8c-4.4,0.3-8.8-0.3-12.9-1.7c-4.6-1.4-9.1-3.3-13.9-4.4c-10.1-2.5-20.6-2.9-30.9-1.2
				C319.5,160.7,320,162.5,321.1,162.3z"/>
			<path id="Path_640" style="clip-path:url(#SVGID_00000155138344208921367260000005312119633040843155_);fill:#E6E6E6;" d="
				M460.2,157.9c4.2,4.3,7.2,9.8,8.4,15.7c2,9.5-0.6,19.5-6.9,26.9c-0.8,0.9,0.5,2.2,1.3,1.3c4.2-5,6.9-11.1,7.8-17.6
				c1.3-10.2-2.2-20.3-9.4-27.6C460.7,155.7,459.4,157,460.2,157.9z"/>
			<path id="Path_641" style="clip-path:url(#SVGID_00000155138344208921367260000005312119633040843155_);fill:#E6E6E6;" d="
				M487.8,154c-5.5,4.3-8.9,10.7-9.2,17.7c-0.5,7.2,2.3,14.1,6.7,19.7c2.6,3.2,5.7,6,9.1,8.2c1,0.6,1.9-0.9,0.9-1.6
				c-5.8-3.6-10.3-8.9-13-15.2c-2.5-6-2.5-12.8-0.1-18.9c1.4-3.3,3.6-6.2,6.5-8.4C489.7,154.9,488.8,153.3,487.8,154z"/>
			<path id="Path_642" style="clip-path:url(#SVGID_00000155138344208921367260000005312119633040843155_);fill:#E6E6E6;" d="
				M358.4,155.3c4.7,0,8.6,3.8,8.6,8.6c0,4.7-3.8,8.6-8.6,8.6c-4.7,0-8.6-3.8-8.6-8.6C349.8,159.1,353.7,155.3,358.4,155.3
				L358.4,155.3"/>
		</g>
	</g>
</g>
</svg>
