<?xml version="1.0" encoding="utf-8"?>
<!-- Generator: Adobe Illustrator 26.0.1, SVG Export Plug-In . SVG Version: 6.00 Build 0)  -->
<svg version="1.1" xmlns="http://www.w3.org/2000/svg" xmlns:xlink="http://www.w3.org/1999/xlink" x="0px" y="0px"
	 viewBox="0 0 669.2 511.6" style="enable-background:new 0 0 669.2 511.6;" xml:space="preserve">
<style type="text/css">
	.st0{clip-path:url(#SVGID_00000168078828204193465850000015647307380595025082_);}
	.st1{fill:#FFB7B7;}
	.st2{clip-path:url(#SVGID_00000096755059479309874970000011149781899536910484_);}
	.st3{fill:#2F2E41;}
	.st4{fill:#E5E5E5;}
	.st5{opacity:0.1;}
	.st6{clip-path:url(#SVGID_00000041996817038069452880000014996217061969377711_);}
	.st7{fill:#3FA9F5;}
	.st8{clip-path:url(#SVGID_00000160158650309787310680000000973057315981728164_);}
	.st9{opacity:0.17;}
	.st10{clip-path:url(#SVGID_00000153689267932073903900000014123818533731428277_);}
	.st11{clip-path:url(#SVGID_00000143609709752707619220000018149473135235322784_);}
</style>
<g id="Layer_1">
</g>
<g id="Group_282">
	<g>
		<defs>
			<rect id="SVGID_1_" x="172" y="45.9" width="298.6" height="422.4"/>
		</defs>
		<clipPath id="SVGID_00000116217373155684797420000011400970458995203203_">
			<use xlink:href="#SVGID_1_"  style="overflow:visible;"/>
		</clipPath>
		<g id="Group_281" style="clip-path:url(#SVGID_00000116217373155684797420000011400970458995203203_);">
			<path id="Path_787" class="st1" d="M384.5,408.3l-6.9,18l-72.5-18.1l10.2-26.5L384.5,408.3z"/>
			<g id="Group_280">
				<g>
					<defs>
						<rect id="SVGID_00000173864172720480370100000000488925431125198739_" x="172" y="45.9" width="298.6" height="422.4"/>
					</defs>
					<clipPath id="SVGID_00000078734688333761122620000002329067887452285103_">
						<use xlink:href="#SVGID_00000173864172720480370100000000488925431125198739_"  style="overflow:visible;"/>
					</clipPath>
					<g id="Group_279" style="clip-path:url(#SVGID_00000078734688333761122620000002329067887452285103_);">
						<path id="Path_788" class="st3" d="M403.7,410.4l-22.2,57.9l-0.7-0.3c-12.4-4.8-18.7-18.7-13.9-31.2l0,0l13.6-35.4
							L403.7,410.4z"/>
						<path id="Path_789" class="st4" d="M274.3,183.5l-31.6,3l-1.6,94c0.9,9.6,9.3,16.7,18.9,16.1l20-1.4L274.3,183.5z"/>
						<path id="Path_790" class="st4" d="M385.7,178.9l-21.6-0.3l-1.3,111.7c19.2,0.6,35.3-14.4,35.9-33.6c0,0,0,0,0,0
							c0-0.8,0-1.7,0-2.5L385.7,178.9z"/>
						<path id="Path_791" class="st3" d="M260.3,330c-0.5,3.2-1.3,6.4-2.2,9.6c-1.1,3.1-2.8,5.9-3.8,9c-3.2,9.9,1.2,20.9,8.3,28.5
							c6.1,6.6,14,11.3,22.7,13.5c6.4,1.4,13,2.1,19.5,2c18.1,0.6,36.7,1.2,53.9-4.7c5.4-1.9,10.7-4.3,15.7-7.1
							c1.6-0.8,3-1.8,4.1-3.2c1.2-2,1.7-4.3,1.5-6.6c0-7.7-1.6-15.3-1.2-23c0.5-4.2,0.7-8.5,0.6-12.7c-1.1-9.9-8.3-18-18-20.2
							c-4.9-0.8-10-0.8-14.9,0c-12.9,1.2-25.8,1.8-38.7,1.7c-13.2-0.1-26.4-2.1-39.5-2.3c-3.9-0.1-3.8,1.1-5,4.9
							C261.9,322.9,261,326.5,260.3,330"/>
						<path id="Path_792" class="st3" d="M208.6,323.8c-3.6-0.9-7.2-1.3-10.9-1.2c-15,0.8-26.4,13.6-25.6,28.6
							c0.1,1.1,0.2,2.3,0.4,3.4c0.9,4.1,2.3,8.1,4.3,11.8c2.5,6,6.6,11.4,11.7,15.4c3.2,2.1,6.7,3.7,10.3,4.9l28.1,10.6
							c4.1,1.6,8.3,3.1,12.5,4.6c21,7.3,42.9,11.6,65.1,12.9c6.7,0.6,13.6,0.3,20.2-1c1.6-0.2,3.1-1,4.1-2.2c0.5-0.9,0.9-2,0.9-3.1
							l1.7-12.1c0.4-1.7,0.3-3.4-0.1-5.1c-1-2-2.7-3.5-4.7-4.4c-18.5-10.6-40.1-16.5-55.7-31.1c-3.7-3.4-6.7-8.9-11.2-11.2
							c-5-2.6-11-4.2-16.2-6.6C232.2,332.7,220.9,326.6,208.6,323.8"/>
						<g id="Group_269" transform="translate(16 89.63)" class="st5">
							<g id="Group_268">
								<g>
									<defs>
										<rect id="SVGID_00000041288566256348845590000010418102764849205406_" x="208.1" y="247.7" width="71.7" height="35"/>
									</defs>
									<clipPath id="SVGID_00000099663882373828216630000009056066497742248328_">
										<use xlink:href="#SVGID_00000041288566256348845590000010418102764849205406_"  style="overflow:visible;"/>
									</clipPath>
									<g id="Group_267" style="clip-path:url(#SVGID_00000099663882373828216630000009056066497742248328_);">
										<path id="Path_793" d="M220.7,250.5c9.9,3.1,51.9,24.7,59.1,32.2c-1,0.3-33.7-18-34.7-18.3c-9-2.5-17.8-5.6-26.4-9.3
											c-1.7-0.8-11.1-4.5-10.7-6.6C208.6,246.1,218.9,250,220.7,250.5"/>
									</g>
								</g>
							</g>
						</g>
						<path id="Path_794" class="st4" d="M296.7,151.9l-26.8,20.3c0,0-28.3,0.9-27.3,18.9c1,18.1,12.3,103.6,12.3,103.6l2.5,29.4
							l46.5,13.3c25.1,7.2,51.7,7.7,77.1,1.7l-5.5-29.5c0,0,22.4-134,8.9-139.9c-13.5-5.9-21.9-4.2-21.9-4.2l-16.9-14.8L296.7,151.9
							z"/>
						<path id="Path_795" class="st3" d="M375.9,119.1c0,26.4-24.4,22.4-54.5,22.4c-30.1,0-54.5,4-54.5-22.4s11.9-73.2,54.5-73.2
							C365.5,45.9,375.9,92.7,375.9,119.1"/>
						<path id="Path_796" class="st1" d="M297.9,76.2c14.3-14.3,37.5-14.3,51.9,0c14.3,14.3,14.3,37.5,0,51.9
							c-14.3,14.3-37.5,14.3-51.9,0C283.6,113.7,283.6,90.5,297.9,76.2C297.9,76.2,297.9,76.2,297.9,76.2"/>
						<path id="Path_797" class="st3" d="M278.9,101.2h14.5l6.4-17.9l1.3,17.9h6.9l3.7-10.5l0.7,10.5H364
							c0-21.4-17.4-38.8-38.8-38.8l0,0h-7.5C296.2,62.3,278.9,79.7,278.9,101.2z"/>
						<rect id="Rectangle_114" x="284.9" y="156.1" class="st7" width="73.3" height="88.5"/>
						<path id="Path_798" class="st1" d="M288.9,407.4l6.9,18l72.5-18.1l-10.2-26.5L288.9,407.4z"/>
						<path id="Path_799" class="st3" d="M293,400.6l13.6,35.4l0,0c4.8,12.4-1.4,26.4-13.9,31.2l-0.7,0.3l-22.2-57.9L293,400.6z"/>
						<path id="Path_800" class="st3" d="M433.9,316.9c5.8-1.5,11.9-1.9,17.8-1.2c10.4-0.1,18.9,8.2,19,18.6c0,0.9,0,1.8-0.2,2.7
							c0.2,11.6-3.7,23-10.9,32.1c-1.8,2.3-3.9,4.3-6.2,6c-2.6,1.6-5.3,2.9-8.1,3.9l-63,24.8c-16.4,6.9-33.3,12.7-50.5,17.4
							c-2,0.9-4.3,0.1-5.3-1.8c0,0,0,0,0,0l0-0.1c-5.5-7.9-10.1-16.4-13.8-25.3c-0.6-0.7-0.5-1.8,0.2-2.4c0.2-0.1,0.3-0.2,0.5-0.3
							l44.5-25.6c3.3-1.7,6.3-3.8,9.1-6.2c1.9-1.9,3.5-4.1,4.7-6.5c0.9-1.9,1-6.5,2.2-7.9c1.2-1.4,5.1-1.5,6.9-2.1
							c2.6-0.8,5.1-1.7,7.5-2.9c10-4.5,18.9-10.9,28.4-16.2C422.2,320.9,427.9,318.5,433.9,316.9"/>
						<g id="Group_272" transform="translate(50.76 87.728)" class="st5">
							<g id="Group_271">
								<g>
									<defs>
										<rect id="SVGID_00000009581382165048014200000000518328734132509334_" x="286.3" y="243.4" width="81.3" height="51.4"/>
									</defs>
									<clipPath id="SVGID_00000066474936503207279830000010360446724454154152_">
										<use xlink:href="#SVGID_00000009581382165048014200000000518328734132509334_"  style="overflow:visible;"/>
									</clipPath>
									<g id="Group_270" style="clip-path:url(#SVGID_00000066474936503207279830000010360446724454154152_);">
										<path id="Path_801" d="M357.9,248.3c-7.7,5.7-17.6,11-25.2,16.9c-2.6,2-45.8,26.3-46.4,29.5c7.1,1.2,52.2-30.4,58.6-33.5
											c6.3-3.4,12.3-7.4,17.8-12c1.4-1.1,7.6-4.5,3.4-5.8C363.9,242.8,359.6,247.2,357.9,248.3"/>
									</g>
								</g>
							</g>
						</g>
						<g id="Group_275" transform="translate(26.921 48.864)" class="st9">
							<g id="Group_274">
								<g>
									<defs>
										<rect id="SVGID_00000143604398925311455150000013954541596155825585_" x="232.6" y="155.9" width="33.5" height="22.1"/>
									</defs>
									<clipPath id="SVGID_00000054947931077832702440000010091788179155401370_">
										<use xlink:href="#SVGID_00000143604398925311455150000013954541596155825585_"  style="overflow:visible;"/>
									</clipPath>
									<g id="Group_273" style="clip-path:url(#SVGID_00000054947931077832702440000010091788179155401370_);">
										<path id="Path_802" class="st3" d="M232.6,163.7l1-7.8c0,0,37.8,2.8,31.9,12s-20.2,10.1-20.2,10.1L232.6,163.7z"/>
									</g>
								</g>
							</g>
						</g>
						<path id="Path_803" class="st1" d="M288.1,178.6c8.1,0.9,13.9,8.1,13.1,16.2c-0.5,4.4-2.9,8.3-6.6,10.8
							c-0.2,0.1-0.3,0.2-0.5,0.3c-0.6,0.4-1.3,0.7-2,1l-23.2,71c-2.8,5.9-9.9,8.3-15.7,5.5c-5.9-2.8-8.3-9.9-5.5-15.7l0.1-0.1
							l24.7-70.3c-2.3-7.8,2.2-16,10-18.2C284.2,178.6,286.2,178.4,288.1,178.6"/>
						<path id="Path_804" class="st4" d="M259.9,205.5c0,0,13.3,22.7,32.5,11.4l-18.6,71.3h-15.7l-16.3-3l4.6-29.5L259.9,205.5z"/>
						<path id="Path_805" class="st4" d="M354.9,221l-11-15.1c0,0,5.3-15.7,25.8-10C369.7,195.9,382.8,225.2,354.9,221"/>
						<g id="Group_278" transform="translate(52.849 45.744)" class="st9">
							<g id="Group_277">
								<g>
									<defs>
										<rect id="SVGID_00000005958420634956144890000012634887574816093873_" x="291" y="148.9" width="28.9" height="26.8"/>
									</defs>
									<clipPath id="SVGID_00000031196784899661825360000017680553235175426228_">
										<use xlink:href="#SVGID_00000005958420634956144890000012634887574816093873_"  style="overflow:visible;"/>
									</clipPath>
									<g id="Group_276" style="clip-path:url(#SVGID_00000031196784899661825360000017680553235175426228_);">
										<path id="Path_806" class="st3" d="M302.1,175.3l-11-15.1c0,0,5.3-15.7,25.8-10C316.9,150.2,329.9,179.4,302.1,175.3"/>
									</g>
								</g>
							</g>
						</g>
						<path id="Path_807" class="st1" d="M357.8,168.1c6.6,3.1,9.9,10.5,7.9,17.4l24.7,70.2c2.9,5.8,0.5,12.9-5.4,15.8
							c-5.8,2.9-12.9,0.5-15.8-5.4l-0.1-0.1l-23.2-71c-0.7-0.3-1.3-0.6-2-1c-7-4.2-9.3-13.2-5.1-20.2c0.1-0.2,0.2-0.3,0.3-0.5
							c2.4-3.7,6.3-6.1,10.7-6.6C352.6,166.5,355.4,167,357.8,168.1"/>
						<path id="Path_808" class="st4" d="M343.9,205.9c0,0,18.2,11,25.8-10l25.6,67.5l-7.6,13.3l-1.1,0.1c-9.2,0.8-18.2-3-24.1-10.2
							c-5.9-7.2-9.9-15.7-11.7-24.8L343.9,205.9z"/>
					</g>
				</g>
			</g>
		</g>
	</g>
</g>
</svg>
